<?xml version="1.0" encoding="UTF-8" standalone="no"?>
<!-- Created with Inkscape (http://www.inkscape.org/) -->

<svg
   xmlns:dc="http://purl.org/dc/elements/1.1/"
   xmlns:cc="http://creativecommons.org/ns#"
   xmlns:rdf="http://www.w3.org/1999/02/22-rdf-syntax-ns#"
   xmlns:svg="http://www.w3.org/2000/svg"
   xmlns="http://www.w3.org/2000/svg"
   xmlns:xlink="http://www.w3.org/1999/xlink"
   xmlns:sodipodi="http://sodipodi.sourceforge.net/DTD/sodipodi-0.dtd"
   xmlns:inkscape="http://www.inkscape.org/namespaces/inkscape"
   width="480"
   height="660"
   id="svg2"
   version="1.1"
   inkscape:version="0.48.2 r9819"
   sodipodi:docname="boxshot.svg"
   inkscape:export-filename="J:\Recher\projets\git\kawax\doc_diverses\indiedb_boxshot.png"
   inkscape:export-xdpi="90"
   inkscape:export-ydpi="90">
  <defs
     id="defs4">
    <linearGradient
       id="linearGradient5482">
      <stop
         id="stop5484"
         offset="0"
         style="stop-color:#000000;stop-opacity:0;" />
      <stop
         id="stop5486"
         offset="1"
         style="stop-color:#000000;stop-opacity:1;" />
    </linearGradient>
    <linearGradient
       gradientUnits="userSpaceOnUse"
       y2="968.61291"
       x2="138.6875"
       y1="968.61291"
       x1="25.375"
       id="linearGradient5488-1"
       xlink:href="#linearGradient5482-8"
       inkscape:collect="always" />
    <filter
       id="filter5460-1"
       inkscape:collect="always">
      <feGaussianBlur
         id="feGaussianBlur5462-7"
         stdDeviation="1.2833588"
         inkscape:collect="always" />
    </filter>
    <pattern
       inkscape:collect="always"
       patternUnits="userSpaceOnUse"
       width="30.066020"
       height="5.1805778"
       id="Wavy-5"
       inkscape:stockid="Wavy">
      <path
         style="fill:black;stroke:none;"
         d="M 7.597,0.061 C 5.079,-0.187 2.656,0.302 -0.01,1.788 L -0.01,3.061 C 2.773,1.431 5.173,1.052 7.472,1.280 C 9.770,1.508 11.969,2.361 14.253,3.218 C 18.820,4.931 23.804,6.676 30.066,3.061 L 30.062,1.788 C 23.622,5.497 19.246,3.770 14.691,2.061 C 12.413,1.207 10.115,0.311 7.597,0.061 z "
         id="path5257-5" />
    </pattern>
    <linearGradient
       id="linearGradient5482-8">
      <stop
         id="stop5484-2"
         offset="0"
         style="stop-color:#000000;stop-opacity:0;" />
      <stop
         id="stop5486-4"
         offset="1"
         style="stop-color:#000000;stop-opacity:1;" />
    </linearGradient>
  </defs>
  <sodipodi:namedview
     id="base"
     pagecolor="#ffffff"
     bordercolor="#666666"
     borderopacity="1.0"
     inkscape:pageopacity="1"
     inkscape:pageshadow="2"
     inkscape:zoom="0.7"
     inkscape:cx="173.00718"
     inkscape:cy="353.3415"
     inkscape:document-units="px"
     inkscape:current-layer="layer1-9"
     showgrid="false"
     inkscape:window-width="1280"
     inkscape:window-height="968"
     inkscape:window-x="-4"
     inkscape:window-y="-4"
     inkscape:window-maximized="1" />
  <metadata
     id="metadata7">
    <rdf:RDF>
      <cc:Work
         rdf:about="">
        <dc:format>image/svg+xml</dc:format>
        <dc:type
           rdf:resource="http://purl.org/dc/dcmitype/StillImage" />
        <dc:title></dc:title>
      </cc:Work>
    </rdf:RDF>
  </metadata>
  <g
     inkscape:label="Calque 1"
     inkscape:groupmode="layer"
     id="layer1"
     transform="translate(0,-392.36218)">
    <g
       transform="translate(5.8719686,-251.01896)"
       id="layer1-9"
       inkscape:label="Calque 1">
      <path
         style="fill:#000000;fill-opacity:1;stroke:none"
         d="m -10.871969,904.09543 c 35.000001,49.2857 64.285715,72.8571 84.285715,52.1428 19.999997,-20.7142 37.857144,-87.1428 69.285714,-72.1428 31.42857,15 39.28571,67.8571 77.14285,65.7143 37.85715,-2.1429 61.42858,-57.8572 100,-42.8572 38.57143,15 31.42858,102.14287 74.28572,124.28567 42.85714,22.1429 50,-55.71424 84.28572,-69.28564 8.57143,-3.3929 4.15632,19.11171 4.10713,24.29685 l 0.50417,324.03249 -496.754163,0.2421"
         id="path3167"
         inkscape:connector-curvature="0"
         sodipodi:nodetypes="cssssssscc" />
      <g
         transform="matrix(1.4055646,0,0,1.4055646,19.98493,-181.94864)"
         id="layer1-2"
         inkscape:label="Calque 1">
        <path
           transform="matrix(1,0,0,1.05625,1.9657171,838.31123)"
           d="m 137.38074,43.678894 c 0,14.436689 -25.66579,26.139938 -57.326152,26.139938 -31.660362,0 -57.326156,-11.703249 -57.326156,-26.139938 0,-14.436689 25.665794,-26.139938 57.326156,-26.139938 31.660362,0 57.326152,11.703249 57.326152,26.139938 z"
           sodipodi:ry="26.139938"
           sodipodi:rx="57.326157"
           sodipodi:cy="43.678894"
           sodipodi:cx="80.054588"
           id="path2985"
           style="fill:#b3b3b3;fill-opacity:1;stroke:none"
           sodipodi:type="arc" />
        <path
           sodipodi:nodetypes="cccccccccccccccccccccccccccccc"
           inkscape:connector-curvature="0"
           id="path3852"
           d="m 27.857143,897.43361 c -2.971402,-2.48814 0.797843,-4.29918 1.071428,-5.35715 1.33449,-1.78194 0.523313,-2.23199 0.892858,-4.64285 2.442447,-0.36783 3.040172,-1.27286 3.732219,-3.76778 2.08384,-1.19824 2.643509,-3.71343 6.114931,-3.90996 1.911556,-1.38966 4.908687,-0.58616 7.117135,-1.78655 1.984943,-0.71189 4.525163,-2.44171 5.497411,-3.55139 0.815621,-1.17988 4.775312,-2.36961 7.002589,-3.05575 2.006521,0.24109 3.609458,-0.50651 5.574796,-0.35714 2.784592,0 3.78347,0 6.568062,0 1.379056,-1.6384 3.695339,-1.26952 5,-2.85714 1.782091,0.005 4.282452,-0.0183 5.036985,0.0185 0.69989,-1.21189 2.878857,-0.57801 4.466381,-0.73278 1.802504,0.36388 2.59166,-0.30444 4.466545,0.20165 0.957806,1.10137 3.618315,-1.47781 5.091734,0.15625 2.064475,0.78192 4.877033,-0.18601 5.224073,1.42782 1.4125,1.24671 3.06505,0.4437 3.38133,0.94091 1.75576,1.24254 1.84384,-0.63679 3.04724,1.91622 1.68698,0.93071 4.83056,2.56644 5.05916,2.5 2.80967,0.59009 3.33606,-0.30811 6.01227,0.35715 1.54069,1.63728 1.13051,-1.06038 2.85714,1.07143 0.66867,-0.4144 4.45405,1.94266 3.57143,2.5 1.94393,2.25023 4.21278,1.36555 4.99999,3.57143 3.14825,0.85019 3.59996,0.43368 4.64286,3.21428 1.28097,0.57673 2.15673,2.05221 1.99586,2.14798 -0.52868,1.64956 1.56515,3.83664 2.85714,4.38295 -1.46818,0.68706 -8.72939,25.01053 -10.88251,27.3705 -44.081308,14.03043 -87.77714,1.09322 -96.470486,5.38428 0.152897,-2.6414 -2.856733,-21.87992 -3.214285,-23.92857 0.03012,2.44385 0.120811,-3.35269 -0.714286,-3.21429 z"
           style="fill:#642e0a;fill-opacity:1;stroke:none" />
        <path
           sodipodi:nodetypes="cccccccccccccccccccccccccccccc"
           inkscape:connector-curvature="0"
           id="path3852-7"
           d="m 27.857143,897.43361 c -2.971402,-2.48814 0.797843,-4.29918 1.071428,-5.35715 1.33449,-1.78194 0.523313,-2.23199 0.892858,-4.64285 2.442447,-0.36783 3.040172,-1.27286 3.732219,-3.76778 2.08384,-1.19824 2.643509,-3.71343 6.114931,-3.90996 1.911556,-1.38966 4.908687,-0.58616 7.117135,-1.78655 1.984943,-0.71189 4.525163,-2.44171 5.497411,-3.55139 0.815621,-1.17988 4.775312,-2.36961 7.002589,-3.05575 2.006521,0.24109 3.609458,-0.50651 5.574796,-0.35714 2.784592,0 3.78347,0 6.568062,0 1.379056,-1.6384 3.695339,-1.26952 5,-2.85714 1.782091,0.005 4.282452,-0.0183 5.036985,0.0185 0.69989,-1.21189 2.878857,-0.57801 4.466381,-0.73278 1.802504,0.36388 2.59166,-0.30444 4.466545,0.20165 0.957806,1.10137 3.618315,-1.47781 5.091734,0.15625 2.064475,0.78192 4.877033,-0.18601 5.224073,1.42782 1.4125,1.24671 3.06505,0.4437 3.38133,0.94091 1.75576,1.24254 1.84384,-0.63679 3.04724,1.91622 1.68698,0.93071 4.83056,2.56644 5.05916,2.5 2.80967,0.59009 3.33606,-0.30811 6.01227,0.35715 1.54069,1.63728 1.13051,-1.06038 2.85714,1.07143 0.66867,-0.4144 4.45405,1.94266 3.57143,2.5 1.94393,2.25023 4.21278,1.36555 4.99999,3.57143 3.14825,0.85019 3.59996,0.43368 4.64286,3.21428 1.28097,0.57673 2.15673,2.05221 1.99586,2.14798 -0.52868,1.64956 1.56515,3.83664 2.85714,4.38295 -1.46818,0.68706 -8.72939,25.01053 -10.88251,27.3705 -44.081308,14.03043 -87.77714,1.09322 -96.470486,5.38428 0.152897,-2.6414 -2.856733,-21.87992 -3.214285,-23.92857 0.03012,2.44385 0.120811,-3.35269 -0.714286,-3.21429 z"
           style="opacity:0.5107143;fill:url(#Wavy-5);fill-opacity:1;stroke:none;filter:url(#filter5460-1)" />
        <path
           id="rect2987"
           transform="translate(0,852.36218)"
           d="M 138.6875,36.28125 C 134.483,49.534371 110.72345,59.6875 82.03125,59.6875 53.385989,59.6875 29.636491,49.56504 25.375,36.34375 l 13.21875,141.125 c 23.065152,25.2538 65.82508,24.7487 87.375,0 L 138.6875,36.28125 z"
           style="fill:#e6e6e6;fill-opacity:1;stroke:none"
           inkscape:connector-curvature="0" />
        <path
           sodipodi:nodetypes="cc"
           transform="translate(0,852.36218)"
           inkscape:connector-curvature="0"
           id="path3760"
           d="m 29.7995,87.17365 c 25.289407,29.29563 79.075,29.09723 104.36441,0"
           style="fill:none;stroke:#858585;stroke-width:2.4000001;stroke-linecap:round;stroke-linejoin:miter;stroke-miterlimit:4;stroke-opacity:1;stroke-dasharray:none" />
        <path
           transform="matrix(1.6774194,0,0,1.6774194,-19.897561,794.39524)"
           d="m 30.304576,86.957619 c 0,0.67993 -0.438128,1.231123 -0.978585,1.231123 -0.540458,0 -0.978586,-0.551193 -0.978586,-1.231123 0,-0.679931 0.438128,-1.231124 0.978586,-1.231124 0.540457,0 0.978585,0.551193 0.978585,1.231124 z"
           sodipodi:ry="1.2311234"
           sodipodi:rx="0.9785853"
           sodipodi:cy="86.957619"
           sodipodi:cx="29.325991"
           id="path3762"
           style="fill:#000000;fill-opacity:1;stroke:none"
           sodipodi:type="arc" />
        <path
           transform="matrix(1.6774194,0,0,1.6774194,85.852782,794.24456)"
           d="m 30.304576,86.957619 c 0,0.67993 -0.438128,1.231123 -0.978585,1.231123 -0.540458,0 -0.978586,-0.551193 -0.978586,-1.231123 0,-0.679931 0.438128,-1.231124 0.978586,-1.231124 0.540457,0 0.978585,0.551193 0.978585,1.231124 z"
           sodipodi:ry="1.2311234"
           sodipodi:rx="0.9785853"
           sodipodi:cy="86.957619"
           sodipodi:cx="29.325991"
           id="path3762-1"
           style="fill:#000000;fill-opacity:1;stroke:none"
           sodipodi:type="arc" />
        <path
           sodipodi:nodetypes="cc"
           inkscape:connector-curvature="0"
           id="path3760-7"
           d="m 30.174546,945.48805 c 25.28941,29.29561 78.226784,29.09723 103.516194,0"
           style="fill:none;stroke:#858585;stroke-width:2.4000001;stroke-linecap:round;stroke-linejoin:miter;stroke-miterlimit:4;stroke-opacity:1;stroke-dasharray:none" />
        <path
           transform="matrix(1.6774194,0,0,1.6774194,-19.388584,800.34746)"
           d="m 30.304576,86.957619 c 0,0.67993 -0.438128,1.231123 -0.978585,1.231123 -0.540458,0 -0.978586,-0.551193 -0.978586,-1.231123 0,-0.679931 0.438128,-1.231124 0.978586,-1.231124 0.540457,0 0.978585,0.551193 0.978585,1.231124 z"
           sodipodi:ry="1.2311234"
           sodipodi:rx="0.9785853"
           sodipodi:cy="86.957619"
           sodipodi:cx="29.325991"
           id="path3762-4"
           style="fill:#000000;fill-opacity:1;stroke:none"
           sodipodi:type="arc" />
        <path
           transform="matrix(1.6774194,0,0,1.6774194,85.334967,800.19678)"
           d="m 30.304576,86.957619 c 0,0.67993 -0.438128,1.231123 -0.978585,1.231123 -0.540458,0 -0.978586,-0.551193 -0.978586,-1.231123 0,-0.679931 0.438128,-1.231124 0.978586,-1.231124 0.540457,0 0.978585,0.551193 0.978585,1.231124 z"
           sodipodi:ry="1.2311234"
           sodipodi:rx="0.9785853"
           sodipodi:cy="86.957619"
           sodipodi:cx="29.325991"
           id="path3762-1-0"
           style="fill:#000000;fill-opacity:1;stroke:none"
           sodipodi:type="arc" />
        <path
           sodipodi:nodetypes="cc"
           inkscape:connector-curvature="0"
           id="path3760-9"
           d="m 30.888833,951.20233 c 25.289406,29.29563 77.021427,29.09723 102.310847,0"
           style="fill:none;stroke:#858585;stroke-width:2.4000001;stroke-linecap:round;stroke-linejoin:miter;stroke-miterlimit:4;stroke-opacity:1;stroke-dasharray:none" />
        <path
           transform="matrix(1.6774194,0,0,1.6774194,-18.808225,806.06174)"
           d="m 30.304576,86.957619 c 0,0.67993 -0.438128,1.231123 -0.978585,1.231123 -0.540458,0 -0.978586,-0.551193 -0.978586,-1.231123 0,-0.679931 0.438128,-1.231124 0.978586,-1.231124 0.540457,0 0.978585,0.551193 0.978585,1.231124 z"
           sodipodi:ry="1.2311234"
           sodipodi:rx="0.9785853"
           sodipodi:cy="86.957619"
           sodipodi:cx="29.325991"
           id="path3762-48"
           style="fill:#000000;fill-opacity:1;stroke:none"
           sodipodi:type="arc" />
        <path
           transform="matrix(1.6774194,0,0,1.6774194,84.843897,805.91106)"
           d="m 30.304576,86.957619 c 0,0.67993 -0.438128,1.231123 -0.978585,1.231123 -0.540458,0 -0.978586,-0.551193 -0.978586,-1.231123 0,-0.679931 0.438128,-1.231124 0.978586,-1.231124 0.540457,0 0.978585,0.551193 0.978585,1.231124 z"
           sodipodi:ry="1.2311234"
           sodipodi:rx="0.9785853"
           sodipodi:cy="86.957619"
           sodipodi:cx="29.325991"
           id="path3762-1-8"
           style="fill:#000000;fill-opacity:1;stroke:none"
           sodipodi:type="arc" />
        <path
           sodipodi:nodetypes="cc"
           inkscape:connector-curvature="0"
           id="path3760-9-2"
           d="m 31.491512,957.27376 c 25.289402,29.29562 75.726778,29.09722 101.016208,0"
           style="fill:none;stroke:#858585;stroke-width:2.4000001;stroke-linecap:round;stroke-linejoin:miter;stroke-miterlimit:4;stroke-opacity:1;stroke-dasharray:none" />
        <path
           transform="matrix(1.6774194,0,0,1.6774194,-18.250188,812.13317)"
           d="m 30.304576,86.957619 c 0,0.67993 -0.438128,1.231123 -0.978585,1.231123 -0.540458,0 -0.978586,-0.551193 -0.978586,-1.231123 0,-0.679931 0.438128,-1.231124 0.978586,-1.231124 0.540457,0 0.978585,0.551193 0.978585,1.231124 z"
           sodipodi:ry="1.2311234"
           sodipodi:rx="0.9785853"
           sodipodi:cy="86.957619"
           sodipodi:cx="29.325991"
           id="path3762-48-4"
           style="fill:#000000;fill-opacity:1;stroke:none"
           sodipodi:type="arc" />
        <path
           transform="matrix(1.6774194,0,0,1.6774194,84.375144,811.98249)"
           d="m 30.304576,86.957619 c 0,0.67993 -0.438128,1.231123 -0.978585,1.231123 -0.540458,0 -0.978586,-0.551193 -0.978586,-1.231123 0,-0.679931 0.438128,-1.231124 0.978586,-1.231124 0.540457,0 0.978585,0.551193 0.978585,1.231124 z"
           sodipodi:ry="1.2311234"
           sodipodi:rx="0.9785853"
           sodipodi:cy="86.957619"
           sodipodi:cx="29.325991"
           id="path3762-1-8-5"
           style="fill:#000000;fill-opacity:1;stroke:none"
           sodipodi:type="arc" />
        <path
           id="rect2987-1"
           d="m 138.6875,888.64343 c -4.2045,13.25312 -27.96405,23.40625 -56.65625,23.40625 -28.645261,0 -52.394759,-10.12246 -56.65625,-23.34375 l 13.21875,141.12497 c 23.065152,25.2539 65.82508,24.7488 87.375,0 L 138.6875,888.64343 z"
           style="opacity:0.4642857;fill:url(#linearGradient5488-1);fill-opacity:1;stroke:none"
           inkscape:connector-curvature="0" />
        <path
           transform="matrix(1,0,0,1.05625,1.9657173,838.31123)"
           d="m 137.38074,43.678894 c 0,14.436689 -25.66579,26.139938 -57.326152,26.139938 -31.660362,0 -57.326156,-11.703249 -57.326156,-26.139938 0,-14.436689 25.665794,-26.139938 57.326156,-26.139938 31.660362,0 57.326152,11.703249 57.326152,26.139938 z"
           sodipodi:ry="26.139938"
           sodipodi:rx="57.326157"
           sodipodi:cy="43.678894"
           sodipodi:cx="80.054588"
           id="path2985-1"
           style="fill:none;stroke:#ffffff;stroke-width:2.94626975;stroke-miterlimit:4;stroke-opacity:1;stroke-dasharray:none"
           sodipodi:type="arc" />
      </g>
      <text
         xml:space="preserve"
         style="font-size:250px;font-style:normal;font-variant:normal;font-weight:normal;font-stretch:normal;line-height:125%;letter-spacing:0.2px;word-spacing:0px;fill:#000000;fill-opacity:1;stroke:none;font-family:Chiller;-inkscape-font-specification:Chiller"
         x="4.8423147"
         y="818.3811"
         id="text3163"
         sodipodi:linespacing="125%"><tspan
           sodipodi:role="line"
           id="tspan3165"
           x="4.8423147"
           y="818.3811">Kawax</tspan></text>
      <path
         sodipodi:type="arc"
         style="fill:#000000;fill-opacity:1;stroke:none"
         id="path3937"
         sodipodi:cx="612.85712"
         sodipodi:cy="307.14285"
         sodipodi:rx="19.285715"
         sodipodi:ry="27.142859"
         d="m 632.14283,307.14285 a 19.285715,27.142859 0 1 1 -38.57143,0 19.285715,27.142859 0 1 1 38.57143,0 z"
         transform="matrix(0.70923317,0.17057889,-0.17057889,0.70923317,-49.20993,546.10624)" />
      <path
         sodipodi:type="arc"
         style="fill:#000000;fill-opacity:1;stroke:none"
         id="path3941"
         sodipodi:cx="170.35715"
         sodipodi:cy="232.5"
         sodipodi:rx="3.9285715"
         sodipodi:ry="3.9285715"
         d="m 174.28572,232.5 a 3.9285715,3.9285715 0 1 1 -7.85714,0 3.9285715,3.9285715 0 1 1 7.85714,0 z"
         transform="translate(-5.8719686,643.38114)" />
      <path
         sodipodi:type="arc"
         style="fill:#000000;fill-opacity:1;stroke:none"
         id="path3943"
         sodipodi:cx="93.928574"
         sodipodi:cy="206.78572"
         sodipodi:rx="3.9285715"
         sodipodi:ry="6.0714288"
         d="m 97.857145,206.78572 a 3.9285715,6.0714288 0 1 1 -7.857143,0 3.9285715,6.0714288 0 1 1 7.857143,0 z"
         transform="translate(-5.8719686,643.38114)" />
      <path
         sodipodi:type="arc"
         style="fill:#000000;fill-opacity:1;stroke:none"
         id="path3945"
         sodipodi:cx="448.57144"
         sodipodi:cy="320.71429"
         sodipodi:rx="5"
         sodipodi:ry="7.8571429"
         d="m 453.57144,320.71429 a 5,7.8571429 0 1 1 -10,0 5,7.8571429 0 1 1 10,0 z"
         transform="translate(-5.8719686,643.38114)" />
      <path
         sodipodi:type="arc"
         style="fill:#000000;fill-opacity:1;stroke:none"
         id="path3949"
         sodipodi:cx="226.5267"
         sodipodi:cy="273.61664"
         sodipodi:rx="0.75761443"
         sodipodi:ry="1.0101526"
         d="m 227.28432,273.61664 a 0.75761443,1.0101526 0 1 1 -1.51523,0 0.75761443,1.0101526 0 1 1 1.51523,0 z"
         transform="translate(-5.8719686,643.38114)" />
      <path
         sodipodi:type="arc"
         style="fill:#000000;fill-opacity:1;stroke:none"
         id="path3951"
         sodipodi:cx="12.626906"
         sodipodi:cy="260.23212"
         sodipodi:rx="1.5152289"
         sodipodi:ry="1.2626907"
         d="m 14.142135,260.23212 a 1.5152289,1.2626907 0 1 1 -3.030457,0 1.5152289,1.2626907 0 1 1 3.030457,0 z"
         transform="translate(-5.8719686,643.38114)" />
      <path
         sodipodi:type="arc"
         style="fill:#000000;fill-opacity:1;stroke:none"
         id="path3953"
         sodipodi:cx="69.44799"
         sodipodi:cy="285.48593"
         sodipodi:rx="1.2626907"
         sodipodi:ry="1.2626907"
         d="m 70.710681,285.48593 a 1.2626907,1.2626907 0 1 1 -2.525381,0 1.2626907,1.2626907 0 1 1 2.525381,0 z"
         transform="translate(-5.8719686,643.38114)" />
      <path
         sodipodi:type="arc"
         style="fill:#000000;fill-opacity:1;stroke:none"
         id="path3957"
         sodipodi:cx="306.07623"
         sodipodi:cy="199.62297"
         sodipodi:rx="1.5152289"
         sodipodi:ry="1.767767"
         d="m 307.59146,199.62297 a 1.5152289,1.767767 0 1 1 -3.03046,0 1.5152289,1.767767 0 1 1 3.03046,0 z"
         transform="translate(-5.8719686,643.38114)" />
      <path
         sodipodi:type="arc"
         style="fill:#000000;fill-opacity:1;stroke:none"
         id="path3959"
         sodipodi:cx="376.07144"
         sodipodi:cy="316.78571"
         sodipodi:rx="1.0714285"
         sodipodi:ry="1.7857143"
         d="m 377.14287,316.78571 a 1.0714285,1.7857143 0 1 1 -2.14286,0 1.0714285,1.7857143 0 1 1 2.14286,0 z"
         transform="translate(-5.8719686,643.38114)" />
    </g>
  </g>
</svg>
