<?xml version="1.0" encoding="UTF-8" standalone="no"?>
<!-- Created with Inkscape (http://www.inkscape.org/) -->

<svg
   xmlns:dc="http://purl.org/dc/elements/1.1/"
   xmlns:cc="http://creativecommons.org/ns#"
   xmlns:rdf="http://www.w3.org/1999/02/22-rdf-syntax-ns#"
   xmlns:svg="http://www.w3.org/2000/svg"
   xmlns="http://www.w3.org/2000/svg"
   xmlns:sodipodi="http://sodipodi.sourceforge.net/DTD/sodipodi-0.dtd"
   xmlns:inkscape="http://www.inkscape.org/namespaces/inkscape"
   width="640"
   height="640"
   id="svg2"
   version="1.1"
   inkscape:version="0.48.2 r9819"
   sodipodi:docname="coin_02.svg">
  <defs
     id="defs4" />
  <sodipodi:namedview
     id="base"
     pagecolor="#000000"
     bordercolor="#666666"
     borderopacity="1.0"
     inkscape:pageopacity="1"
     inkscape:pageshadow="2"
     inkscape:zoom="1.4"
     inkscape:cx="313.52235"
     inkscape:cy="280.96459"
     inkscape:document-units="px"
     inkscape:current-layer="layer3"
     showgrid="false"
     inkscape:window-width="1280"
     inkscape:window-height="968"
     inkscape:window-x="-4"
     inkscape:window-y="-4"
     inkscape:window-maximized="1" />
  <metadata
     id="metadata7">
    <rdf:RDF>
      <cc:Work
         rdf:about="">
        <dc:format>image/svg+xml</dc:format>
        <dc:type
           rdf:resource="http://purl.org/dc/dcmitype/StillImage" />
        <dc:title></dc:title>
      </cc:Work>
    </rdf:RDF>
  </metadata>
  <g
     inkscape:label="Rond principal"
     inkscape:groupmode="layer"
     id="layer1"
     transform="translate(0,-412.36218)"
     style="display:inline"
     sodipodi:insensitive="true">
    <path
       style="fill:#ffff00;fill-opacity:1;stroke:none"
       d="m 320,61.375 c -37.21837,0 -72.58653,7.877982 -104.5625,22.03125 l 0,132.03125 -132.03125,0 C 69.252982,247.41347 61.375,282.78163 61.375,320 c 0,142.83674 115.78826,258.625 258.625,258.625 37.21837,0 72.58653,-7.87798 104.5625,-22.03125 l 0,-132.03125 132.03125,0 C 570.74702,392.58653 578.625,357.21837 578.625,320 578.625,177.16326 462.83674,61.375 320,61.375 z m 104.5625,80.4375 c 30.36496,17.858 55.767,43.26004 73.625,73.625 l -73.625,0 0,-73.625 z m -282.75,282.75 73.625,0 0,73.625 c -30.36496,-17.858 -55.767,-43.26004 -73.625,-73.625 z"
       transform="translate(0,412.36218)"
       id="path2986-1"
       inkscape:connector-curvature="0" />
  </g>
  <g
     inkscape:groupmode="layer"
     id="layer3"
     inkscape:label="chiffre base">
    <path
       style="fill:#808000;fill-opacity:1;stroke:none"
       d="M 331.8125 160.65625 L 288.375 169.71875 L 288.40625 169.8125 L 288.34375 169.75 L 282.09375 172.5 L 282.0625 172.46875 L 236.15625 209.40625 L 236.15625 219.125 L 265.90625 256.0625 L 308.625 221.6875 L 324.6875 218.3125 L 333.84375 223.4375 L 350.875 257.71875 L 349.375 305.5 L 316.53125 366.90625 L 316.90625 367.09375 L 251.625 434 L 251.9375 434.3125 L 251.625 434.3125 L 251.625 489.3125 L 406.1875 489.3125 L 406.1875 434.3125 L 328.15625 434.3125 L 360.8125 400.84375 L 360.65625 400.6875 L 360.84375 400.71875 L 364.96875 392.8125 L 365.0625 392.84375 L 402.1875 323.34375 L 402.1875 323.3125 L 404.15625 313.6875 L 406.1875 248.75 L 406.0625 248.75 L 404.21875 241.4375 L 404.15625 241.4375 L 379.5 191.78125 L 379.375 191.84375 L 374.21875 184.34375 L 363.21875 176.84375 L 339.09375 163.375 L 339.03125 163.5 L 331.875 160.6875 L 331.875 160.65625 L 331.84375 160.65625 L 331.8125 160.65625 z "
       id="rect3221-7" />
  </g>
  <g
     inkscape:groupmode="layer"
     id="layer2"
     inkscape:label="bastringue"
     style="display:none"
     sodipodi:insensitive="true">
    <path
       sodipodi:type="arc"
       style="fill:#ffff00;fill-opacity:1;stroke:none"
       id="path2986"
       sodipodi:cx="421.73868"
       sodipodi:cy="366.75372"
       sodipodi:rx="322.74374"
       sodipodi:ry="322.74374"
       d="m 744.48242,366.75372 a 322.74374,322.74374 0 1 1 -645.487486,0 322.74374,322.74374 0 1 1 645.487486,0 z"
       transform="matrix(0.80134409,0,0,0.80134409,-17.957797,26.104071)" />
    <rect
       style="fill:#00ff00;fill-opacity:1;stroke:none"
       id="rect3061-9"
       width="209.10155"
       height="688.92401"
       x="215.44922"
       y="-18.619471" />
    <rect
       style="fill:#00ff00;fill-opacity:1;stroke:none"
       id="rect3061-0-4"
       width="209.10155"
       height="700.03571"
       x="-424.55078"
       y="-22.223333"
       transform="matrix(0,-1,1,0,0,0)" />
    <path
       sodipodi:type="arc"
       style="fill:#00ffff;fill-opacity:1;stroke:none"
       id="path3138"
       sodipodi:cx="407.59656"
       sodipodi:cy="405.13953"
       sodipodi:rx="230.81985"
       sodipodi:ry="230.81985"
       d="m 638.41641,405.13953 a 230.81985,230.81985 0 1 1 -461.63971,0 230.81985,230.81985 0 1 1 461.63971,0 z"
       transform="matrix(0.89496718,0,0,0.89496718,-44.785542,-42.586579)" />
    <rect
       style="fill:#808000;fill-opacity:1;stroke:none"
       id="rect3221-7-7"
       width="78.791893"
       height="55"
       x="-170.03291"
       y="447.5275"
       transform="matrix(0.47137322,-0.88193383,0.88193383,0.47137322,0,0)" />
    <rect
       style="fill:#808000;fill-opacity:1;stroke:none"
       id="rect3221-1-9"
       width="100"
       height="55"
       x="-131.94833"
       y="477.57043"
       transform="matrix(0.69846355,-0.71564563,0.71564563,0.69846355,0,0)" />
    <rect
       style="fill:#808000;fill-opacity:1;stroke:none"
       id="rect3221-2-54"
       width="65"
       height="55"
       x="229.90477"
       y="-411.62424"
       transform="matrix(-0.03146059,0.99950499,-0.99950499,-0.03146059,0,0)" />
    <rect
       style="fill:#808000;fill-opacity:1;stroke:none"
       id="rect3221-2-8-3"
       width="44.446709"
       height="55"
       x="371.00146"
       y="-27.356087"
       transform="matrix(0.87256951,0.48848998,-0.48848998,0.87256951,0,0)" />
    <rect
       style="fill:#808000;fill-opacity:1;stroke:none"
       id="rect3221-2-5-1"
       width="44.446709"
       height="55"
       x="246.9229"
       y="218.71378"
       transform="matrix(0.97895035,-0.20409852,0.20409852,0.97895035,0,0)" />
    <rect
       style="fill:#808000;fill-opacity:1;stroke:none"
       id="rect3221-2-7-2"
       width="65"
       height="55"
       x="48.885319"
       y="305.25174"
       transform="matrix(0.77918279,-0.62679676,0.62679676,0.77918279,0,0)" />
    <rect
       style="fill:#808000;fill-opacity:1;stroke:none"
       id="rect3221-18-3"
       width="55.558388"
       height="55"
       x="334.47067"
       y="-255.23996"
       transform="matrix(0.44536122,0.89535098,-0.89535098,0.44536122,0,0)" />
    <rect
       style="fill:#808000;fill-opacity:1;stroke:none"
       id="rect3221-18-2-3"
       width="154.563"
       height="55"
       x="249.6245"
       y="428.29694" />
    <path
       style="fill:none;stroke:#000000;stroke-width:1px;stroke-linecap:butt;stroke-linejoin:miter;stroke-opacity:1"
       d="m 363.125,386.51786 -4.28571,8.21428 -17.32143,-1.875 -13.57143,-20.98214 15.26786,-9.82143 18.39285,18.48214 z"
       id="path4211-4"
       inkscape:connector-curvature="0" />
    <path
       style="fill:none;stroke:#000000;stroke-width:1px;stroke-linecap:butt;stroke-linejoin:miter;stroke-opacity:1"
       d="m 402.14286,307.67857 -1.96429,9.64286 -6.42857,2.23214 -20.89286,-11.96429 4.10715,-8.92857 22.32143,5.53572 z"
       id="path4213-1"
       inkscape:connector-curvature="0" />
    <path
       style="fill:none;stroke:#000000;stroke-width:1px;stroke-linecap:butt;stroke-linejoin:miter;stroke-opacity:1"
       d="m 402.23214,235.44643 1.875,7.41071 -7.85714,5.80357 -12.5,-2.32143 L 382.5,234.19643 398.48214,235 z"
       id="path4215-1"
       inkscape:connector-curvature="0" />
    <path
       style="fill:none;stroke:#000000;stroke-width:1px;stroke-linecap:butt;stroke-linejoin:miter;stroke-opacity:1"
       d="m 375.71429,179.01786 1.69643,6.96428 -4.01786,9.46429 -7.32143,-0.53572 -1.78571,-12.23214 z"
       id="path4217-3"
       inkscape:connector-curvature="0" />
    <path
       style="fill:none;stroke:#000000;stroke-width:1px;stroke-linecap:butt;stroke-linejoin:miter;stroke-opacity:1"
       d="m 329.82143,154.64286 7.23214,2.85714 0.0893,10.26786 -8.125,5.625 -4.82143,-9.55358 z"
       id="path4219-8"
       inkscape:connector-curvature="0" />
    <path
       style="fill:none;stroke:#000000;stroke-width:1px;stroke-linecap:butt;stroke-linejoin:miter;stroke-opacity:1"
       d="m 280,166.51786 6.33929,-2.76786 7.23214,8.39286 0.17857,10.98214 -6.875,2.32143 -7.67857,-12.05357 z"
       id="path4221-7"
       inkscape:connector-curvature="0" />
    <path
       style="fill:#808000;fill-opacity:1;stroke:none"
       d="m 331.8125,160.65625 -43.4375,9.0625 0.0312,0.0937 -0.0625,-0.0625 -6.25,2.75 -0.0312,-0.0312 -50.65625,40.75 34.5,42.84375 42.71875,-34.375 16.0625,-3.375 9.15625,5.125 17.03125,34.28125 -1.5,47.78125 -32.84375,61.40625 0.375,0.1875 L 251.625,434 l 0.3125,0.3125 -0.3125,0 0,55 154.5625,0 0,-55 -78.03125,0 32.65625,-33.46875 -0.15625,-0.15625 0.1875,0.0312 4.125,-7.90625 0.0937,0.0312 37.125,-69.5 -0.0312,-0.0312 0.0312,0 1.96875,-9.625 2.03125,-64.9375 -0.125,0 -1.84375,-7.3125 -0.0625,0 -24.65625,-49.65625 -0.125,0.0625 -5.16518,-7.48661 -10.97768,-7.50893 -24.13839,-13.47321 -0.0625,0.125 -7.15625,-2.8125 0,-0.0312 -0.0312,0 z"
       id="rect3221-7-4"
       inkscape:connector-curvature="0"
       sodipodi:nodetypes="ccccccccccccccccccccccccccccccccccccccccccccc" />
  </g>
</svg>
