<?xml version="1.0" encoding="UTF-8" standalone="no"?>
<!-- Created with Inkscape (http://www.inkscape.org/) -->

<svg
   xmlns:dc="http://purl.org/dc/elements/1.1/"
   xmlns:cc="http://creativecommons.org/ns#"
   xmlns:rdf="http://www.w3.org/1999/02/22-rdf-syntax-ns#"
   xmlns:svg="http://www.w3.org/2000/svg"
   xmlns="http://www.w3.org/2000/svg"
   xmlns:xlink="http://www.w3.org/1999/xlink"
   xmlns:sodipodi="http://sodipodi.sourceforge.net/DTD/sodipodi-0.dtd"
   xmlns:inkscape="http://www.inkscape.org/namespaces/inkscape"
   width="640"
   height="640"
   id="svg2"
   version="1.1"
   inkscape:version="0.48.2 r9819"
   sodipodi:docname="coin_02.svg">
  <defs
     id="defs4">
    <linearGradient
       id="linearGradient5065">
      <stop
         style="stop-color:#e4ca00;stop-opacity:1;"
         offset="0"
         id="stop5067" />
      <stop
         id="stop5073"
         offset="0.51375848"
         style="stop-color:#fff183;stop-opacity:1;" />
      <stop
         style="stop-color:#e4ca00;stop-opacity:1;"
         offset="1"
         id="stop5069" />
    </linearGradient>
    <linearGradient
       id="linearGradient5057">
      <stop
         style="stop-color:#fff69f;stop-opacity:1;"
         offset="0"
         id="stop5059" />
      <stop
         style="stop-color:#625900;stop-opacity:1;"
         offset="1"
         id="stop5061" />
    </linearGradient>
    <linearGradient
       id="linearGradient4930">
      <stop
         style="stop-color:#928000;stop-opacity:1;"
         offset="0"
         id="stop4932" />
      <stop
         style="stop-color:#151000;stop-opacity:1;"
         offset="1"
         id="stop4934" />
    </linearGradient>
    <linearGradient
       inkscape:collect="always"
       xlink:href="#linearGradient4930"
       id="linearGradient4936"
       x1="270.50143"
       y1="262.90762"
       x2="253.82388"
       y2="175.02434"
       gradientUnits="userSpaceOnUse" />
    <linearGradient
       inkscape:collect="always"
       xlink:href="#linearGradient4930"
       id="linearGradient4944"
       x1="414.99969"
       y1="278.61478"
       x2="342.54788"
       y2="271.5437"
       gradientUnits="userSpaceOnUse" />
    <linearGradient
       inkscape:collect="always"
       xlink:href="#linearGradient4930"
       id="linearGradient4952"
       x1="371.83313"
       y1="450.04593"
       x2="289.74808"
       y2="375.29465"
       gradientUnits="userSpaceOnUse" />
    <linearGradient
       inkscape:collect="always"
       xlink:href="#linearGradient4930"
       id="linearGradient4960"
       x1="377.0614"
       y1="505.24905"
       x2="368.81183"
       y2="434.53839"
       gradientUnits="userSpaceOnUse" />
    <radialGradient
       inkscape:collect="always"
       xlink:href="#linearGradient5057"
       id="radialGradient5063"
       cx="190.46797"
       cy="633.03174"
       fx="190.46797"
       fy="633.03174"
       r="258.625"
       gradientUnits="userSpaceOnUse"
       gradientTransform="matrix(0.7880075,0.78427304,-1.1634131,1.1689529,792.23994,-269.12791)" />
    <linearGradient
       inkscape:collect="always"
       xlink:href="#linearGradient5065"
       id="linearGradient5071"
       x1="114.91309"
       y1="227.06596"
       x2="458.41684"
       y2="336.16241"
       gradientUnits="userSpaceOnUse"
       gradientTransform="translate(0,412.36218)" />
    <radialGradient
       inkscape:collect="always"
       xlink:href="#linearGradient5057-7"
       id="radialGradient5063-8"
       cx="190.46797"
       cy="633.03174"
       fx="190.46797"
       fy="633.03174"
       r="258.625"
       gradientUnits="userSpaceOnUse"
       gradientTransform="matrix(0.7880075,0.78427304,-1.1634131,1.1689529,792.23994,-269.12791)" />
    <linearGradient
       id="linearGradient5057-7">
      <stop
         style="stop-color:#fff69f;stop-opacity:1;"
         offset="0"
         id="stop5059-8" />
      <stop
         style="stop-color:#625900;stop-opacity:1;"
         offset="1"
         id="stop5061-1" />
    </linearGradient>
    <radialGradient
       r="258.625"
       fy="633.03174"
       fx="190.46797"
       cy="633.03174"
       cx="190.46797"
       gradientTransform="matrix(0.7880075,0.78427304,-1.1634131,1.1689529,358.0927,-962.53085)"
       gradientUnits="userSpaceOnUse"
       id="radialGradient5091"
       xlink:href="#linearGradient5057-7"
       inkscape:collect="always" />
    <radialGradient
       inkscape:collect="always"
       xlink:href="#linearGradient5057-0"
       id="radialGradient5063-6"
       cx="190.46797"
       cy="633.03174"
       fx="190.46797"
       fy="633.03174"
       r="258.625"
       gradientUnits="userSpaceOnUse"
       gradientTransform="matrix(0.7880075,0.78427304,-1.1634131,1.1689529,792.23994,-269.12791)" />
    <linearGradient
       id="linearGradient5057-0">
      <stop
         style="stop-color:#ffea9f;stop-opacity:1;"
         offset="0"
         id="stop5059-9" />
      <stop
         style="stop-color:#957400;stop-opacity:1;"
         offset="1"
         id="stop5061-5" />
    </linearGradient>
    <radialGradient
       r="258.625"
       fy="633.03174"
       fx="190.46797"
       cy="633.03174"
       cx="190.46797"
       gradientTransform="matrix(0.7880075,0.78427304,-1.1634131,1.1689529,792.23994,-681.49009)"
       gradientUnits="userSpaceOnUse"
       id="radialGradient5091-8"
       xlink:href="#linearGradient5057-0"
       inkscape:collect="always" />
    <linearGradient
       inkscape:collect="always"
       xlink:href="#linearGradient5065-0"
       id="linearGradient5071-9"
       x1="114.91309"
       y1="227.06596"
       x2="458.41684"
       y2="336.16241"
       gradientUnits="userSpaceOnUse" />
    <linearGradient
       id="linearGradient5065-0">
      <stop
         style="stop-color:#e4ca00;stop-opacity:1;"
         offset="0"
         id="stop5067-0" />
      <stop
         id="stop5073-0"
         offset="0.51375848"
         style="stop-color:#fff183;stop-opacity:1;" />
      <stop
         style="stop-color:#e4ca00;stop-opacity:1;"
         offset="1"
         id="stop5069-7" />
    </linearGradient>
    <linearGradient
       gradientTransform="translate(0,412.36218)"
       y2="336.16241"
       x2="458.41684"
       y1="227.06596"
       x1="114.91309"
       gradientUnits="userSpaceOnUse"
       id="linearGradient5145"
       xlink:href="#linearGradient5065-0"
       inkscape:collect="always" />
    <linearGradient
       inkscape:collect="always"
       xlink:href="#linearGradient5065-2"
       id="linearGradient5071-5"
       x1="114.91309"
       y1="227.06596"
       x2="458.41684"
       y2="336.16241"
       gradientUnits="userSpaceOnUse"
       gradientTransform="translate(0,412.36218)" />
    <linearGradient
       id="linearGradient5065-2">
      <stop
         style="stop-color:#e4ca00;stop-opacity:1;"
         offset="0"
         id="stop5067-1" />
      <stop
         id="stop5073-4"
         offset="0.51375848"
         style="stop-color:#fff183;stop-opacity:1;" />
      <stop
         style="stop-color:#e4ca00;stop-opacity:1;"
         offset="1"
         id="stop5069-8" />
    </linearGradient>
    <linearGradient
       y2="336.16241"
       x2="458.41684"
       y1="227.06596"
       x1="114.91309"
       gradientTransform="translate(0,412.36218)"
       gradientUnits="userSpaceOnUse"
       id="linearGradient5217"
       xlink:href="#linearGradient5065-2"
       inkscape:collect="always" />
    <linearGradient
       inkscape:collect="always"
       xlink:href="#linearGradient5065-6"
       id="linearGradient5071-4"
       x1="114.91309"
       y1="227.06596"
       x2="458.41684"
       y2="336.16241"
       gradientUnits="userSpaceOnUse"
       gradientTransform="translate(0,412.36218)" />
    <linearGradient
       id="linearGradient5065-6">
      <stop
         style="stop-color:#e4ca00;stop-opacity:1;"
         offset="0"
         id="stop5067-8" />
      <stop
         id="stop5073-9"
         offset="0.51375848"
         style="stop-color:#fff183;stop-opacity:1;" />
      <stop
         style="stop-color:#e4ca00;stop-opacity:1;"
         offset="1"
         id="stop5069-83" />
    </linearGradient>
    <linearGradient
       y2="336.16241"
       x2="458.41684"
       y1="227.06596"
       x1="114.91309"
       gradientTransform="translate(0,412.36218)"
       gradientUnits="userSpaceOnUse"
       id="linearGradient5255"
       xlink:href="#linearGradient5065-6"
       inkscape:collect="always" />
    <radialGradient
       inkscape:collect="always"
       xlink:href="#linearGradient5057-0"
       id="radialGradient5304"
       cx="488.11606"
       cy="215.70877"
       fx="488.11606"
       fy="215.70877"
       r="60.59375"
       gradientTransform="matrix(0.67534883,-0.73749844,1.0609298,0.97152435,-70.384413,365.91627)"
       gradientUnits="userSpaceOnUse" />
    <radialGradient
       inkscape:collect="always"
       xlink:href="#linearGradient5057-0"
       id="radialGradient5314"
       cx="208.40178"
       cy="486.73911"
       fx="208.40178"
       fy="486.73911"
       r="60.59375"
       gradientTransform="matrix(0.84922893,-0.52802483,0.58940544,0.94794813,-255.46572,135.27852)"
       gradientUnits="userSpaceOnUse" />
  </defs>
  <sodipodi:namedview
     id="base"
     pagecolor="#000000"
     bordercolor="#666666"
     borderopacity="1.0"
     inkscape:pageopacity="1"
     inkscape:pageshadow="2"
     inkscape:zoom="0.7"
     inkscape:cx="336.99107"
     inkscape:cy="223.13452"
     inkscape:document-units="px"
     inkscape:current-layer="layer5"
     showgrid="false"
     inkscape:window-width="716"
     inkscape:window-height="961"
     inkscape:window-x="556"
     inkscape:window-y="0"
     inkscape:window-maximized="0" />
  <metadata
     id="metadata7">
    <rdf:RDF>
      <cc:Work
         rdf:about="">
        <dc:format>image/svg+xml</dc:format>
        <dc:type
           rdf:resource="http://purl.org/dc/dcmitype/StillImage" />
        <dc:title></dc:title>
      </cc:Work>
    </rdf:RDF>
  </metadata>
  <g
     inkscape:label="Rond principal"
     inkscape:groupmode="layer"
     id="layer1"
     transform="translate(0,-412.36218)"
     style="display:inline"
     sodipodi:insensitive="true">
    <path
       style="fill:url(#linearGradient5071);fill-opacity:1;stroke:none"
       d="m 320,473.73718 c -37.21837,0 -72.58653,7.87798 -104.5625,22.03125 l 0,132.03125 -132.03125,0 C 69.252982,659.77565 61.375,695.14381 61.375,732.36218 c 0,142.83674 115.78826,258.625 258.625,258.625 37.21837,0 72.58653,-7.87798 104.5625,-22.03125 l 0,-132.03125 132.03125,0 c 14.15327,-31.97597 22.03125,-67.34413 22.03125,-104.5625 0,-142.83674 -115.78826,-258.625 -258.625,-258.625 z m 104.5625,80.4375 c 30.36496,17.858 55.767,43.26004 73.625,73.625 l -73.625,0 0,-73.625 z m -282.75,282.75 73.625,0 0,73.625 c -30.36496,-17.858 -55.767,-43.26004 -73.625,-73.625 z"
       id="path2986-1"
       inkscape:connector-curvature="0" />
  </g>
  <g
     inkscape:groupmode="layer"
     id="layer5"
     inkscape:label="Rond bord"
     style="display:inline">
    <path
       style="fill:url(#radialGradient5091-8);fill-opacity:1;stroke:none;display:inline"
       d="m 320,61.375 c -37.21837,0 -72.58653,7.87798 -104.5625,22.03125 l 0,132.03125 -132.03125,0 C 69.252982,247.41347 61.375,282.78163 61.375,320 c 0,142.83674 115.78826,258.625 258.625,258.625 37.21837,0 72.58653,-7.87798 104.5625,-22.03125 l 0,-132.03125 132.03125,0 C 570.74702,392.58653 578.625,357.21837 578.625,320 578.625,177.16326 462.83674,61.375 320,61.375 z m 0,16.65625 c 133.63139,0 241.96875,108.33736 241.96875,241.96875 0,32.49995 -6.43833,63.47168 -18.0625,91.78125 l -132.09375,0 0,132.09375 C 383.49278,555.5089 352.5143,561.96875 320,561.96875 186.36861,561.96875 78.03125,453.63139 78.03125,320 c 0,-32.27638 6.37224,-63.06603 17.84375,-91.21875 l 132.34375,0 0,-132.6875 C 256.5224,84.47812 287.5103,78.03125 320,78.03125 z"
       id="path2986-1-7"
       inkscape:connector-curvature="0" />
    <path
       inkscape:connector-curvature="0"
       style="fill:url(#radialGradient5304);fill-opacity:1;stroke:none;display:inline"
       d="m 406.09375,112.34375 0,120.59375 121.1875,0 c -22.89292,-54.44677 -66.6136,-97.94443 -121.1875,-120.59375 z m 18.46875,29.46875 c 30.36496,17.858 55.767,43.26004 73.625,73.625 l -73.625,0 0,-73.625 z"
       id="path5171" />
    <path
       inkscape:connector-curvature="0"
       style="fill:url(#radialGradient5314);fill-opacity:1;stroke:none;display:inline"
       d="m 112.09375,406.34375 c 22.89292,54.44677 66.6136,97.94443 121.1875,120.59375 l 0,-120.59375 -121.1875,0 z m 29.71875,18.21875 73.625,0 0,73.625 c -30.36496,-17.858 -55.767,-43.26004 -73.625,-73.625 z"
       id="path5171-5" />
  </g>
  <g
     inkscape:groupmode="layer"
     id="layer3"
     inkscape:label="chiffre base"
     style="display:inline"
     sodipodi:insensitive="true">
    <path
       style="fill:#505000;fill-opacity:1;stroke:none"
       d="m 331.8125,160.65625 -43.4375,9.0625 0.0312,0.0937 -0.0625,-0.0625 -6.25,2.75 -0.0312,-0.0312 -45.90625,36.9375 0,9.71875 29.75,36.9375 42.71875,-34.375 16.0625,-3.375 9.15625,5.125 17.03125,34.28125 -1.5,47.78125 -32.84375,61.40625 0.375,0.1875 L 251.625,434 l 0.3125,0.3125 -0.3125,0 0,55 154.5625,0 0,-55 -78.03125,0 32.65625,-33.46875 -0.15625,-0.15625 0.1875,0.0312 4.125,-7.90625 0.0937,0.0312 37.125,-69.5 0,-0.0312 1.96875,-9.625 2.03125,-64.9375 -0.125,0 -1.84375,-7.3125 -0.0625,0 -24.65625,-49.65625 -0.125,0.0625 -5.15625,-7.5 -11,-7.5 -24.125,-13.46875 -0.0625,0.125 -7.15625,-2.8125 0,-0.0312 -0.0312,0 -0.0312,0 z"
       id="rect3221-7"
       inkscape:connector-curvature="0" />
  </g>
  <g
     inkscape:groupmode="layer"
     id="layer4"
     inkscape:label="Chiffre degrade"
     sodipodi:insensitive="true"
     style="display:inline">
    <path
       style="fill:url(#linearGradient4960);fill-opacity:1;stroke:none"
       d="m 335.96875,434.3125 -42.75,55 112.96875,0 0,-55 -70.21875,0 z"
       id="rect4828"
       inkscape:connector-curvature="0" />
    <path
       style="fill:url(#linearGradient4952);fill-opacity:1;stroke:none"
       d="m 401.875,323.90625 -65.8125,6.46875 -19.53125,36.53125 0.375,0.1875 L 251.625,434 l 0.3125,0.3125 -0.3125,0 0,55 41.59375,0 42.75,-55 -7.8125,0 32.65625,-33.46875 -0.15625,-0.15625 0.1875,0.0312 4.125,-7.90625 0.0937,0.0312 36.8125,-68.9375 z"
       id="rect4826"
       inkscape:connector-curvature="0" />
    <path
       style="fill:url(#linearGradient4944);fill-opacity:1;stroke:none"
       d="m 377.0625,188.46875 -42.875,35.65625 16.6875,33.59375 -1.5,47.78125 -13.3125,24.875 65.8125,-6.46875 0.3125,-0.5625 0,-0.0312 1.96875,-9.625 2.03125,-64.9375 -0.125,0 -1.84375,-7.3125 -0.0625,0 L 379.5,191.7813 l -0.125,0.0625 -2.3125,-3.375 z"
       id="rect4824"
       inkscape:connector-curvature="0" />
    <path
       style="fill:url(#linearGradient4936);fill-opacity:1;stroke:none"
       d="m 331.8125,160.65625 -43.4375,9.0625 0.0312,0.0937 -0.0625,-0.0625 -6.25,2.75 -0.0312,-0.0312 -45.90625,36.9375 0,9.71875 29.75,36.9375 42.71875,-34.375 16.0625,-3.375 9.15625,5.125 0.34375,0.6875 42.875,-35.65625 -2.84375,-4.125 -11,-7.5 -24.125,-13.46875 -0.0625,0.125 -7.15625,-2.8125 0,-0.0312 -0.0312,0 -0.0312,0 z"
       id="rect4822"
       inkscape:connector-curvature="0" />
  </g>
  <g
     inkscape:groupmode="layer"
     id="layer2"
     inkscape:label="bastringue"
     style="display:none"
     sodipodi:insensitive="true">
    <path
       sodipodi:type="arc"
       style="fill:#ffff00;fill-opacity:1;stroke:none"
       id="path2986"
       sodipodi:cx="421.73868"
       sodipodi:cy="366.75372"
       sodipodi:rx="322.74374"
       sodipodi:ry="322.74374"
       d="m 744.48242,366.75372 a 322.74374,322.74374 0 1 1 -645.487486,0 322.74374,322.74374 0 1 1 645.487486,0 z"
       transform="matrix(0.80134409,0,0,0.80134409,-17.957797,26.104071)" />
    <rect
       style="fill:#00ff00;fill-opacity:1;stroke:none"
       id="rect3061-9"
       width="209.10155"
       height="688.92401"
       x="215.44922"
       y="-18.619471" />
    <rect
       style="fill:#00ff00;fill-opacity:1;stroke:none"
       id="rect3061-0-4"
       width="209.10155"
       height="700.03571"
       x="-424.55078"
       y="-22.223333"
       transform="matrix(0,-1,1,0,0,0)" />
    <path
       sodipodi:type="arc"
       style="fill:#00ffff;fill-opacity:1;stroke:none"
       id="path3138"
       sodipodi:cx="407.59656"
       sodipodi:cy="405.13953"
       sodipodi:rx="230.81985"
       sodipodi:ry="230.81985"
       d="m 638.41641,405.13953 a 230.81985,230.81985 0 1 1 -461.63971,0 230.81985,230.81985 0 1 1 461.63971,0 z"
       transform="matrix(0.89496718,0,0,0.89496718,-44.785542,-42.586579)" />
    <rect
       style="fill:#808000;fill-opacity:1;stroke:none"
       id="rect3221-7-7"
       width="78.791893"
       height="55"
       x="-170.03291"
       y="447.5275"
       transform="matrix(0.47137322,-0.88193383,0.88193383,0.47137322,0,0)" />
    <rect
       style="fill:#808000;fill-opacity:1;stroke:none"
       id="rect3221-1-9"
       width="100"
       height="55"
       x="-131.94833"
       y="477.57043"
       transform="matrix(0.69846355,-0.71564563,0.71564563,0.69846355,0,0)" />
    <rect
       style="fill:#808000;fill-opacity:1;stroke:none"
       id="rect3221-2-54"
       width="65"
       height="55"
       x="229.90477"
       y="-411.62424"
       transform="matrix(-0.03146059,0.99950499,-0.99950499,-0.03146059,0,0)" />
    <rect
       style="fill:#808000;fill-opacity:1;stroke:none"
       id="rect3221-2-8-3"
       width="44.446709"
       height="55"
       x="371.00146"
       y="-27.356087"
       transform="matrix(0.87256951,0.48848998,-0.48848998,0.87256951,0,0)" />
    <rect
       style="fill:#808000;fill-opacity:1;stroke:none"
       id="rect3221-2-5-1"
       width="44.446709"
       height="55"
       x="246.9229"
       y="218.71378"
       transform="matrix(0.97895035,-0.20409852,0.20409852,0.97895035,0,0)" />
    <rect
       style="fill:#808000;fill-opacity:1;stroke:none"
       id="rect3221-2-7-2"
       width="65"
       height="55"
       x="48.885319"
       y="305.25174"
       transform="matrix(0.77918279,-0.62679676,0.62679676,0.77918279,0,0)" />
    <rect
       style="fill:#808000;fill-opacity:1;stroke:none"
       id="rect3221-18-3"
       width="55.558388"
       height="55"
       x="334.47067"
       y="-255.23996"
       transform="matrix(0.44536122,0.89535098,-0.89535098,0.44536122,0,0)" />
    <rect
       style="fill:#808000;fill-opacity:1;stroke:none"
       id="rect3221-18-2-3"
       width="154.563"
       height="55"
       x="249.6245"
       y="428.29694" />
    <path
       style="fill:none;stroke:#000000;stroke-width:1px;stroke-linecap:butt;stroke-linejoin:miter;stroke-opacity:1"
       d="m 363.125,386.51786 -4.28571,8.21428 -17.32143,-1.875 -13.57143,-20.98214 15.26786,-9.82143 18.39285,18.48214 z"
       id="path4211-4"
       inkscape:connector-curvature="0" />
    <path
       style="fill:none;stroke:#000000;stroke-width:1px;stroke-linecap:butt;stroke-linejoin:miter;stroke-opacity:1"
       d="m 402.14286,307.67857 -1.96429,9.64286 -6.42857,2.23214 -20.89286,-11.96429 4.10715,-8.92857 22.32143,5.53572 z"
       id="path4213-1"
       inkscape:connector-curvature="0" />
    <path
       style="fill:none;stroke:#000000;stroke-width:1px;stroke-linecap:butt;stroke-linejoin:miter;stroke-opacity:1"
       d="m 402.23214,235.44643 1.875,7.41071 -7.85714,5.80357 -12.5,-2.32143 L 382.5,234.19643 398.48214,235 z"
       id="path4215-1"
       inkscape:connector-curvature="0" />
    <path
       style="fill:none;stroke:#000000;stroke-width:1px;stroke-linecap:butt;stroke-linejoin:miter;stroke-opacity:1"
       d="m 375.71429,179.01786 1.69643,6.96428 -4.01786,9.46429 -7.32143,-0.53572 -1.78571,-12.23214 z"
       id="path4217-3"
       inkscape:connector-curvature="0" />
    <path
       style="fill:none;stroke:#000000;stroke-width:1px;stroke-linecap:butt;stroke-linejoin:miter;stroke-opacity:1"
       d="m 329.82143,154.64286 7.23214,2.85714 0.0893,10.26786 -8.125,5.625 -4.82143,-9.55358 z"
       id="path4219-8"
       inkscape:connector-curvature="0" />
    <path
       style="fill:none;stroke:#000000;stroke-width:1px;stroke-linecap:butt;stroke-linejoin:miter;stroke-opacity:1"
       d="m 280,166.51786 6.33929,-2.76786 7.23214,8.39286 0.17857,10.98214 -6.875,2.32143 -7.67857,-12.05357 z"
       id="path4221-7"
       inkscape:connector-curvature="0" />
    <path
       style="fill:#808000;fill-opacity:1;stroke:none"
       d="m 331.8125,160.65625 -43.4375,9.0625 0.0312,0.0937 -0.0625,-0.0625 -6.25,2.75 -0.0312,-0.0312 -50.65625,40.75 34.5,42.84375 42.71875,-34.375 16.0625,-3.375 9.15625,5.125 17.03125,34.28125 -1.5,47.78125 -32.84375,61.40625 0.375,0.1875 L 251.625,434 l 0.3125,0.3125 -0.3125,0 0,55 154.5625,0 0,-55 -78.03125,0 32.65625,-33.46875 -0.15625,-0.15625 0.1875,0.0312 4.125,-7.90625 0.0937,0.0312 37.125,-69.5 -0.0312,-0.0312 0.0312,0 1.96875,-9.625 2.03125,-64.9375 -0.125,0 -1.84375,-7.3125 -0.0625,0 -24.65625,-49.65625 -0.125,0.0625 -5.16518,-7.48661 -10.97768,-7.50893 -24.13839,-13.47321 -0.0625,0.125 -7.15625,-2.8125 0,-0.0312 -0.0312,0 z"
       id="rect3221-7-4"
       inkscape:connector-curvature="0"
       sodipodi:nodetypes="ccccccccccccccccccccccccccccccccccccccccccccc" />
    <path
       inkscape:connector-curvature="0"
       style="fill:#ff00ff;fill-opacity:1;stroke:none;display:inline"
       d="m 320,78.03125 c -32.4897,0 -63.4776,6.446865 -91.78125,18.0625 l 0,132.6875 -132.34375,0 C 84.403493,256.93397 78.03125,287.72362 78.03125,320 c 0,133.63139 108.33736,241.96875 241.96875,241.96875 32.5143,0 63.49278,-6.45985 91.8125,-18.09375 l 0,-132.09375 132.09375,0 C 555.53042,383.47168 561.96875,352.49995 561.96875,320 561.96875,186.36861 453.63139,78.03125 320,78.03125 z m 97.8125,75.25 c 28.40803,16.70712 52.19915,40.49824 68.90625,68.90625 l -68.90625,0 0,-68.90625 z m -264.53125,264.53125 68.90625,0 0,68.90625 c -28.40803,-16.7071 -52.19914,-40.4982 -68.90625,-68.90625 z"
       id="path2986-1-2-6" />
  </g>
</svg>
