<?xml version="1.0" encoding="UTF-8" standalone="no"?>
<!-- Created with Inkscape (http://www.inkscape.org/) -->

<svg
   xmlns:dc="http://purl.org/dc/elements/1.1/"
   xmlns:cc="http://creativecommons.org/ns#"
   xmlns:rdf="http://www.w3.org/1999/02/22-rdf-syntax-ns#"
   xmlns:svg="http://www.w3.org/2000/svg"
   xmlns="http://www.w3.org/2000/svg"
   xmlns:sodipodi="http://sodipodi.sourceforge.net/DTD/sodipodi-0.dtd"
   xmlns:inkscape="http://www.inkscape.org/namespaces/inkscape"
   width="640"
   height="640"
   id="svg2"
   version="1.1"
   inkscape:version="0.48.2 r9819"
   sodipodi:docname="coin_02.svg">
  <defs
     id="defs4" />
  <sodipodi:namedview
     id="base"
     pagecolor="#000000"
     bordercolor="#666666"
     borderopacity="1.0"
     inkscape:pageopacity="1"
     inkscape:pageshadow="2"
     inkscape:zoom="0.98994949"
     inkscape:cx="268.46007"
     inkscape:cy="327.74524"
     inkscape:document-units="px"
     inkscape:current-layer="layer3"
     showgrid="false"
     inkscape:window-width="1280"
     inkscape:window-height="968"
     inkscape:window-x="-4"
     inkscape:window-y="-4"
     inkscape:window-maximized="1" />
  <metadata
     id="metadata7">
    <rdf:RDF>
      <cc:Work
         rdf:about="">
        <dc:format>image/svg+xml</dc:format>
        <dc:type
           rdf:resource="http://purl.org/dc/dcmitype/StillImage" />
        <dc:title></dc:title>
      </cc:Work>
    </rdf:RDF>
  </metadata>
  <g
     inkscape:label="Rond principal"
     inkscape:groupmode="layer"
     id="layer1"
     transform="translate(0,-412.36218)"
     style="display:inline"
     sodipodi:insensitive="true">
    <path
       style="fill:#ffff00;fill-opacity:1;stroke:none"
       d="m 320,61.375 c -37.21837,0 -72.58653,7.877982 -104.5625,22.03125 l 0,132.03125 -132.03125,0 C 69.252982,247.41347 61.375,282.78163 61.375,320 c 0,142.83674 115.78826,258.625 258.625,258.625 37.21837,0 72.58653,-7.87798 104.5625,-22.03125 l 0,-132.03125 132.03125,0 C 570.74702,392.58653 578.625,357.21837 578.625,320 578.625,177.16326 462.83674,61.375 320,61.375 z m 104.5625,80.4375 c 30.36496,17.858 55.767,43.26004 73.625,73.625 l -73.625,0 0,-73.625 z m -282.75,282.75 73.625,0 0,73.625 c -30.36496,-17.858 -55.767,-43.26004 -73.625,-73.625 z"
       transform="translate(0,412.36218)"
       id="path2986-1"
       inkscape:connector-curvature="0" />
  </g>
  <g
     inkscape:groupmode="layer"
     id="layer3"
     inkscape:label="chiffre base">
    <rect
       style="fill:#808000;fill-opacity:1;stroke:none"
       id="rect3221-7"
       width="78.791893"
       height="55"
       x="-170.03291"
       y="447.5275"
       transform="matrix(0.47137322,-0.88193383,0.88193383,0.47137322,0,0)" />
    <rect
       style="fill:#808000;fill-opacity:1;stroke:none"
       id="rect3221-1"
       width="100"
       height="55"
       x="-131.94833"
       y="477.57043"
       transform="matrix(0.69846355,-0.71564563,0.71564563,0.69846355,0,0)" />
    <rect
       style="fill:#808000;fill-opacity:1;stroke:none"
       id="rect3221-2"
       width="65"
       height="55"
       x="229.90477"
       y="-411.62424"
       transform="matrix(-0.03146059,0.99950499,-0.99950499,-0.03146059,0,0)" />
    <rect
       style="fill:#808000;fill-opacity:1;stroke:none"
       id="rect3221-2-8"
       width="44.446709"
       height="55"
       x="371.00146"
       y="-27.356091"
       transform="matrix(0.87256951,0.48848998,-0.48848998,0.87256951,0,0)" />
    <rect
       style="fill:#808000;fill-opacity:1;stroke:none"
       id="rect3221-2-5"
       width="44.446709"
       height="55"
       x="246.9229"
       y="218.71378"
       transform="matrix(0.97895035,-0.20409852,0.20409852,0.97895035,0,0)" />
    <rect
       style="fill:#808000;fill-opacity:1;stroke:none"
       id="rect3221-2-7"
       width="65"
       height="55"
       x="48.885323"
       y="305.25174"
       transform="matrix(0.77918279,-0.62679676,0.62679676,0.77918279,0,0)" />
    <rect
       style="fill:#808000;fill-opacity:1;stroke:none"
       id="rect3221-18"
       width="55.558388"
       height="55"
       x="334.47067"
       y="-255.23996"
       transform="matrix(0.44536122,0.89535098,-0.89535098,0.44536122,0,0)" />
    <rect
       style="fill:#808000;fill-opacity:1;stroke:none"
       id="rect3221-18-2"
       width="154.563"
       height="55"
       x="249.6245"
       y="428.29694" />
  </g>
  <g
     inkscape:groupmode="layer"
     id="layer2"
     inkscape:label="bastringue"
     style="display:none"
     sodipodi:insensitive="true">
    <path
       sodipodi:type="arc"
       style="fill:#ffff00;fill-opacity:1;stroke:none"
       id="path2986"
       sodipodi:cx="421.73868"
       sodipodi:cy="366.75372"
       sodipodi:rx="322.74374"
       sodipodi:ry="322.74374"
       d="m 744.48242,366.75372 a 322.74374,322.74374 0 1 1 -645.487486,0 322.74374,322.74374 0 1 1 645.487486,0 z"
       transform="matrix(0.80134409,0,0,0.80134409,-17.957797,26.104071)" />
    <rect
       style="fill:#00ff00;fill-opacity:1;stroke:none"
       id="rect3061-9"
       width="209.10155"
       height="688.92401"
       x="215.44922"
       y="-18.619471" />
    <rect
       style="fill:#00ff00;fill-opacity:1;stroke:none"
       id="rect3061-0-4"
       width="209.10155"
       height="700.03571"
       x="-424.55078"
       y="-22.223333"
       transform="matrix(0,-1,1,0,0,0)" />
    <path
       sodipodi:type="arc"
       style="fill:#00ffff;fill-opacity:1;stroke:none"
       id="path3138"
       sodipodi:cx="407.59656"
       sodipodi:cy="405.13953"
       sodipodi:rx="230.81985"
       sodipodi:ry="230.81985"
       d="m 638.41641,405.13953 a 230.81985,230.81985 0 1 1 -461.63971,0 230.81985,230.81985 0 1 1 461.63971,0 z"
       transform="matrix(0.89496718,0,0,0.89496718,-44.785542,-42.586579)" />
    <rect
       style="fill:#808000;fill-opacity:1;stroke:none"
       id="rect3221-18-9"
       width="80.812202"
       height="37.375645"
       x="278.80209"
       y="411.20044" />
  </g>
</svg>
