<?xml version="1.0" encoding="UTF-8" standalone="no"?>
<!-- Created with Inkscape (http://www.inkscape.org/) -->

<svg
   xmlns:dc="http://purl.org/dc/elements/1.1/"
   xmlns:cc="http://creativecommons.org/ns#"
   xmlns:rdf="http://www.w3.org/1999/02/22-rdf-syntax-ns#"
   xmlns:svg="http://www.w3.org/2000/svg"
   xmlns="http://www.w3.org/2000/svg"
   xmlns:xlink="http://www.w3.org/1999/xlink"
   xmlns:sodipodi="http://sodipodi.sourceforge.net/DTD/sodipodi-0.dtd"
   xmlns:inkscape="http://www.inkscape.org/namespaces/inkscape"
   width="640"
   height="640"
   id="svg2"
   version="1.1"
   inkscape:version="0.48.2 r9819"
   sodipodi:docname="coin_00.svg"
   inkscape:export-filename="J:\Recher\projets\git\kawax\code\img\coin_00.png"
   inkscape:export-xdpi="4.5"
   inkscape:export-ydpi="4.5">
  <defs
     id="defs4">
    <linearGradient
       id="linearGradient3975">
      <stop
         id="stop3977"
         offset="0"
         style="stop-color:#494982;stop-opacity:1;" />
      <stop
         style="stop-color:#7171b1;stop-opacity:1;"
         offset="0.5405013"
         id="stop3979" />
      <stop
         id="stop3981"
         offset="1"
         style="stop-color:#494982;stop-opacity:1;" />
    </linearGradient>
    <linearGradient
       id="linearGradient3957">
      <stop
         style="stop-color:#494982;stop-opacity:1;"
         offset="0"
         id="stop3959" />
      <stop
         id="stop3965"
         offset="0.39757586"
         style="stop-color:#7171b1;stop-opacity:1;" />
      <stop
         style="stop-color:#494982;stop-opacity:1;"
         offset="1"
         id="stop3961" />
    </linearGradient>
    <linearGradient
       id="linearGradient3925">
      <stop
         style="stop-color:#8787bc;stop-opacity:1;"
         offset="0"
         id="stop3927" />
      <stop
         style="stop-color:#353560;stop-opacity:1;"
         offset="1"
         id="stop3929" />
    </linearGradient>
    <linearGradient
       id="linearGradient4510">
      <stop
         style="stop-color:#d0cfb8;stop-opacity:1;"
         offset="0"
         id="stop4512" />
      <stop
         id="stop4524"
         offset="0.5"
         style="stop-color:#ffffff;stop-opacity:1;" />
      <stop
         style="stop-color:#d0cfb8;stop-opacity:1;"
         offset="1"
         id="stop4514" />
    </linearGradient>
    <linearGradient
       id="linearGradient4500">
      <stop
         style="stop-color:#ffffff;stop-opacity:1;"
         offset="0"
         id="stop4502" />
      <stop
         style="stop-color:#909065;stop-opacity:1;"
         offset="1"
         id="stop4504" />
    </linearGradient>
    <linearGradient
       id="linearGradient4396">
      <stop
         style="stop-color:#272727;stop-opacity:1;"
         offset="0"
         id="stop4398" />
      <stop
         style="stop-color:#707070;stop-opacity:1;"
         offset="1"
         id="stop4400" />
    </linearGradient>
    <linearGradient
       inkscape:collect="always"
       xlink:href="#linearGradient4396"
       id="linearGradient4402"
       x1="344.7356"
       y1="143.5782"
       x2="350.52917"
       y2="184.99446"
       gradientUnits="userSpaceOnUse" />
    <linearGradient
       inkscape:collect="always"
       xlink:href="#linearGradient4396"
       id="linearGradient4410"
       x1="227.23271"
       y1="249.21875"
       x2="274.43988"
       y2="264.37106"
       gradientUnits="userSpaceOnUse" />
    <radialGradient
       inkscape:collect="always"
       xlink:href="#linearGradient4396"
       id="radialGradient4418"
       cx="323.30222"
       cy="350.68353"
       fx="323.30222"
       fy="350.68353"
       r="104.1875"
       gradientTransform="matrix(1.3396206,1.0308133,-1.4322007,1.8612539,369.22659,-615.31125)"
       gradientUnits="userSpaceOnUse" />
    <radialGradient
       inkscape:collect="always"
       xlink:href="#linearGradient4500"
       id="radialGradient4506"
       cx="195.35347"
       cy="131.08769"
       fx="195.35347"
       fy="131.08769"
       r="286.89053"
       gradientTransform="matrix(0.85687449,0.9989714,-1.3325764,1.1430265,195.84669,-197.52726)"
       gradientUnits="userSpaceOnUse" />
    <linearGradient
       inkscape:collect="always"
       xlink:href="#linearGradient4510"
       id="linearGradient4522"
       x1="195.9509"
       y1="301.74771"
       x2="388.30338"
       y2="351.74768"
       gradientUnits="userSpaceOnUse" />
    <linearGradient
       inkscape:collect="always"
       xlink:href="#linearGradient3925"
       id="linearGradient3931"
       x1="125.41051"
       y1="89.839409"
       x2="500.2215"
       y2="529.87347"
       gradientUnits="userSpaceOnUse"
       gradientTransform="matrix(0.91843964,-0.14163335,0.14163335,0.91843964,-17.708127,72.937211)" />
    <linearGradient
       inkscape:collect="always"
       xlink:href="#linearGradient3925"
       id="linearGradient3939"
       x1="478.95132"
       y1="463.2135"
       x2="168.91174"
       y2="194.51292"
       gradientUnits="userSpaceOnUse"
       gradientTransform="matrix(0.92929619,0,0,0.92929619,24.140452,24.140452)" />
    <linearGradient
       inkscape:collect="always"
       xlink:href="#linearGradient3925"
       id="linearGradient3947"
       x1="280.86932"
       y1="365.76065"
       x2="197.02988"
       y2="305.15146"
       gradientUnits="userSpaceOnUse"
       gradientTransform="matrix(0.92929619,0,0,0.92929619,24.140452,24.140452)" />
    <linearGradient
       inkscape:collect="always"
       xlink:href="#linearGradient3925"
       id="linearGradient3955"
       x1="445.26764"
       y1="337.84073"
       x2="377.59061"
       y2="274.20111"
       gradientUnits="userSpaceOnUse"
       gradientTransform="matrix(0.92929619,0,0,0.92929619,24.140452,24.140452)" />
    <linearGradient
       inkscape:collect="always"
       xlink:href="#linearGradient3957"
       id="linearGradient3963"
       x1="45.356636"
       y1="217.97459"
       x2="598.68402"
       y2="395.76144"
       gradientUnits="userSpaceOnUse"
       gradientTransform="matrix(0.92929619,0,0,0.92929619,24.140452,24.140452)" />
    <linearGradient
       inkscape:collect="always"
       xlink:href="#linearGradient3975"
       id="linearGradient3973"
       x1="139.83331"
       y1="217.97459"
       x2="511.27838"
       y2="335.15228"
       gradientUnits="userSpaceOnUse"
       gradientTransform="matrix(0.92929619,0,0,0.92929619,24.140452,24.140452)" />
  </defs>
  <sodipodi:namedview
     id="base"
     pagecolor="#000000"
     bordercolor="#666666"
     borderopacity="1.0"
     inkscape:pageopacity="1"
     inkscape:pageshadow="2"
     inkscape:zoom="0.98994949"
     inkscape:cx="263.27288"
     inkscape:cy="316.61148"
     inkscape:document-units="px"
     inkscape:current-layer="layer5"
     showgrid="false"
     inkscape:window-width="1280"
     inkscape:window-height="968"
     inkscape:window-x="-4"
     inkscape:window-y="-4"
     inkscape:window-maximized="1" />
  <metadata
     id="metadata7">
    <rdf:RDF>
      <cc:Work
         rdf:about="">
        <dc:format>image/svg+xml</dc:format>
        <dc:type
           rdf:resource="http://purl.org/dc/dcmitype/StillImage" />
        <dc:title></dc:title>
      </cc:Work>
    </rdf:RDF>
  </metadata>
  <g
     inkscape:groupmode="layer"
     id="layer5"
     inkscape:label="Rond principal"
     style="display:inline">
    <path
       style="fill:url(#linearGradient3931);fill-opacity:1;stroke:none"
       d="M 280.0388,52.555919 C 131.48986,75.463773 29.648066,214.44274 52.555919,362.99168 75.463773,511.54059 214.44274,613.38239 362.99168,590.47454 511.54059,567.56669 613.38239,428.58771 590.47454,280.0388 567.56669,131.48986 428.58771,29.648066 280.0388,52.555919 z M 234.25521,293.18793 c 22.54515,-3.4767 43.65897,11.96975 47.13569,34.5149 3.4767,22.54516 -12.00287,43.63472 -34.54804,47.11143 -22.54515,3.4767 -43.63027,-11.97417 -47.10699,-34.51933 -3.47671,-22.54516 11.97417,-43.63029 34.51934,-47.107 z M 396.4172,268.1808 c 22.54516,-3.47672 43.65899,11.96973 47.13569,34.51488 3.47672,22.54519 -12.00287,43.63473 -34.54802,47.11143 -22.54517,3.47672 -43.63029,-11.97415 -47.10701,-34.51932 -3.4767,-22.54516 11.97418,-43.63028 34.51934,-47.10699 z"
       id="path4149-9"
       inkscape:connector-curvature="0" />
    <path
       style="fill:url(#linearGradient3963);fill-opacity:1;stroke:none"
       d="M 282.33591,67.451861 C 142.02658,89.089078 45.814644,220.38523 67.451861,360.69455 89.089078,501.00387 220.38523,597.21579 360.69455,575.57859 501.00387,553.94137 597.21579,422.64522 575.57859,282.33591 553.94137,142.02658 422.64522,45.814644 282.33591,67.451861 z m -48.0807,225.736069 c 22.54515,-3.4767 43.65897,11.96975 47.13569,34.5149 3.4767,22.54516 -12.00287,43.63472 -34.54804,47.11143 -22.54515,3.4767 -43.63027,-11.97417 -47.10699,-34.51933 -3.47671,-22.54516 11.97417,-43.63029 34.51934,-47.107 z M 396.4172,268.1808 c 22.54516,-3.47672 43.65899,11.96973 47.13569,34.51488 3.47672,22.54519 -12.00287,43.63473 -34.54802,47.11143 -22.54517,3.47672 -43.63029,-11.97415 -47.10701,-34.51932 -3.4767,-22.54516 11.97418,-43.63028 34.51934,-47.10699 z"
       id="path4149-9-4-8"
       inkscape:connector-curvature="0" />
    <path
       style="fill:url(#linearGradient3939);fill-opacity:1;stroke:none"
       d="M 294.64141,125.52653 C 187.03403,142.12074 113.26713,242.78713 129.86136,350.39449 146.45559,458.00188 247.12639,531.79747 354.73376,515.20325 462.34114,498.60902 536.1323,397.90951 519.53807,290.30214 502.94386,182.69477 402.24877,108.93231 294.64141,125.52653 z m -60.3862,167.6614 c 22.54515,-3.4767 43.65897,11.96975 47.13569,34.5149 3.4767,22.54516 -12.00287,43.63472 -34.54804,47.11143 -22.54515,3.4767 -43.63027,-11.97417 -47.10699,-34.51933 -3.47671,-22.54516 11.97417,-43.63029 34.51934,-47.107 z M 396.4172,268.1808 c 22.54516,-3.47672 43.65899,11.96973 47.13569,34.51488 3.47672,22.54519 -12.00287,43.63473 -34.54802,47.11143 -22.54517,3.47672 -43.63029,-11.97415 -47.10701,-34.51932 -3.4767,-22.54516 11.97418,-43.63028 34.51934,-47.10699 z"
       id="path4699"
       inkscape:connector-curvature="0" />
    <path
       style="fill:url(#linearGradient3973);fill-opacity:1;stroke:none"
       d="M 293.99852,143.07963 C 195.449,158.27702 127.88221,250.4824 143.07963,349.03194 158.27702,447.58146 250.4824,515.14825 349.03194,499.95084 447.58146,484.75343 515.14825,392.54806 499.95084,293.99852 484.75343,195.449 392.54806,127.88221 293.99852,143.07963 z m -59.74331,150.1083 c 22.54515,-3.4767 43.65897,11.96975 47.13569,34.5149 3.4767,22.54516 -12.00287,43.63472 -34.54804,47.11143 -22.54515,3.4767 -43.63027,-11.97417 -47.10699,-34.51933 -3.47671,-22.54516 11.97417,-43.63029 34.51934,-47.107 z M 396.4172,268.1808 c 22.54516,-3.47672 43.65899,11.96973 47.13569,34.51488 3.47672,22.54519 -12.00287,43.63473 -34.54802,47.11143 -22.54517,3.47672 -43.63029,-11.97415 -47.10701,-34.51932 -3.4767,-22.54516 11.97418,-43.63028 34.51934,-47.10699 z"
       id="path4149-9-4"
       inkscape:connector-curvature="0" />
    <path
       style="fill:url(#linearGradient3947);fill-opacity:1;stroke:none"
       d="m 232.75034,283.42951 c -27.92525,4.30638 -47.05057,30.44058 -42.74419,58.36585 4.30639,27.92524 30.41631,47.0837 58.34157,42.77732 27.92526,-4.30637 47.07928,-30.44502 42.7729,-58.37028 -4.30638,-27.92525 -30.445,-47.07926 -58.37028,-42.77289 z m 1.50487,9.75842 c 22.54515,-3.4767 43.65897,11.96975 47.13569,34.5149 3.4767,22.54516 -12.00287,43.63472 -34.54804,47.11143 -22.54515,3.4767 -43.63027,-11.97417 -47.10699,-34.51933 -3.47671,-22.54516 11.97417,-43.63029 34.51934,-47.107 z"
       id="path3011"
       inkscape:connector-curvature="0" />
    <path
       style="fill:url(#linearGradient3955);fill-opacity:1;stroke:none;display:inline"
       d="m 394.91235,258.42238 c -27.92525,4.30638 -47.05058,30.44057 -42.7442,58.36584 4.30639,27.92525 30.41631,47.0837 58.34157,42.77732 27.92526,-4.30637 47.07927,-30.44501 42.7729,-58.37027 -4.30638,-27.92527 -30.445,-47.07927 -58.37027,-42.77289 z m 1.50485,9.75842 c 22.54516,-3.47672 43.65899,11.96973 47.13569,34.51488 3.47672,22.54519 -12.00287,43.63473 -34.54802,47.11143 -22.54517,3.47672 -43.63029,-11.97415 -47.10701,-34.51932 -3.4767,-22.54516 11.97418,-43.63028 34.51934,-47.10699 z"
       id="path3011-1"
       inkscape:connector-curvature="0" />
  </g>
  <g
     inkscape:groupmode="layer"
     id="layer2"
     inkscape:label="bastringue"
     style="display:none">
    <path
       sodipodi:type="arc"
       style="fill:#525293;fill-opacity:1;stroke:none;display:inline"
       id="path4149"
       sodipodi:cx="309.28571"
       sodipodi:cy="309.28571"
       sodipodi:rx="277.85715"
       sodipodi:ry="277.85715"
       d="m 587.14285,309.28571 a 277.85715,277.85715 0 1 1 -555.714292,0 277.85715,277.85715 0 1 1 555.714292,0 z"
       transform="matrix(1.0539846,0,0,1.0539846,-5.9823705,-5.9823665)" />
  </g>
</svg>
