<?xml version="1.0" encoding="UTF-8" standalone="no"?>
<!-- Created with Inkscape (http://www.inkscape.org/) -->

<svg
   xmlns:dc="http://purl.org/dc/elements/1.1/"
   xmlns:cc="http://creativecommons.org/ns#"
   xmlns:rdf="http://www.w3.org/1999/02/22-rdf-syntax-ns#"
   xmlns:svg="http://www.w3.org/2000/svg"
   xmlns="http://www.w3.org/2000/svg"
   xmlns:xlink="http://www.w3.org/1999/xlink"
   xmlns:sodipodi="http://sodipodi.sourceforge.net/DTD/sodipodi-0.dtd"
   xmlns:inkscape="http://www.inkscape.org/namespaces/inkscape"
   width="640"
   height="640"
   id="svg2"
   version="1.1"
   inkscape:version="0.48.2 r9819"
   sodipodi:docname="coin_00.svg"
   inkscape:export-filename="J:\Recher\projets\git\kawax\image_lab\coin_05.png"
   inkscape:export-xdpi="4.5"
   inkscape:export-ydpi="4.5">
  <defs
     id="defs4">
    <linearGradient
       id="linearGradient3975">
      <stop
         id="stop3977"
         offset="0"
         style="stop-color:#494982;stop-opacity:1;" />
      <stop
         style="stop-color:#7171b1;stop-opacity:1;"
         offset="0.5405013"
         id="stop3979" />
      <stop
         id="stop3981"
         offset="1"
         style="stop-color:#494982;stop-opacity:1;" />
    </linearGradient>
    <linearGradient
       id="linearGradient3957">
      <stop
         style="stop-color:#494982;stop-opacity:1;"
         offset="0"
         id="stop3959" />
      <stop
         id="stop3965"
         offset="0.39757586"
         style="stop-color:#7171b1;stop-opacity:1;" />
      <stop
         style="stop-color:#494982;stop-opacity:1;"
         offset="1"
         id="stop3961" />
    </linearGradient>
    <linearGradient
       id="linearGradient3925">
      <stop
         style="stop-color:#8787bc;stop-opacity:1;"
         offset="0"
         id="stop3927" />
      <stop
         style="stop-color:#353560;stop-opacity:1;"
         offset="1"
         id="stop3929" />
    </linearGradient>
    <linearGradient
       id="linearGradient4510">
      <stop
         style="stop-color:#d0cfb8;stop-opacity:1;"
         offset="0"
         id="stop4512" />
      <stop
         id="stop4524"
         offset="0.5"
         style="stop-color:#ffffff;stop-opacity:1;" />
      <stop
         style="stop-color:#d0cfb8;stop-opacity:1;"
         offset="1"
         id="stop4514" />
    </linearGradient>
    <linearGradient
       id="linearGradient4500">
      <stop
         style="stop-color:#ffffff;stop-opacity:1;"
         offset="0"
         id="stop4502" />
      <stop
         style="stop-color:#909065;stop-opacity:1;"
         offset="1"
         id="stop4504" />
    </linearGradient>
    <linearGradient
       id="linearGradient4396">
      <stop
         style="stop-color:#272727;stop-opacity:1;"
         offset="0"
         id="stop4398" />
      <stop
         style="stop-color:#707070;stop-opacity:1;"
         offset="1"
         id="stop4400" />
    </linearGradient>
    <linearGradient
       inkscape:collect="always"
       xlink:href="#linearGradient4396"
       id="linearGradient4402"
       x1="344.7356"
       y1="143.5782"
       x2="350.52917"
       y2="184.99446"
       gradientUnits="userSpaceOnUse" />
    <linearGradient
       inkscape:collect="always"
       xlink:href="#linearGradient4396"
       id="linearGradient4410"
       x1="227.23271"
       y1="249.21875"
       x2="274.43988"
       y2="264.37106"
       gradientUnits="userSpaceOnUse" />
    <radialGradient
       inkscape:collect="always"
       xlink:href="#linearGradient4396"
       id="radialGradient4418"
       cx="323.30222"
       cy="350.68353"
       fx="323.30222"
       fy="350.68353"
       r="104.1875"
       gradientTransform="matrix(1.3396206,1.0308133,-1.4322007,1.8612539,369.22659,-615.31125)"
       gradientUnits="userSpaceOnUse" />
    <radialGradient
       inkscape:collect="always"
       xlink:href="#linearGradient4500"
       id="radialGradient4506"
       cx="195.35347"
       cy="131.08769"
       fx="195.35347"
       fy="131.08769"
       r="286.89053"
       gradientTransform="matrix(0.85687449,0.9989714,-1.3325764,1.1430265,195.84669,-197.52726)"
       gradientUnits="userSpaceOnUse" />
    <linearGradient
       inkscape:collect="always"
       xlink:href="#linearGradient4510"
       id="linearGradient4522"
       x1="195.9509"
       y1="301.74771"
       x2="388.30338"
       y2="351.74768"
       gradientUnits="userSpaceOnUse" />
    <linearGradient
       inkscape:collect="always"
       xlink:href="#linearGradient3925"
       id="linearGradient3931"
       x1="125.41051"
       y1="89.839409"
       x2="500.2215"
       y2="529.87347"
       gradientUnits="userSpaceOnUse"
       gradientTransform="matrix(0.98831747,-0.15240926,0.15240926,0.98831747,-45.032553,52.509373)" />
    <linearGradient
       inkscape:collect="always"
       xlink:href="#linearGradient3925"
       id="linearGradient3939"
       x1="478.95132"
       y1="463.2135"
       x2="168.91174"
       y2="194.51292"
       gradientUnits="userSpaceOnUse" />
    <linearGradient
       inkscape:collect="always"
       xlink:href="#linearGradient3925"
       id="linearGradient3947"
       x1="280.86932"
       y1="365.76065"
       x2="197.02988"
       y2="305.15146"
       gradientUnits="userSpaceOnUse" />
    <linearGradient
       inkscape:collect="always"
       xlink:href="#linearGradient3925"
       id="linearGradient3955"
       x1="445.26764"
       y1="337.84073"
       x2="377.59061"
       y2="274.20111"
       gradientUnits="userSpaceOnUse" />
    <linearGradient
       inkscape:collect="always"
       xlink:href="#linearGradient3957"
       id="linearGradient3963"
       x1="45.356636"
       y1="217.97459"
       x2="598.68402"
       y2="395.76144"
       gradientUnits="userSpaceOnUse" />
    <linearGradient
       inkscape:collect="always"
       xlink:href="#linearGradient3975"
       id="linearGradient3973"
       x1="139.83331"
       y1="217.97459"
       x2="511.27838"
       y2="335.15228"
       gradientUnits="userSpaceOnUse" />
  </defs>
  <sodipodi:namedview
     id="base"
     pagecolor="#000000"
     bordercolor="#666666"
     borderopacity="1.0"
     inkscape:pageopacity="1"
     inkscape:pageshadow="2"
     inkscape:zoom="0.98994949"
     inkscape:cx="263.27288"
     inkscape:cy="316.61148"
     inkscape:document-units="px"
     inkscape:current-layer="layer5"
     showgrid="false"
     inkscape:window-width="1280"
     inkscape:window-height="968"
     inkscape:window-x="-4"
     inkscape:window-y="-4"
     inkscape:window-maximized="1" />
  <metadata
     id="metadata7">
    <rdf:RDF>
      <cc:Work
         rdf:about="">
        <dc:format>image/svg+xml</dc:format>
        <dc:type
           rdf:resource="http://purl.org/dc/dcmitype/StillImage" />
        <dc:title />
      </cc:Work>
    </rdf:RDF>
  </metadata>
  <g
     inkscape:groupmode="layer"
     id="layer5"
     inkscape:label="Rond principal"
     style="display:inline">
    <path
       style="fill:url(#linearGradient3931);fill-opacity:1;stroke:none"
       d="M 275.3679,30.577406 C 115.5169,55.228163 5.9266505,204.7811 30.577406,364.6321 55.228163,524.4831 204.7811,634.07335 364.6321,609.42259 524.4831,584.77184 634.07335,435.2189 609.42259,275.3679 584.77184,115.5169 435.2189,5.9266505 275.3679,30.577406 z M 226.10095,289.51747 c 24.26047,-3.74123 46.9807,12.88044 50.72193,37.14091 3.74123,24.26047 -12.91609,46.95458 -37.17656,50.69581 -24.26046,3.74122 -46.94981,-12.88521 -50.69104,-37.14567 -3.74123,-24.26047 12.88521,-46.94982 37.14567,-50.69105 z m 174.4998,-26.90976 c 24.26047,-3.74123 46.98071,12.88044 50.72193,37.14091 3.74123,24.26047 -12.91609,46.95458 -37.17655,50.69581 -24.26047,3.74122 -46.94982,-12.88521 -50.69105,-37.14567 -3.74122,-24.26047 12.88521,-46.94982 37.14567,-50.69105 z"
       id="path4149-9"
       inkscape:connector-curvature="0" />
    <path
       style="fill:url(#linearGradient3963);fill-opacity:1;stroke:none"
       d="M 277.83979,46.60668 C 126.85529,69.890126 23.323235,211.17571 46.60668,362.16021 69.890126,513.14471 211.17571,616.67676 362.16021,593.39332 513.14471,570.10987 616.67676,428.82429 593.39332,277.83979 570.10987,126.85529 428.82429,23.323235 277.83979,46.60668 z m -51.73884,242.91079 c 24.26047,-3.74123 46.9807,12.88044 50.72193,37.14091 3.74123,24.26047 -12.91609,46.95458 -37.17656,50.69581 -24.26046,3.74122 -46.94981,-12.88521 -50.69104,-37.14567 -3.74123,-24.26047 12.88521,-46.94982 37.14567,-50.69105 z m 174.4998,-26.90976 c 24.26047,-3.74123 46.98071,12.88044 50.72193,37.14091 3.74123,24.26047 -12.91609,46.95458 -37.17655,50.69581 -24.26047,3.74122 -46.94982,-12.88521 -50.69105,-37.14567 -3.74122,-24.26047 12.88521,-46.94982 37.14567,-50.69105 z"
       id="path4149-9-4-8"
       inkscape:connector-curvature="0" />
    <path
       style="fill:url(#linearGradient3939);fill-opacity:1;stroke:none"
       d="M 291.08152,109.09985 C 175.28704,126.95661 95.90773,235.28202 113.76449,351.0765 131.62126,466.87099 239.95143,546.28118 355.74591,528.42442 471.5404,510.56765 550.94583,402.2066 533.08906,286.41211 515.2323,170.61763 406.87601,91.243082 291.08152,109.09985 z m -64.98057,180.41762 c 24.26047,-3.74123 46.9807,12.88044 50.72193,37.14091 3.74123,24.26047 -12.91609,46.95458 -37.17656,50.69581 -24.26046,3.74122 -46.94981,-12.88521 -50.69104,-37.14567 -3.74123,-24.26047 12.88521,-46.94982 37.14567,-50.69105 z m 174.4998,-26.90976 c 24.26047,-3.74123 46.98071,12.88044 50.72193,37.14091 3.74123,24.26047 -12.91609,46.95458 -37.17655,50.69581 -24.26047,3.74122 -46.94982,-12.88521 -50.69105,-37.14567 -3.74122,-24.26047 12.88521,-46.94982 37.14567,-50.69105 z"
       id="path4699"
       inkscape:connector-curvature="0" />
    <path
       style="fill:url(#linearGradient3973);fill-opacity:1;stroke:none"
       d="M 290.38974,127.98845 C 184.34225,144.34212 111.63477,243.56277 127.98845,349.61026 144.34212,455.65775 243.56277,528.36523 349.61026,512.01155 455.65775,495.65788 528.36523,396.43723 512.01155,290.38974 495.65788,184.34225 396.43723,111.63477 290.38974,127.98845 z m -64.28879,161.52902 c 24.26047,-3.74123 46.9807,12.88044 50.72193,37.14091 3.74123,24.26047 -12.91609,46.95458 -37.17656,50.69581 -24.26046,3.74122 -46.94981,-12.88521 -50.69104,-37.14567 -3.74123,-24.26047 12.88521,-46.94982 37.14567,-50.69105 z m 174.4998,-26.90976 c 24.26047,-3.74123 46.98071,12.88044 50.72193,37.14091 3.74123,24.26047 -12.91609,46.95458 -37.17655,50.69581 -24.26047,3.74122 -46.94982,-12.88521 -50.69105,-37.14567 -3.74122,-24.26047 12.88521,-46.94982 37.14567,-50.69105 z"
       id="path4149-9-4"
       inkscape:connector-curvature="0" />
    <path
       style="fill:url(#linearGradient3947);fill-opacity:1;stroke:none"
       d="m 224.4816,279.0166 c -30.0499,4.63402 -50.63033,32.7566 -45.99631,62.8065 4.63402,30.0499 32.73048,50.66598 62.78038,46.03196 30.0499,-4.63402 50.66122,-32.76136 46.0272,-62.81127 -4.63402,-30.0499 -32.76137,-50.66121 -62.81127,-46.02719 z m 1.61935,10.50087 c 24.26047,-3.74123 46.9807,12.88044 50.72193,37.14091 3.74123,24.26047 -12.91609,46.95458 -37.17656,50.69581 -24.26046,3.74122 -46.94981,-12.88521 -50.69104,-37.14567 -3.74123,-24.26047 12.88521,-46.94982 37.14567,-50.69105 z"
       id="path3011"
       inkscape:connector-curvature="0" />
    <path
       style="fill:url(#linearGradient3955);fill-opacity:1;stroke:none;display:inline"
       d="m 398.98141,252.10684 c -30.04991,4.63402 -50.63033,32.7566 -45.99631,62.8065 4.63402,30.0499 32.73047,50.66598 62.78038,46.03196 30.0499,-4.63402 50.66121,-32.76136 46.02719,-62.81127 -4.63402,-30.0499 -32.76136,-50.66121 -62.81126,-46.02719 z m 1.61934,10.50087 c 24.26047,-3.74123 46.98071,12.88044 50.72193,37.14091 3.74123,24.26047 -12.91609,46.95458 -37.17655,50.69581 -24.26047,3.74122 -46.94982,-12.88521 -50.69105,-37.14567 -3.74122,-24.26047 12.88521,-46.94982 37.14567,-50.69105 z"
       id="path3011-1"
       inkscape:connector-curvature="0" />
  </g>
  <g
     inkscape:groupmode="layer"
     id="layer2"
     inkscape:label="bastringue"
     style="display:none">
    <path
       sodipodi:type="arc"
       style="fill:#525293;fill-opacity:1;stroke:none;display:inline"
       id="path4149"
       sodipodi:cx="309.28571"
       sodipodi:cy="309.28571"
       sodipodi:rx="277.85715"
       sodipodi:ry="277.85715"
       d="m 587.14285,309.28571 a 277.85715,277.85715 0 1 1 -555.714292,0 277.85715,277.85715 0 1 1 555.714292,0 z"
       transform="matrix(1.0539846,0,0,1.0539846,-5.9823705,-5.9823665)" />
  </g>
</svg>
