<?xml version="1.0" encoding="UTF-8" standalone="no"?>
<!-- Created with Inkscape (http://www.inkscape.org/) -->

<svg
   xmlns:dc="http://purl.org/dc/elements/1.1/"
   xmlns:cc="http://creativecommons.org/ns#"
   xmlns:rdf="http://www.w3.org/1999/02/22-rdf-syntax-ns#"
   xmlns:svg="http://www.w3.org/2000/svg"
   xmlns="http://www.w3.org/2000/svg"
   xmlns:sodipodi="http://sodipodi.sourceforge.net/DTD/sodipodi-0.dtd"
   xmlns:inkscape="http://www.inkscape.org/namespaces/inkscape"
   width="640"
   height="640"
   id="svg2"
   version="1.1"
   inkscape:version="0.48.2 r9819"
   sodipodi:docname="coin_05.svg">
  <defs
     id="defs4" />
  <sodipodi:namedview
     id="base"
     pagecolor="#000000"
     bordercolor="#666666"
     borderopacity="1.0"
     inkscape:pageopacity="1"
     inkscape:pageshadow="2"
     inkscape:zoom="0.98994949"
     inkscape:cx="247.53522"
     inkscape:cy="336.71713"
     inkscape:document-units="px"
     inkscape:current-layer="layer3"
     showgrid="false"
     inkscape:window-width="1280"
     inkscape:window-height="968"
     inkscape:window-x="-4"
     inkscape:window-y="-4"
     inkscape:window-maximized="1" />
  <metadata
     id="metadata7">
    <rdf:RDF>
      <cc:Work
         rdf:about="">
        <dc:format>image/svg+xml</dc:format>
        <dc:type
           rdf:resource="http://purl.org/dc/dcmitype/StillImage" />
        <dc:title></dc:title>
      </cc:Work>
    </rdf:RDF>
  </metadata>
  <g
     inkscape:label="Rond principal"
     inkscape:groupmode="layer"
     id="layer1"
     transform="translate(0,-412.36218)"
     sodipodi:insensitive="true">
    <path
       style="fill:#cccccc;fill-opacity:1;stroke:none"
       d="m 222.875,62.0625 c -13.08009,4.916849 -25.59313,10.745803 -37.46875,17.375 -0.95943,0.53622 -1.92192,1.077358 -2.875,1.625 -0.35714,0.205048 -0.70652,0.418481 -1.0625,0.625 -1.12389,0.652437 -2.26021,1.300467 -3.375,1.96875 -2.0417,1.223734 -4.06041,2.478013 -6.0625,3.75 -1.35291,0.859152 -2.693,1.7422 -4.03125,2.625 -0.9089,0.600111 -1.8184,1.202478 -2.71875,1.8125 -1.46767,0.993186 -2.92596,1.978311 -4.375,3 -0.39004,0.275455 -0.76789,0.566421 -1.15625,0.84375 -0.50943,0.363139 -1.02419,0.727091 -1.53125,1.09375 -0.11468,0.08309 -0.22922,0.166745 -0.34375,0.25 -0.76635,0.557147 -1.52233,1.123964 -2.28125,1.6875 -0.15539,0.115435 -0.31364,0.228012 -0.46875,0.34375 -0.28027,0.209013 -0.5645,0.41512 -0.84375,0.625 -1.92546,1.44825 -3.83716,2.91168 -5.71875,4.40625 -0.0229,0.0181 -0.0396,0.0443 -0.0625,0.0625 -16.36796,13.00978 -31.03741,27.76826 -43.875,43.875 5.87009,32.29414 4.0413,66.47043 -6.8125,99.875 -10.8587,33.41964 -29.472398,62.16281 -53.21875,84.84375 0.0058,0.12501 0.02525,0.24997 0.03125,0.375 0.04452,0.94982 0.102139,1.89646 0.15625,2.84375 0.0164,0.28083 0.01398,0.56286 0.03125,0.84375 0.0652,1.08371 0.141066,2.1697 0.21875,3.25 0.05173,0.71942 0.09901,1.43837 0.15625,2.15625 0.01272,0.15628 0.01826,0.31246 0.03125,0.46875 0.07575,0.93007 0.165037,1.85382 0.25,2.78125 0.01466,0.15697 0.04756,0.31177 0.0625,0.46875 0.148858,1.56451 0.29253,3.12187 0.46875,4.6875 0.0023,0.0206 -0.0023,0.0419 0,0.0625 0.0012,0.0102 -0.0012,0.021 0,0.0312 0.03049,0.27109 0.06246,0.5415 0.09375,0.8125 0.02771,0.2391 0.0654,0.47963 0.09375,0.71875 2.097572,17.68936 5.942087,35.44487 11.65625,53.03125 5.146627,15.83969 11.601021,30.90219 19.1875,45.09375 1.083783,2.02737 2.182563,4.03937 3.3125,6.03125 0.806352,1.42145 1.63929,2.81557 2.46875,4.21875 0.739175,1.24355 1.489102,2.48316 2.25,3.71875 0.01971,0.032 0.04278,0.0618 0.0625,0.0937 0.853555,1.3848 1.712848,2.78178 2.59375,4.15625 0.04047,0.0631 0.08448,0.12441 0.125,0.1875 0.20757,0.3233 0.415914,0.64604 0.625,0.96875 0.399906,0.61698 0.814059,1.23019 1.21875,1.84375 32.57142,4.38178 64.57861,16.70294 93.03125,37.375 28.44709,20.66802 49.9862,47.28998 64.21875,76.90625 9.37779,2.56867 18.88395,4.65002 28.46875,6.21875 1.6866,0.27604 3.37106,0.53642 5.0625,0.78125 1.69144,0.24483 3.39794,0.47395 5.09375,0.6875 1.25491,0.15635 2.52116,0.29808 3.78125,0.4375 0.49923,0.0552 0.99997,0.10368 1.5,0.15625 0.0629,0.007 0.12458,0.0246 0.1875,0.0312 2.83369,0.29593 5.67269,0.57182 8.53125,0.78125 2.48933,0.18237 4.99274,0.32167 7.5,0.4375 4.2886,0.19815 8.59993,0.3125 12.9375,0.3125 2.37926,0 4.76017,-0.0338 7.125,-0.0937 3.08985,-0.0783 6.15498,-0.22711 9.21875,-0.40625 1.30285,-0.0762 2.60832,-0.15579 3.90625,-0.25 2.0817,-0.1511 4.15013,-0.33418 6.21875,-0.53125 0.90873,-0.0879 1.81103,-0.18436 2.71875,-0.28125 0.0412,-0.004 0.0838,0.004 0.125,0 0.14645,-0.0155 0.29112,-0.0468 0.4375,-0.0625 3.2524,-0.35387 6.51283,-0.75017 9.75,-1.21875 1.69144,-0.24483 3.3759,-0.50521 5.0625,-0.78125 9.58794,-1.56924 19.08797,-3.64891 28.46875,-6.21875 14.23254,-29.61626 35.77165,-56.23823 64.21875,-76.90625 28.46144,-20.67845 60.4494,-32.99675 93.03125,-37.375 0.16046,-0.24342 0.34041,-0.47499 0.5,-0.71875 0.0695,-0.10608 0.1494,-0.20632 0.21875,-0.3125 0.0331,-0.0507 0.0607,-0.10553 0.0937,-0.15625 0.13584,-0.2084 0.27104,-0.41635 0.40625,-0.625 2.35579,-3.63528 4.6174,-7.32473 6.78125,-11.03125 0.0611,-0.10522 0.12655,-0.20718 0.1875,-0.3125 0.0425,-0.0729 0.0826,-0.14579 0.125,-0.21875 1.05419,-1.81503 2.05406,-3.63786 3.0625,-5.46875 0.0695,-0.12699 0.14942,-0.24787 0.21875,-0.375 0.34786,-0.63392 0.68886,-1.2705 1.03125,-1.90625 0.0177,-0.0329 0.0448,-0.0608 0.0625,-0.0937 0.20546,-0.38434 0.42122,-0.77064 0.625,-1.15625 0.0153,-0.0288 0.016,-0.0649 0.0312,-0.0937 7.30113,-13.82743 13.53435,-28.46487 18.53125,-43.84375 4.32024,-13.29632 7.54351,-26.67754 9.78125,-40.0625 0.0469,-0.28183 0.11024,-0.56178 0.15625,-0.84375 0.35134,-2.1426 0.66933,-4.29547 0.96875,-6.4375 0.0189,-0.13607 0.0438,-0.27016 0.0625,-0.40625 0.12364,-0.89425 0.2291,-1.79345 0.34375,-2.6875 0.31874,-2.49653 0.62429,-4.99517 0.875,-7.5 0.0314,-0.31297 0.0634,-0.62458 0.0937,-0.9375 0.004,-0.0412 -0.004,-0.0838 0,-0.125 0.0129,-0.13612 0.0498,-0.27007 0.0625,-0.40625 0.0541,-0.57105 0.1057,-1.14733 0.15625,-1.71875 0.22678,-2.56358 0.37591,-5.1175 0.53125,-7.6875 0.005,-0.0837 0.0264,-0.16629 0.0312,-0.25 0.002,-0.0312 -0.002,-0.0626 0,-0.0937 0.0666,-1.12435 0.10341,-2.24966 0.15625,-3.375 -23.7387,-22.67856 -42.33125,-51.43163 -53.1875,-84.84375 -10.85381,-33.40457 -12.68259,-67.58086 -6.8125,-99.875 -10.22876,-12.83355 -21.63087,-24.80407 -34.125,-35.71875 -0.25587,-0.2228 -0.49313,-0.46548 -0.75,-0.6875 -0.59133,-0.51271 -1.18511,-1.02326 -1.78125,-1.53125 -0.46672,-0.39653 -0.93629,-0.79355 -1.40625,-1.1875 -0.98079,-0.82217 -1.97388,-1.62666 -2.96875,-2.4375 -0.92948,-0.75932 -1.87194,-1.50205 -2.8125,-2.25 -0.38817,-0.30811 -0.766,-0.63111 -1.15625,-0.9375 -0.40842,-0.3203 -0.80862,-0.65082 -1.21875,-0.96875 -0.59154,-0.45975 -1.18546,-0.91975 -1.78125,-1.375 -0.4982,-0.37975 -0.99935,-0.74873 -1.5,-1.125 -0.37369,-0.281331 -0.74948,-0.563973 -1.125,-0.84375 -0.90037,-0.671025 -1.80896,-1.339243 -2.71875,-2 -1.6227,-1.178962 -3.26676,-2.330276 -4.90625,-3.46875 -0.11643,-0.08071 -0.22717,-0.169453 -0.34375,-0.25 -0.1908,-0.131645 -0.37138,-0.275093 -0.5625,-0.40625 -0.53964,-0.371557 -1.08361,-0.726555 -1.625,-1.09375 -0.60976,-0.412132 -1.23083,-0.811565 -1.84375,-1.21875 -4.62871,-3.07805 -9.371,-6.031383 -14.21875,-8.84375 -1.30526,-0.757723 -2.62024,-1.513787 -3.9375,-2.25 C 442.71813,72.808307 430.2051,66.979344 417.125,62.0625 388.21733,77.636127 355.13743,86.46875 320,86.46875 c -35.13743,0 -68.21733,-8.832623 -97.125,-24.40625 z"
       id="path2985"
       transform="translate(0,412.36218)"
       inkscape:connector-curvature="0" />
  </g>
  <g
     inkscape:groupmode="layer"
     id="layer3"
     inkscape:label="Chiffre base">
    <path
       style="fill:#666666;fill-opacity:1;stroke:none"
       d="M 249.98985,141.13674 202.6461,342.48049 c 0,0 -0.77748,2.71465 -1.6875,6.125 l 43.8125,7.71875 c 10.04978,-28.19875 36.97556,-48.40625 68.625,-48.40625 40.22968,0 72.84375,32.61407 72.84375,72.84375 0,40.22968 -32.61407,72.84375 -72.84375,72.84375 -20.23355,0 -38.51891,-8.2745 -51.71875,-21.59375 l -39.53125,22.125 c 21.45915,26.69004 54.33209,43.78125 91.25,43.78125 64.69622,0 117.125,-52.46003 117.125,-117.15625 0,-64.69622 -52.42878,-117.125 -117.125,-117.125 -18.18096,0 -35.39589,4.1084 -50.75,11.5 l 21.40625,-91 138.1875,0 0,-43 -172.25,0 z"
       id="path3428"
       inkscape:connector-curvature="0" />
  </g>
  <g
     inkscape:groupmode="layer"
     id="layer2"
     inkscape:label="bastringue"
     style="display:none">
    <path
       sodipodi:type="arc"
       style="fill:#cccccc;fill-opacity:1;stroke:none"
       id="path2985-1"
       sodipodi:cx="360"
       sodipodi:cy="340"
       sodipodi:rx="300"
       sodipodi:ry="300"
       d="m 660,340 a 300,300 0 1 1 -600,0 300,300 0 1 1 600,0 z"
       transform="matrix(0.91904762,0,0,0.91904762,-10.857143,7.5238052)" />
    <path
       sodipodi:type="arc"
       style="fill:#cccccc;fill-opacity:1;stroke:none"
       id="path2985-5"
       sodipodi:cx="360"
       sodipodi:cy="340"
       sodipodi:rx="300"
       sodipodi:ry="300"
       d="m 660,340 a 300,300 0 1 1 -600,0 300,300 0 1 1 600,0 z"
       transform="matrix(0.91904762,0,0,0.91904762,-10.857143,7.5238098)" />
    <path
       sodipodi:type="arc"
       style="fill:#cccccc;fill-opacity:1;stroke:none"
       id="path2985-23"
       sodipodi:cx="360"
       sodipodi:cy="340"
       sodipodi:rx="300"
       sodipodi:ry="300"
       d="m 660,340 a 300,300 0 1 1 -600,0 300,300 0 1 1 600,0 z"
       transform="matrix(0.91904762,0,0,0.91904762,-10.857143,7.5238052)" />
    <path
       inkscape:connector-curvature="0"
       style="fill:#0000ff;fill-opacity:1;stroke:none"
       d="M 222.71875,61.968745 C 118.45184,101.29565 44.281251,201.97252 44.281251,320 44.281251,472.2728 167.7272,595.71875 320,595.71875 472.2728,595.71875 595.71875,472.2728 595.71875,320 c 0,-118.02748 -74.17059,-218.70435 -178.4375,-258.031255 -28.94564,15.627322 -62.0789,24.5 -97.28125,24.5 -35.20235,0 -68.33561,-8.872678 -97.28125,-24.5 z"
       id="path2985-2-2" />
    <path
       inkscape:connector-curvature="0"
       style="fill:#d40000;fill-opacity:1;stroke:none"
       d="M 535.41912,147.82 C 465.79675,60.808965 347.1274,21.379395 234.87657,57.851875 90.056583,104.90682 10.799403,260.45775 57.854293,405.27778 104.90917,550.09782 260.4601,629.35502 405.28015,582.30012 517.53096,545.82762 590.36035,444.17634 595.54223,332.85994 571.73507,310.1601 553.05791,281.39032 542.17979,247.91089 531.30166,214.43146 529.50135,180.17805 535.41912,147.82 z"
       id="path2985-2-7-2" />
    <path
       inkscape:connector-curvature="0"
       style="fill:#008000;fill-opacity:1;stroke:none"
       d="M 550.35837,471.59399 C 611.59628,378.4913 612.42518,253.44563 543.05038,157.95936 453.54663,34.768145 281.11709,7.4579652 157.92582,96.961675 34.734528,186.46538 7.4243412,358.89493 96.928053,482.08622 c 69.374817,95.48624 188.556457,133.3391 296.025937,103.86874 14.23201,-29.65659 35.82214,-56.30998 64.30145,-77.0014 28.4793,-20.69143 60.4999,-32.98851 93.10293,-37.35957 z"
       id="path2985-2-6-1" />
    <path
       inkscape:connector-curvature="0"
       style="fill:#ff00ff;fill-opacity:1;stroke:none"
       d="M 247.01242,585.95498 C 354.48189,615.42542 473.66354,577.57248 543.03838,482.08624 632.54201,358.89493 605.23187,186.46539 482.04059,96.961685 358.84931,7.4579752 186.41975,34.768105 96.91604,157.9594 c -69.374817,95.48624 -68.545926,220.53191 -7.308,313.6346 32.60303,4.37105 64.62363,16.66814 93.10293,37.35957 28.4793,20.69142 50.06943,47.34481 64.30145,77.00141 z"
       id="path2985-2-1-6" />
    <path
       inkscape:connector-curvature="0"
       style="fill:#00ffff;fill-opacity:1;stroke:none"
       d="m 44.457762,332.85993 c 5.181857,111.3164 78.011268,212.96769 190.262078,249.44022 144.82004,47.05477 300.37098,-32.20234 347.42586,-177.02238 47.05489,-144.82004 -32.20226,-300.371 -177.0223,-347.425885 -112.25081,-36.4725 -230.92017,2.95706 -300.54252,89.968105 5.91777,32.35805 4.11745,66.61146 -6.760675,100.09089 -10.878124,33.47942 -29.555285,62.24921 -53.362443,84.94905 z"
       id="path2985-2-4-8" />
    <path
       sodipodi:type="arc"
       style="fill:#ff00ff;fill-opacity:1;stroke:none"
       id="path3428-7"
       sodipodi:cx="345.71429"
       sodipodi:cy="410"
       sodipodi:rx="117.14286"
       sodipodi:ry="117.14286"
       d="m 462.85715,410 a 117.14286,117.14286 0 1 1 -234.28572,0 117.14286,117.14286 0 1 1 234.28572,0 z"
       transform="translate(-31.314726,-18.18274)" />
    <path
       sodipodi:type="arc"
       style="fill:#800080;fill-opacity:1;stroke:none"
       id="path3430-6"
       sodipodi:cx="30"
       sodipodi:cy="168.57143"
       sodipodi:rx="102.85714"
       sodipodi:ry="102.85714"
       d="m 132.85714,168.57143 a 102.85714,102.85714 0 1 1 -205.71428,0 102.85714,102.85714 0 1 1 205.71428,0 z"
       transform="matrix(0.70818877,0,0,0.70818877,293.1539,272.43687)" />
    <rect
       style="fill:#ff00ff;fill-opacity:1;stroke:none"
       id="rect3432-1"
       width="374.28571"
       height="43"
       x="-374.7962"
       y="279.17911"
       transform="matrix(0.22890523,-0.97344871,0.97344871,0.22890523,0,0)" />
    <rect
       style="fill:#ff00ff;fill-opacity:1;stroke:none"
       id="rect3432-5-8"
       width="374.28571"
       height="43"
       x="179.39957"
       y="152.17439" />
    <rect
       style="fill:#800080;fill-opacity:1;stroke:none"
       id="rect3452-9"
       width="212.91193"
       height="72.241722"
       x="-514.35248"
       y="579.97058"
       transform="matrix(0.8725604,-0.48850624,0.92119658,0.38909749,0,0)" />
    <rect
       style="fill:#800080;fill-opacity:1;stroke:none"
       id="rect3454-2"
       width="202.65475"
       height="55.282101"
       x="72.772171"
       y="324.70239"
       transform="matrix(0.98483014,0.17352115,0.01079341,0.99994175,0,0)" />
    <rect
       style="fill:#800080;fill-opacity:1;stroke:none"
       id="rect3459-7"
       width="73.741135"
       height="42.426407"
       x="137.38075"
       y="395.54309" />
    <rect
       style="fill:#800080;fill-opacity:1;stroke:none"
       id="rect3461-9"
       width="159.6041"
       height="125.25892"
       x="423.25391"
       y="134.92372" />
  </g>
</svg>
