<?xml version="1.0" encoding="UTF-8" standalone="no"?>
<!-- Created with Inkscape (http://www.inkscape.org/) -->

<svg
   xmlns:dc="http://purl.org/dc/elements/1.1/"
   xmlns:cc="http://creativecommons.org/ns#"
   xmlns:rdf="http://www.w3.org/1999/02/22-rdf-syntax-ns#"
   xmlns:svg="http://www.w3.org/2000/svg"
   xmlns="http://www.w3.org/2000/svg"
   xmlns:xlink="http://www.w3.org/1999/xlink"
   xmlns:sodipodi="http://sodipodi.sourceforge.net/DTD/sodipodi-0.dtd"
   xmlns:inkscape="http://www.inkscape.org/namespaces/inkscape"
   width="640"
   height="640"
   id="svg2"
   version="1.1"
   inkscape:version="0.48.2 r9819"
   sodipodi:docname="coin_10.svg"
   inkscape:export-filename="J:\Recher\projets\git\kawax\code\img\coin_10.png"
   inkscape:export-xdpi="4.5"
   inkscape:export-ydpi="4.5">
  <defs
     id="defs4">
    <linearGradient
       id="linearGradient4276">
      <stop
         id="stop4278"
         offset="0"
         style="stop-color:#171717;stop-opacity:1;" />
      <stop
         style="stop-color:#5f5f5f;stop-opacity:1;"
         offset="0.71693963"
         id="stop4282" />
      <stop
         style="stop-color:#171717;stop-opacity:1;"
         offset="1"
         id="stop4280" />
    </linearGradient>
    <linearGradient
       id="linearGradient4510">
      <stop
         style="stop-color:#d0cfb8;stop-opacity:1;"
         offset="0"
         id="stop4512" />
      <stop
         id="stop4524"
         offset="0.5"
         style="stop-color:#ffffff;stop-opacity:1;" />
      <stop
         style="stop-color:#d0cfb8;stop-opacity:1;"
         offset="1"
         id="stop4514" />
    </linearGradient>
    <linearGradient
       id="linearGradient4500">
      <stop
         style="stop-color:#ffffff;stop-opacity:1;"
         offset="0"
         id="stop4502" />
      <stop
         style="stop-color:#909065;stop-opacity:1;"
         offset="1"
         id="stop4504" />
    </linearGradient>
    <linearGradient
       id="linearGradient4396">
      <stop
         style="stop-color:#272727;stop-opacity:1;"
         offset="0"
         id="stop4398" />
      <stop
         style="stop-color:#707070;stop-opacity:1;"
         offset="1"
         id="stop4400" />
    </linearGradient>
    <linearGradient
       inkscape:collect="always"
       xlink:href="#linearGradient4115"
       id="linearGradient4121"
       x1="280.25"
       y1="205.85269"
       x2="326.30801"
       y2="236.56699"
       gradientUnits="userSpaceOnUse"
       spreadMethod="pad"
       gradientTransform="matrix(0.87155902,0,0,0.87155902,-62.05435,36.235812)" />
    <linearGradient
       id="linearGradient4115">
      <stop
         style="stop-color:#171717;stop-opacity:1;"
         offset="0"
         id="stop4117" />
      <stop
         id="stop4123"
         offset="1"
         style="stop-color:#5f5f5f;stop-opacity:1;" />
    </linearGradient>
    <radialGradient
       inkscape:collect="always"
       xlink:href="#linearGradient4115"
       id="radialGradient4159"
       cx="323.15295"
       cy="473.43149"
       fx="323.15295"
       fy="473.43149"
       r="27.28125"
       gradientTransform="matrix(2.2119837,-2.1348216,0.59239806,0.61381002,-778.22893,844.89218)"
       gradientUnits="userSpaceOnUse" />
    <linearGradient
       id="linearGradient4155">
      <stop
         style="stop-color:#280000;stop-opacity:1;"
         offset="0"
         id="stop4157" />
      <stop
         id="stop4159"
         offset="1"
         style="stop-color:#9c2900;stop-opacity:1;" />
    </linearGradient>
    <linearGradient
       inkscape:collect="always"
       xlink:href="#linearGradient4115"
       id="linearGradient4131"
       x1="315.70535"
       y1="322.29688"
       x2="368.00446"
       y2="322.29688"
       gradientUnits="userSpaceOnUse"
       gradientTransform="matrix(0.87155902,0,0,0.87155902,-62.05435,36.235812)" />
    <linearGradient
       id="linearGradient4162">
      <stop
         style="stop-color:#280000;stop-opacity:1;"
         offset="0"
         id="stop4164" />
      <stop
         id="stop4166"
         offset="1"
         style="stop-color:#9c2900;stop-opacity:1;" />
    </linearGradient>
    <radialGradient
       inkscape:collect="always"
       xlink:href="#linearGradient4115"
       id="radialGradient4147"
       cx="239.66124"
       cy="273.97134"
       fx="239.66124"
       fy="273.97134"
       r="22.5625"
       gradientTransform="matrix(3.3980835,-0.00542617,0.00160253,1.003561,-671.31618,6.544237)"
       gradientUnits="userSpaceOnUse" />
    <linearGradient
       id="linearGradient4169">
      <stop
         style="stop-color:#280000;stop-opacity:1;"
         offset="0"
         id="stop4171" />
      <stop
         id="stop4173"
         offset="1"
         style="stop-color:#9c2900;stop-opacity:1;" />
    </linearGradient>
    <radialGradient
       inkscape:collect="always"
       xlink:href="#linearGradient4115"
       id="radialGradient4139"
       cx="325.96548"
       cy="151.01019"
       fx="325.96548"
       fy="151.01019"
       r="21.03125"
       gradientTransform="matrix(1.1995635,1.5050545,-0.83679668,0.6669463,-43.512072,-431.11841)"
       gradientUnits="userSpaceOnUse" />
    <linearGradient
       id="linearGradient4176">
      <stop
         style="stop-color:#280000;stop-opacity:1;"
         offset="0"
         id="stop4178" />
      <stop
         id="stop4180"
         offset="1"
         style="stop-color:#9c2900;stop-opacity:1;" />
    </linearGradient>
    <radialGradient
       inkscape:collect="always"
       xlink:href="#linearGradient4276"
       id="radialGradient4274"
       cx="400.85452"
       cy="338.53629"
       fx="400.85452"
       fy="338.53629"
       r="87.875"
       gradientTransform="matrix(1.3836358,0.37045346,-0.7892582,2.9478627,122.69645,-793.76275)"
       gradientUnits="userSpaceOnUse" />
  </defs>
  <sodipodi:namedview
     id="base"
     pagecolor="#000000"
     bordercolor="#666666"
     borderopacity="1.0"
     inkscape:pageopacity="1"
     inkscape:pageshadow="2"
     inkscape:zoom="0.7"
     inkscape:cx="164.53055"
     inkscape:cy="224.5868"
     inkscape:document-units="px"
     inkscape:current-layer="layer5"
     showgrid="false"
     inkscape:window-width="1280"
     inkscape:window-height="968"
     inkscape:window-x="-4"
     inkscape:window-y="-4"
     inkscape:window-maximized="1" />
  <metadata
     id="metadata7">
    <rdf:RDF>
      <cc:Work
         rdf:about="">
        <dc:format>image/svg+xml</dc:format>
        <dc:type
           rdf:resource="http://purl.org/dc/dcmitype/StillImage" />
        <dc:title></dc:title>
      </cc:Work>
    </rdf:RDF>
  </metadata>
  <g
     inkscape:groupmode="layer"
     id="layer5"
     inkscape:label="Rond principal">
    <path
       sodipodi:type="arc"
       style="fill:#989898;fill-opacity:1;stroke:none"
       id="path3314"
       sodipodi:cx="316.42856"
       sodipodi:cy="307.85715"
       sodipodi:rx="259.28571"
       sodipodi:ry="259.28571"
       d="m 575.71426,307.85715 a 259.28571,259.28571 0 1 1 -518.571407,0 259.28571,259.28571 0 1 1 518.571407,0 z"
       transform="matrix(0.96969699,0,0,0.96969699,13.160179,21.471851)" />
    <path
       style="fill:#e2d008;fill-opacity:1;stroke:none;display:inline"
       d="M 320,10.71875 C 149.18622,10.71875 10.71875,149.18622 10.71875,320 10.71875,490.81378 149.18622,629.28125 320,629.28125 490.81378,629.28125 629.28125,490.81378 629.28125,320 629.28125,149.18622 490.81378,10.71875 320,10.71875 z M 349.46875,43.375 C 412.77061,50.04709 473.55572,78.41088 519.875,126.5 l -51.625,49.84375 c 26.32434,27.16124 45.25099,61.54156 53.53125,99.875 l 69.8125,-14.84375 c 13.51578,63.70146 4.06716,130.39572 -26.375,187.75 L 502.8125,415.9375 c -18.03293,34.28876 -45.42179,62.90183 -78.78125,82.40625 l 35.0625,60.6875 C 401.10148,592.6044 334.88371,602.94502 272.375,591.9375 l 12.09375,-68.5625 c -39.15527,-6.79587 -74.54182,-24.6148 -102.8125,-50.15625 l -46.59375,51.75 c 3.39204,3.05421 6.84827,6.03136 10.375,8.90625 1.76337,1.43745 3.54803,2.85817 5.34375,4.25 3.59144,2.78365 7.25316,5.4645 10.96875,8.0625 -3.70853,-2.58839 -7.37263,-5.27886 -10.96875,-8.0625 -1.79573,-1.39002 -3.5776,-2.81149 -5.34375,-4.25 -18.15783,-14.78942 -34.74209,-32.09811 -49.15625,-51.9375 -29.68654,-40.86 -46.53705,-87.13364 -51.40625,-134 0.34214,3.21439 0.73576,6.41076 1.1875,9.625 l 69.375,-9.75 c -1.2262,-9.10029 -1.875,-18.37641 -1.875,-27.8125 0,-30.298 6.55522,-59.07965 18.28125,-85 l -64.5,-28.71875 c -1.31629,2.95642 -2.59698,5.94851 -3.8125,8.9375 18.77424,-46.62309 50.40393,-88.7177 94.0625,-120.4375 13.28561,-9.65258 27.17042,-17.91725 41.4375,-24.875 L 230.28125,134 C 257.40999,120.88881 287.85086,113.5625 320,113.5625 c 7.42568,0 14.74572,0.39158 21.96875,1.15625 l 7.5,-71.34375 z M 61.75,219.75 c -0.86691,2.26644 -1.69474,4.52786 -2.5,6.8125 0.8045,-2.28564 1.6311,-4.54728 2.5,-6.8125 z M 43.53125,328.59375 c 0.1082,3.22382 0.27864,6.46309 0.5,9.6875 0.21796,3.13024 0.48352,6.25392 0.8125,9.375 -0.32207,-3.13081 -0.5973,-6.24018 -0.8125,-9.375 -0.2245,-3.22396 -0.39331,-6.46316 -0.5,-9.6875 z"
       id="path3081-4-3"
       inkscape:connector-curvature="0" />
  </g>
  <g
     inkscape:groupmode="layer"
     id="layer3"
     inkscape:label="Chiffre base">
    <path
       style="fill:url(#linearGradient4121);fill-opacity:1;stroke:none;display:inline"
       d="m 222.61862,161.44072 -79.63871,120.71092 1.11668,0.73538 c 0.20863,-0.009 0.41753,-0.0211 0.62644,-0.0272 10.03587,-0.29337 20.38016,3.23541 28.62526,10.64936 4.39827,3.95489 7.77245,8.64789 10.07741,13.69982 l 27.80818,-42.16167 0,-0.0272 45.3483,-92.4125 c -5.90785,1.41271 -11.9638,1.39469 -17.78525,-0.32683 -6.48172,-1.91678 -11.9477,-5.72055 -16.17831,-10.84002 z"
       id="rect3809-5-1"
       inkscape:connector-curvature="0" />
    <path
       style="fill:url(#linearGradient4131);fill-opacity:1;stroke:none;display:inline"
       d="m 259.27857,171.84495 c -0.89744,0.28531 -1.79236,0.54566 -2.69639,0.76262 l -45.3483,92.43973 0.51748,-0.78986 0,190.71528 c 13.21017,1.24507 20.14895,4.924 23.01246,5.98392 3.52245,1.30382 18.64305,5.00606 24.54198,7.53426 l 0,-284.71648 -0.0272,0 0,-11.92947 z"
       id="rect3968"
       inkscape:connector-curvature="0"
       sodipodi:nodetypes="cccccsccccc" />
    <path
       style="fill:url(#radialGradient4147);fill-opacity:1;stroke:none;display:inline"
       d="m 144.72303,282.85978 c -0.20891,0.006 -0.41781,0.0178 -0.62644,0.0272 l 38.56649,25.46586 0.76262,-1.14392 c -2.30496,-5.05192 -5.67914,-9.74493 -10.07741,-13.69982 -8.2451,-7.41395 -18.58939,-10.94273 -28.62526,-10.64936 z"
       id="path3966-1"
       inkscape:connector-curvature="0" />
    <path
       style="fill:url(#radialGradient4139);fill-opacity:1;stroke:none;display:inline"
       d="m 222.99992,160.84152 -0.3813,0.5992 c 4.23061,5.11946 9.69659,8.92324 16.17831,10.84001 6.71338,1.98529 13.72807,1.72488 20.48164,-0.40854 l 0,-3.84031 c -11.54636,-3.80222 -23.69444,-6.2689 -36.27865,-7.19036 z"
       id="path3966-5"
       inkscape:connector-curvature="0" />
    <path
       style="fill:url(#radialGradient4159);fill-opacity:1;stroke:none;display:inline"
       d="m 246.70267,458.78233 c -3.83544,-2.35079 -13.61425,-5.05683 -16.73708,-5.57315 -3.15542,-0.52172 -14.97801,-1.30456 -18.21423,1.24623 l 0,1.71588 c 8.40507,3.91434 31.33007,17.1511 47.55444,14.11539 l 0,-2.90252 c -3.93197,-3.5773 -7.68467,-5.58723 -12.60313,-8.60183 z"
       id="path3966"
       inkscape:connector-curvature="0"
       sodipodi:nodetypes="ssccccs" />
    <path
       style="fill:url(#radialGradient4274);fill-opacity:1;stroke:none"
       d="M 389.9375 161.28125 C 341.40091 161.28125 302.0625 230.6761 302.0625 316.3125 C 302.0625 401.9489 341.40091 471.375 389.9375 471.375 C 438.47409 471.375 477.8125 401.9489 477.8125 316.3125 C 477.8125 230.6761 438.47409 161.28125 389.9375 161.28125 z M 390.21875 208.15625 C 417.14657 208.15625 438.96875 256.29927 438.96875 315.6875 C 438.96875 375.07573 417.14657 423.21875 390.21875 423.21875 C 363.29093 423.21875 341.4375 375.07573 341.4375 315.6875 C 341.4375 256.29927 363.29093 208.15625 390.21875 208.15625 z "
       id="path4245" />
  </g>
  <g
     inkscape:groupmode="layer"
     id="layer4"
     inkscape:label="Chiffre ombre" />
  <g
     inkscape:groupmode="layer"
     id="layer2"
     inkscape:label="bastringue"
     style="display:none">
    <path
       sodipodi:type="arc"
       style="fill:#ffff00;fill-opacity:1;stroke:none"
       id="path3081"
       sodipodi:cx="329.28571"
       sodipodi:cy="317.85715"
       sodipodi:rx="296.42856"
       sodipodi:ry="296.42856"
       d="m 625.71426,317.85715 a 296.42856,296.42856 0 1 1 -592.857113,0 296.42856,296.42856 0 1 1 592.857113,0 z"
       transform="matrix(1.0433735,0,0,1.0433735,-23.567979,-11.643724)" />
    <path
       sodipodi:type="arc"
       style="fill:#808000;fill-opacity:1;stroke:none"
       id="path3083"
       sodipodi:cx="330.71429"
       sodipodi:cy="317.85715"
       sodipodi:rx="265"
       sodipodi:ry="265"
       d="m 595.71429,317.85715 a 265,265 0 1 1 -529.999996,0 265,265 0 1 1 529.999996,0 z"
       transform="matrix(1.0458221,0,0,1.0458221,-25.868318,-12.422029)" />
    <path
       sodipodi:type="arc"
       style="fill:#4d4d4d;fill-opacity:1;stroke:none"
       id="path3085"
       sodipodi:cx="301.42856"
       sodipodi:cy="287.14285"
       sodipodi:rx="217.14285"
       sodipodi:ry="217.14285"
       d="m 518.57141,287.14285 a 217.14285,217.14285 0 1 1 -434.285704,0 217.14285,217.14285 0 1 1 434.285704,0 z"
       transform="matrix(0.95065783,0,0,0.95065783,33.444581,47.025399)" />
    <path
       sodipodi:type="arc"
       style="fill:#00ff00;fill-opacity:1;stroke:none;display:inline"
       id="path3083-7"
       sodipodi:cx="330.71429"
       sodipodi:cy="317.85715"
       sodipodi:rx="265"
       sodipodi:ry="265"
       d="M 376.73106,56.883092 A 265,265 0 0 1 508.03391,120.92377 L 330.71429,317.85715 z"
       transform="matrix(1.0458221,0,0,1.0458221,-25.868318,-12.422033)"
       sodipodi:start="4.8869219"
       sodipodi:end="5.4454273" />
    <path
       sodipodi:type="arc"
       style="fill:#00ff00;fill-opacity:1;stroke:none;display:inline"
       id="path3083-7-4"
       sodipodi:cx="330.71429"
       sodipodi:cy="317.85715"
       sodipodi:rx="265"
       sodipodi:ry="265"
       d="M 593.13533,280.97628 A 265,265 0 0 1 572.80384,425.64235 L 330.71429,317.85715 z"
       transform="matrix(1.0458221,0,0,1.0458221,-25.868318,-12.422035)"
       sodipodi:start="6.143559"
       sodipodi:end="6.7020643" />
    <path
       sodipodi:type="arc"
       style="fill:#00ff00;fill-opacity:1;stroke:none;display:inline"
       id="path3083-7-0"
       sodipodi:cx="330.71429"
       sodipodi:cy="317.85715"
       sodipodi:rx="265"
       sodipodi:ry="265"
       d="m 446.88265,556.03757 a 265,265 0 0 1 -143.8684,25.36788 l 27.70004,-263.5483 z"
       transform="matrix(1.0458221,0,0,1.0458221,-25.868318,-12.422035)"
       sodipodi:start="1.1170107"
       sodipodi:end="1.6755161" />
    <path
       sodipodi:type="arc"
       style="fill:#00ff00;fill-opacity:1;stroke:none;display:inline"
       id="path3083-7-9"
       sodipodi:cx="330.71429"
       sodipodi:cy="317.85715"
       sodipodi:rx="265"
       sodipodi:ry="265"
       d="M 140.08924,501.94161 A 265,265 0 0 1 71.505183,372.95376 L 330.71429,317.85715 z"
       transform="matrix(1.0458221,0,0,1.0458221,-25.868318,-12.422035)"
       sodipodi:start="2.3736478"
       sodipodi:end="2.9321531" />
    <path
       sodipodi:type="arc"
       style="fill:#00ff00;fill-opacity:1;stroke:none;display:inline"
       id="path3083-7-48"
       sodipodi:cx="330.71429"
       sodipodi:cy="317.85715"
       sodipodi:rx="265"
       sodipodi:ry="265"
       d="M 96.733177,193.44719 A 265,265 0 0 1 198.21429,88.360416 l 132.5,229.496734 z"
       transform="matrix(1.0458221,0,0,1.0458221,-25.868318,-12.422035)"
       sodipodi:start="3.6302848"
       sodipodi:end="4.1887902" />
    <path
       style="fill:#ffff00;fill-opacity:1;stroke:none;display:inline"
       d="M 320,10.71875 C 149.18622,10.71875 10.71875,149.18622 10.71875,320 10.71875,490.81378 149.18622,629.28125 320,629.28125 490.81378,629.28125 629.28125,490.81378 629.28125,320 629.28125,149.18622 490.81378,10.71875 320,10.71875 z M 349.46875,43.375 C 412.77061,50.04709 473.55572,78.41088 519.875,126.5 l -51.625,49.84375 c 26.32434,27.16124 45.25099,61.54156 53.53125,99.875 l 69.8125,-14.84375 c 13.51578,63.70146 4.06716,130.39572 -26.375,187.75 L 502.8125,415.9375 c -18.03293,34.28876 -45.42179,62.90183 -78.78125,82.40625 l 35.0625,60.6875 C 401.10148,592.6044 334.88371,602.94502 272.375,591.9375 l 12.09375,-68.5625 c -39.15527,-6.79587 -74.54182,-24.6148 -102.8125,-50.15625 l -46.59375,51.75 c 3.39204,3.05421 6.84827,6.03136 10.375,8.90625 1.76337,1.43745 3.54803,2.85817 5.34375,4.25 3.59144,2.78365 7.25316,5.4645 10.96875,8.0625 -3.70853,-2.58839 -7.37263,-5.27886 -10.96875,-8.0625 -1.79573,-1.39002 -3.5776,-2.81149 -5.34375,-4.25 -18.15783,-14.78942 -34.74209,-32.09811 -49.15625,-51.9375 -29.68654,-40.86 -46.53705,-87.13364 -51.40625,-134 0.34214,3.21439 0.73576,6.41076 1.1875,9.625 l 69.375,-9.75 c -1.2262,-9.10029 -1.875,-18.37641 -1.875,-27.8125 0,-30.298 6.55522,-59.07965 18.28125,-85 l -64.5,-28.71875 c -1.31629,2.95642 -2.59698,5.94851 -3.8125,8.9375 18.77424,-46.62309 50.40393,-88.7177 94.0625,-120.4375 13.28561,-9.65258 27.17042,-17.91725 41.4375,-24.875 L 230.28125,134 C 257.40999,120.88881 287.85086,113.5625 320,113.5625 c 7.42568,0 14.74572,0.39158 21.96875,1.15625 l 7.5,-71.34375 z M 61.75,219.75 c -0.86691,2.26644 -1.69474,4.52786 -2.5,6.8125 0.8045,-2.28564 1.6311,-4.54728 2.5,-6.8125 z M 43.53125,328.59375 c 0.1082,3.22382 0.27864,6.46309 0.5,9.6875 0.21796,3.13024 0.48352,6.25392 0.8125,9.375 -0.32207,-3.13081 -0.5973,-6.24018 -0.8125,-9.375 -0.2245,-3.22396 -0.39331,-6.46316 -0.5,-9.6875 z"
       id="path3081-4"
       inkscape:connector-curvature="0" />
  </g>
</svg>
