<?xml version="1.0" encoding="UTF-8" standalone="no"?>
<!-- Created with Inkscape (http://www.inkscape.org/) -->

<svg
   xmlns:dc="http://purl.org/dc/elements/1.1/"
   xmlns:cc="http://creativecommons.org/ns#"
   xmlns:rdf="http://www.w3.org/1999/02/22-rdf-syntax-ns#"
   xmlns:svg="http://www.w3.org/2000/svg"
   xmlns="http://www.w3.org/2000/svg"
   xmlns:xlink="http://www.w3.org/1999/xlink"
   xmlns:sodipodi="http://sodipodi.sourceforge.net/DTD/sodipodi-0.dtd"
   xmlns:inkscape="http://www.inkscape.org/namespaces/inkscape"
   width="640"
   height="640"
   id="svg2"
   version="1.1"
   inkscape:version="0.48.2 r9819"
   sodipodi:docname="coin_01.svg"
   inkscape:export-filename="J:\Recher\projets\git\kawax\image_lab\coin_01.png"
   inkscape:export-xdpi="4.5"
   inkscape:export-ydpi="4.5">
  <defs
     id="defs4">
    <linearGradient
       id="linearGradient4088">
      <stop
         id="stop4090"
         offset="0"
         style="stop-color:#793318;stop-opacity:1;" />
      <stop
         id="stop4092"
         offset="1"
         style="stop-color:#723116;stop-opacity:1;" />
    </linearGradient>
    <linearGradient
       id="linearGradient4080">
      <stop
         style="stop-color:#fbe7b5;stop-opacity:1;"
         offset="0"
         id="stop4082" />
      <stop
         style="stop-color:#f6d272;stop-opacity:1;"
         offset="1"
         id="stop4084" />
    </linearGradient>
    <linearGradient
       id="linearGradient4072">
      <stop
         style="stop-color:#793418;stop-opacity:1;"
         offset="0"
         id="stop4074" />
      <stop
         style="stop-color:#311509;stop-opacity:1;"
         offset="1"
         id="stop4076" />
    </linearGradient>
    <linearGradient
       id="linearGradient4056">
      <stop
         style="stop-color:#ffbe97;stop-opacity:1;"
         offset="0"
         id="stop4058" />
      <stop
         style="stop-color:#d85100;stop-opacity:1;"
         offset="1"
         id="stop4060" />
    </linearGradient>
    <linearGradient
       id="linearGradient4048">
      <stop
         style="stop-color:#e18a69;stop-opacity:1;"
         offset="0"
         id="stop4050" />
      <stop
         style="stop-color:#c95527;stop-opacity:1;"
         offset="1"
         id="stop4052" />
    </linearGradient>
    <linearGradient
       id="linearGradient4161">
      <stop
         id="stop4163"
         offset="0"
         style="stop-color:#321300;stop-opacity:1;" />
      <stop
         style="stop-color:#f3e000;stop-opacity:1;"
         offset="1"
         id="stop4167" />
    </linearGradient>
    <linearGradient
       id="linearGradient4115">
      <stop
         style="stop-color:#280000;stop-opacity:1;"
         offset="0"
         id="stop4117" />
      <stop
         id="stop4123"
         offset="1"
         style="stop-color:#9c2900;stop-opacity:1;" />
    </linearGradient>
    <linearGradient
       inkscape:collect="always"
       xlink:href="#linearGradient4115"
       id="linearGradient4121"
       x1="280.25"
       y1="205.85269"
       x2="326.30801"
       y2="236.56699"
       gradientUnits="userSpaceOnUse"
       spreadMethod="pad"
       gradientTransform="translate(8,8)" />
    <linearGradient
       inkscape:collect="always"
       xlink:href="#linearGradient4115"
       id="linearGradient4131"
       x1="315.70535"
       y1="322.29688"
       x2="368.00446"
       y2="322.29688"
       gradientUnits="userSpaceOnUse"
       gradientTransform="translate(8,8)" />
    <radialGradient
       inkscape:collect="always"
       xlink:href="#linearGradient4115"
       id="radialGradient4139"
       cx="325.96548"
       cy="151.01019"
       fx="325.96548"
       fy="151.01019"
       r="21.03125"
       gradientTransform="matrix(1.3763423,1.7268532,-0.96011476,0.76523366,29.274841,-528.22786)"
       gradientUnits="userSpaceOnUse" />
    <radialGradient
       inkscape:collect="always"
       xlink:href="#linearGradient4115"
       id="radialGradient4147"
       cx="239.66124"
       cy="273.97134"
       fx="239.66124"
       fy="273.97134"
       r="22.5625"
       gradientTransform="matrix(3.8988565,-0.00622582,0.00183869,1.151455,-691.0483,-26.067202)"
       gradientUnits="userSpaceOnUse" />
    <radialGradient
       inkscape:collect="always"
       xlink:href="#linearGradient4115"
       id="radialGradient4159"
       cx="323.15295"
       cy="473.43149"
       fx="323.15295"
       fy="473.43149"
       r="27.28125"
       gradientTransform="matrix(2.537962,-2.4494286,0.67969931,0.70426673,-813.71666,945.00638)"
       gradientUnits="userSpaceOnUse" />
    <radialGradient
       inkscape:collect="always"
       xlink:href="#linearGradient4048"
       id="radialGradient4054"
       cx="293.07764"
       cy="247.06734"
       fx="293.07764"
       fy="247.06734"
       r="237.9375"
       gradientUnits="userSpaceOnUse"
       gradientTransform="matrix(0.61954253,0.82492871,-0.81634463,0.61309567,296.8253,-127.49917)" />
    <radialGradient
       inkscape:collect="always"
       xlink:href="#linearGradient4056"
       id="radialGradient4062"
       cx="306.25317"
       cy="168.75281"
       fx="306.25317"
       fy="168.75281"
       r="210.20312"
       gradientTransform="matrix(0.50000049,-0.51699762,0.78027718,0.75462429,-19.281255,212.83843)"
       gradientUnits="userSpaceOnUse" />
    <radialGradient
       inkscape:collect="always"
       xlink:href="#linearGradient4056"
       id="radialGradient4070"
       cx="293.22458"
       cy="76.041389"
       fx="293.22458"
       fy="76.041389"
       r="230.125"
       gradientTransform="matrix(-0.32844875,0.22818535,-0.16434629,-0.23655914,517.42531,433.98897)"
       gradientUnits="userSpaceOnUse" />
    <radialGradient
       inkscape:collect="always"
       xlink:href="#linearGradient4072"
       id="radialGradient4078"
       cx="242.81853"
       cy="119.6793"
       fx="242.81853"
       fy="119.6793"
       r="210.20312"
       gradientTransform="matrix(0.75612114,-0.33279114,0.29826625,0.67767853,28.849065,155.90783)"
       gradientUnits="userSpaceOnUse" />
    <radialGradient
       inkscape:collect="always"
       xlink:href="#linearGradient4088"
       id="radialGradient4086"
       cx="584.79004"
       cy="399.52087"
       fx="584.79004"
       fy="399.52087"
       r="230.125"
       gradientTransform="matrix(-0.09158057,-0.19420661,0.7486554,-0.35303788,176.30814,769.79215)"
       gradientUnits="userSpaceOnUse" />
  </defs>
  <sodipodi:namedview
     id="base"
     pagecolor="#000000"
     bordercolor="#666666"
     borderopacity="1.0"
     inkscape:pageopacity="1"
     inkscape:pageshadow="2"
     inkscape:zoom="1.2087107"
     inkscape:cx="334.17054"
     inkscape:cy="324.69025"
     inkscape:document-units="px"
     inkscape:current-layer="layer1"
     showgrid="false"
     inkscape:window-width="1280"
     inkscape:window-height="968"
     inkscape:window-x="-4"
     inkscape:window-y="-4"
     inkscape:window-maximized="1" />
  <metadata
     id="metadata7">
    <rdf:RDF>
      <cc:Work
         rdf:about="">
        <dc:format>image/svg+xml</dc:format>
        <dc:type
           rdf:resource="http://purl.org/dc/dcmitype/StillImage" />
        <dc:title></dc:title>
      </cc:Work>
    </rdf:RDF>
  </metadata>
  <g
     inkscape:label="main"
     inkscape:groupmode="layer"
     id="layer1"
     transform="translate(0,-412.36218)"
     style="display:inline"
     sodipodi:insensitive="true">
    <path
       style="fill:url(#radialGradient4054);fill-opacity:1;stroke:none"
       d="m 329.65625,87.375 c -131.07673,0 -237.3987,105.98727 -237.9375,236.9375 l 56.6875,-6.96875 c 2.12532,-55.99144 29.78341,-105.44396 71.65625,-137.0625 l 0,288 c -22.69413,-17.14149 -41.2101,-39.49503 -53.75,-65.3125 l -58.96875,7.25 C 141.53653,499.69474 228.16202,563.25 329.65625,563.25 c 131.41022,0 237.9375,-106.52728 237.9375,-237.9375 0,-26.80745 -4.42054,-52.58168 -12.59375,-76.625 l -51.125,32.78125 c 3.34614,13.73729 5.125,28.07733 5.125,42.84375 0,58.84465 -28.18148,111.08015 -71.78125,144 l 0,-288.0625 c 9.37513,7.07983 18.05541,15.07345 25.875,23.8125 L 512.125,172.625 C 468.47828,120.5186 402.9456,87.375 329.65625,87.375 z"
       transform="translate(0,412.36218)"
       id="path2987"
       inkscape:connector-curvature="0" />
  </g>
  <g
     inkscape:groupmode="layer"
     id="layer4"
     inkscape:label="scridetrackwc"
     style="display:none"
     sodipodi:insensitive="true">
    <path
       style="fill:none;stroke:#000000;stroke-width:2;stroke-miterlimit:4;stroke-opacity:1;stroke-dasharray:none"
       d="m 330.14152,115.48302 c -30.36174,0 -59.28934,5.63307 -85.70023,15.83099 l 0,386.87187 c 26.40733,10.19913 55.33858,15.8311 85.70023,15.8311 30.36334,0 59.31782,-5.63208 85.72969,-15.8311 l 0,-386.87187 c -26.40867,-10.2009 -55.36595,-15.83099 -85.72969,-15.83099 z"
       id="path2987-2"
       inkscape:connector-curvature="0" />
    <path
       style="fill:#1a1a1a;fill-opacity:1;stroke:none"
       d="m 330.15625,177.28125 0,321.71875 c 19.06074,0 37.39593,-3.06251 54.5625,-8.71875 l 0,-313 -54.5625,0 z"
       id="rect3809"
       inkscape:connector-curvature="0" />
    <path
       style="fill:#1a1a1a;fill-opacity:1;stroke:none"
       d="m 343.0625,150.96875 -91.8125,139.1875 45.53125,30.0625 87.90625,-133.25 0,-27.75 c -13.24794,-4.36255 -27.18627,-7.19274 -41.625,-8.25 z"
       id="rect3809-9"
       inkscape:connector-curvature="0" />
    <path
       style="fill:#e4b73c;fill-opacity:1;stroke:none;display:inline"
       d="m 329.65237,87.35938 c -131.07673,0 -237.3987,105.98727 -237.9375,236.9375 l 56.6875,-6.96875 c 2.32424,-61.23189 35.18877,-114.6513 83.78125,-145.46875 l 0,304.84375 c -28.24598,-17.91439 -51.16867,-43.47224 -65.875,-73.75 l -58.96875,7.25 c 34.19278,89.47599 120.81827,153.03125 222.3125,153.03125 131.41022,0 237.9375,-106.52728 237.9375,-237.9375 0,-26.80745 -4.42054,-52.58168 -12.59375,-76.625 l -51.125,32.78125 c 3.34614,13.73729 5.125,28.07733 5.125,42.84375 0,64.12725 -33.45391,120.42568 -83.875,152.40625 l 0,-304.84375 c 14.10028,8.94302 26.88303,19.79827 37.96875,32.1875 l 49.03125,-31.4375 c -43.64672,-52.1064 -109.1794,-85.25 -182.46875,-85.25 z"
       id="path2987-7"
       inkscape:connector-curvature="0" />
  </g>
  <g
     inkscape:groupmode="layer"
     id="layer2"
     inkscape:label="main detail"
     sodipodi:insensitive="true">
    <path
       style="fill:url(#radialGradient4078);fill-opacity:1;stroke:none"
       d="m 329.65625,87.375 c -131.07673,0 -237.39871,105.98727 -237.9375,236.9375 l 23.34375,-2.875 C 123.20247,207.79377 217.93748,118.125 333.65625,118.125 c 62.18601,0 118.32338,25.90543 158.21875,67.5 l 20.25,-13 C 468.47828,120.5186 402.9456,87.375 329.65625,87.375 z"
       id="path3907"
       inkscape:connector-curvature="0" />
    <path
       style="fill:url(#radialGradient4086);fill-opacity:1;stroke:none"
       d="m 555,248.6875 -21.96875,14.09375 c 3.73569,16.2234 5.71875,33.13859 5.71875,50.53125 0,121.06253 -95.77095,219.1875 -213.9375,219.1875 -85.35244,0 -159.00685,-51.19084 -193.34375,-125.25 l -24.125,2.96875 C 141.53653,499.69474 228.16202,563.25 329.65625,563.25 c 131.41022,0 237.9375,-106.52728 237.9375,-237.9375 0,-26.80745 -4.42054,-52.58168 -12.59375,-76.625 z"
       id="path3014-8-1"
       inkscape:connector-curvature="0" />
  </g>
  <g
     inkscape:groupmode="layer"
     id="layer5"
     inkscape:label="main bord"
     sodipodi:insensitive="true">
    <path
       inkscape:connector-curvature="0"
       style="fill:url(#radialGradient4070);fill-opacity:1;stroke:none"
       d="m 555,248.6875 -16.3125,10.46875 c 6.59995,20.87423 10.15625,43.09953 10.15625,66.15625 0,121.06253 -98.12497,219.1875 -219.1875,219.1875 -91.85983,0 -170.48884,-56.50835 -203.09375,-136.65625 l -19.21875,2.375 C 141.53653,499.69474 228.16202,563.25 329.65625,563.25 c 131.41022,0 237.9375,-106.52728 237.9375,-237.9375 0,-26.80745 -4.42054,-52.58168 -12.59375,-76.625 z"
       id="path3014" />
    <path
       style="fill:url(#radialGradient4062);fill-opacity:1;stroke:none"
       d="m 329.65625,87.375 c -131.07673,0 -237.39871,105.98727 -237.9375,236.9375 L 110.5,322 c 1.77337,-119.53287 99.20149,-215.875 219.15625,-215.875 66.65272,0 126.3591,29.74359 166.5625,76.6875 L 512.125,172.625 C 468.47828,120.5186 402.9456,87.375 329.65625,87.375 z"
       id="path3903-5"
       inkscape:connector-curvature="0" />
  </g>
  <g
     inkscape:groupmode="layer"
     id="layer3"
     inkscape:label="Chiffre ombre"
     style="display:inline"
     sodipodi:insensitive="true">
    <path
       style="fill:#1a1a1a;fill-opacity:1;stroke:none"
       d="m 335.0625,150.96875 -91.8125,139.1875 45.53125,30.0625 33.375,-50.59375 0,229.375 c 19.06074,0 37.39593,-3.06251 54.5625,-8.71875 l 0,-313 -0.0312,0 0,-18.0625 c -13.24794,-4.36255 -27.18627,-7.19274 -41.625,-8.25 z"
       id="rect3809-5"
       inkscape:connector-curvature="0" />
    <path
       style="fill:url(#linearGradient4121);fill-opacity:1;stroke:none"
       d="m 334.625,151.65625 -91.375,138.5 1.28125,0.84375 c 0.23937,-0.0108 0.47906,-0.0242 0.71875,-0.0312 11.51485,-0.3366 23.38357,3.71221 32.84375,12.21875 5.04643,4.53772 8.91786,9.92233 11.5625,15.71875 l 31.90625,-48.375 0,-0.0312 52.03125,-106.03125 c -6.77849,1.62089 -13.7269,1.60022 -20.40625,-0.375 -7.43693,-2.19925 -13.70842,-6.56358 -18.5625,-12.4375 z"
       id="rect3809-5-1"
       inkscape:connector-curvature="0" />
    <path
       style="fill:url(#radialGradient4159);fill-opacity:1;stroke:none"
       d="m 358.78125,480.84375 c -1.41923,-0.0235 -2.83991,0.0215 -4.28125,0.125 -13.12233,0.94186 -24.57406,7.05095 -32.34375,16.0625 l 0,1.96875 c 19.06074,0 37.39593,-3.06251 54.5625,-8.71875 l 0,-5.625 c -5.52556,-2.36596 -11.6101,-3.70788 -17.9375,-3.8125 z"
       id="path3966"
       inkscape:connector-curvature="0" />
    <path
       style="fill:url(#linearGradient4131);fill-opacity:1;stroke:none"
       d="m 376.6875,163.59375 c -1.02969,0.32735 -2.05649,0.62607 -3.09375,0.875 l -52.03125,106.0625 0.59375,-0.90625 0,227.375 c 7.7682,-9.0026 19.23018,-15.09001 32.34375,-16.03125 7.87191,-0.56501 15.4505,0.81797 22.21875,3.71875 l 0,-307.40625 -0.0312,0 0,-13.6875 z"
       id="rect3968"
       inkscape:connector-curvature="0" />
    <path
       style="fill:url(#radialGradient4147);fill-opacity:1;stroke:none"
       d="m 245.25,290.96875 c -0.23969,0.007 -0.47938,0.0204 -0.71875,0.0312 l 44.25,29.21875 0.875,-1.3125 c -2.64464,-5.79642 -6.51607,-11.18103 -11.5625,-15.71875 -9.46018,-8.50654 -21.3289,-12.55535 -32.84375,-12.21875 z"
       id="path3966-1"
       inkscape:connector-curvature="0" />
    <path
       style="fill:url(#radialGradient4139);fill-opacity:1;stroke:none"
       d="m 335.0625,150.96875 -0.4375,0.6875 c 4.85408,5.87392 11.12557,10.23825 18.5625,12.4375 7.70273,2.27786 15.75116,1.97907 23.5,-0.46875 l 0,-4.40625 c -13.24794,-4.36255 -27.18627,-7.19274 -41.625,-8.25 z"
       id="path3966-5"
       inkscape:connector-curvature="0" />
  </g>
</svg>
