<?xml version="1.0" encoding="UTF-8" standalone="no"?>
<!-- Created with Inkscape (http://www.inkscape.org/) -->

<svg
   xmlns:dc="http://purl.org/dc/elements/1.1/"
   xmlns:cc="http://creativecommons.org/ns#"
   xmlns:rdf="http://www.w3.org/1999/02/22-rdf-syntax-ns#"
   xmlns:svg="http://www.w3.org/2000/svg"
   xmlns="http://www.w3.org/2000/svg"
   xmlns:xlink="http://www.w3.org/1999/xlink"
   xmlns:sodipodi="http://sodipodi.sourceforge.net/DTD/sodipodi-0.dtd"
   xmlns:inkscape="http://www.inkscape.org/namespaces/inkscape"
   width="640"
   height="640"
   id="svg2"
   version="1.1"
   inkscape:version="0.48.2 r9819"
   sodipodi:docname="rock.svg"
   inkscape:export-filename="J:\Recher\projets\git\kawax\code\img\coin_00.png"
   inkscape:export-xdpi="4.5"
   inkscape:export-ydpi="4.5">
  <defs
     id="defs4">
    <pattern
       inkscape:stockid="Polka dots, large"
       id="Polkadots-large"
       patternTransform="translate(0,0) scale(10,10)"
       height="10"
       width="10"
       patternUnits="userSpaceOnUse"
       inkscape:collect="always">
      <circle
         id="circle5208"
         r="0.45"
         cy="0.810"
         cx="2.567"
         style="fill:black;stroke:none" />
      <circle
         id="circle5210"
         r="0.45"
         cy="2.33"
         cx="3.048"
         style="fill:black;stroke:none" />
      <circle
         id="circle5212"
         r="0.45"
         cy="2.415"
         cx="4.418"
         style="fill:black;stroke:none" />
      <circle
         id="circle5214"
         r="0.45"
         cy="3.029"
         cx="1.844"
         style="fill:black;stroke:none" />
      <circle
         id="circle5216"
         r="0.45"
         cy="1.363"
         cx="6.08"
         style="fill:black;stroke:none" />
      <circle
         id="circle5218"
         r="0.45"
         cy="4.413"
         cx="5.819"
         style="fill:black;stroke:none" />
      <circle
         id="circle5220"
         r="0.45"
         cy="4.048"
         cx="4.305"
         style="fill:black;stroke:none" />
      <circle
         id="circle5222"
         r="0.45"
         cy="3.045"
         cx="5.541"
         style="fill:black;stroke:none" />
      <circle
         id="circle5224"
         r="0.45"
         cy="5.527"
         cx="4.785"
         style="fill:black;stroke:none" />
      <circle
         id="circle5226"
         r="0.45"
         cy="5.184"
         cx="2.667"
         style="fill:black;stroke:none" />
      <circle
         id="circle5228"
         r="0.45"
         cy="1.448"
         cx="7.965"
         style="fill:black;stroke:none" />
      <circle
         id="circle5230"
         r="0.45"
         cy="5.049"
         cx="7.047"
         style="fill:black;stroke:none" />
      <circle
         id="circle5232"
         r="0.45"
         cy="0.895"
         cx="4.340"
         style="fill:black;stroke:none" />
      <circle
         id="circle5234"
         r="0.45"
         cy="0.340"
         cx="7.125"
         style="fill:black;stroke:none" />
      <circle
         id="circle5236"
         r="0.45"
         cy="1.049"
         cx="9.553"
         style="fill:black;stroke:none" />
      <circle
         id="circle5238"
         r="0.45"
         cy="2.689"
         cx="7.006"
         style="fill:black;stroke:none" />
      <circle
         id="circle5240"
         r="0.45"
         cy="2.689"
         cx="8.909"
         style="fill:black;stroke:none" />
      <circle
         id="circle5242"
         r="0.45"
         cy="4.407"
         cx="9.315"
         style="fill:black;stroke:none" />
      <circle
         id="circle5244"
         r="0.45"
         cy="3.870"
         cx="7.820"
         style="fill:black;stroke:none" />
      <circle
         id="circle5246"
         r="0.45"
         cy="5.948"
         cx="8.270"
         style="fill:black;stroke:none" />
      <circle
         id="circle5248"
         r="0.45"
         cy="7.428"
         cx="7.973"
         style="fill:black;stroke:none" />
      <circle
         id="circle5250"
         r="0.45"
         cy="8.072"
         cx="9.342"
         style="fill:black;stroke:none" />
      <circle
         id="circle5252"
         r="0.45"
         cy="9.315"
         cx="8.206"
         style="fill:black;stroke:none" />
      <circle
         id="circle5254"
         r="0.45"
         cy="9.475"
         cx="9.682"
         style="fill:black;stroke:none" />
      <circle
         id="circle5256"
         r="0.45"
         cy="6.186"
         cx="9.688"
         style="fill:black;stroke:none" />
      <circle
         id="circle5258"
         r="0.45"
         cy="6.296"
         cx="3.379"
         style="fill:black;stroke:none" />
      <circle
         id="circle5260"
         r="0.45"
         cy="8.204"
         cx="2.871"
         style="fill:black;stroke:none" />
      <circle
         id="circle5262"
         r="0.45"
         cy="8.719"
         cx="4.59"
         style="fill:black;stroke:none" />
      <circle
         id="circle5264"
         r="0.45"
         cy="9.671"
         cx="3.181"
         style="fill:black;stroke:none" />
      <circle
         id="circle5266"
         r="0.45"
         cy="7.315"
         cx="5.734"
         style="fill:black;stroke:none" />
      <circle
         id="circle5268"
         r="0.45"
         cy="6.513"
         cx="6.707"
         style="fill:black;stroke:none" />
      <circle
         id="circle5270"
         r="0.45"
         cy="9.670"
         cx="5.730"
         style="fill:black;stroke:none" />
      <circle
         id="circle5272"
         r="0.45"
         cy="8.373"
         cx="6.535"
         style="fill:black;stroke:none" />
      <circle
         id="circle5274"
         r="0.45"
         cy="7.154"
         cx="4.37"
         style="fill:black;stroke:none" />
      <circle
         id="circle5276"
         r="0.45"
         cy="7.25"
         cx="0.622"
         style="fill:black;stroke:none" />
      <circle
         id="circle5278"
         r="0.45"
         cy="5.679"
         cx="0.831"
         style="fill:black;stroke:none" />
      <circle
         id="circle5280"
         r="0.45"
         cy="8.519"
         cx="1.257"
         style="fill:black;stroke:none" />
      <circle
         id="circle5282"
         r="0.45"
         cy="6.877"
         cx="1.989"
         style="fill:black;stroke:none" />
      <circle
         id="circle5284"
         r="0.45"
         cy="3.181"
         cx="0.374"
         style="fill:black;stroke:none" />
      <circle
         id="circle5286"
         r="0.45"
         cy="1.664"
         cx="1.166"
         style="fill:black;stroke:none" />
      <circle
         id="circle5288"
         r="0.45"
         cy="0.093"
         cx="1.151"
         style="fill:black;stroke:none" />
      <circle
         id="circle5290"
         r="0.45"
         cy="10.093"
         cx="1.151"
         style="fill:black;stroke:none" />
      <circle
         id="circle5292"
         r="0.45"
         cy="4.451"
         cx="1.302"
         style="fill:black;stroke:none" />
      <circle
         id="circle5294"
         r="0.45"
         cy="3.763"
         cx="3.047"
         style="fill:black;stroke:none" />
    </pattern>
    <linearGradient
       id="linearGradient3966">
      <stop
         style="stop-color:#ffffff;stop-opacity:1"
         offset="0"
         id="stop3968" />
      <stop
         style="stop-color:#000000;stop-opacity:1;"
         offset="1"
         id="stop3970" />
    </linearGradient>
    <linearGradient
       id="linearGradient3975">
      <stop
         id="stop3977"
         offset="0"
         style="stop-color:#508249;stop-opacity:1;" />
      <stop
         style="stop-color:#79b171;stop-opacity:1;"
         offset="0.5405013"
         id="stop3979" />
      <stop
         id="stop3981"
         offset="1"
         style="stop-color:#508249;stop-opacity:1;" />
    </linearGradient>
    <linearGradient
       id="linearGradient3957">
      <stop
         style="stop-color:#508249;stop-opacity:1;"
         offset="0"
         id="stop3959" />
      <stop
         id="stop3965"
         offset="0.39757586"
         style="stop-color:#79b171;stop-opacity:1;" />
      <stop
         style="stop-color:#508249;stop-opacity:1;"
         offset="1"
         id="stop3961" />
    </linearGradient>
    <linearGradient
       id="linearGradient3925">
      <stop
         style="stop-color:#8dbc87;stop-opacity:1;"
         offset="0"
         id="stop3927" />
      <stop
         style="stop-color:#3a6035;stop-opacity:1;"
         offset="1"
         id="stop3929" />
    </linearGradient>
    <linearGradient
       id="linearGradient4510">
      <stop
         style="stop-color:#d0cfb8;stop-opacity:1;"
         offset="0"
         id="stop4512" />
      <stop
         id="stop4524"
         offset="0.5"
         style="stop-color:#ffffff;stop-opacity:1;" />
      <stop
         style="stop-color:#d0cfb8;stop-opacity:1;"
         offset="1"
         id="stop4514" />
    </linearGradient>
    <linearGradient
       id="linearGradient4500">
      <stop
         style="stop-color:#ffffff;stop-opacity:1;"
         offset="0"
         id="stop4502" />
      <stop
         style="stop-color:#909065;stop-opacity:1;"
         offset="1"
         id="stop4504" />
    </linearGradient>
    <linearGradient
       id="linearGradient4396">
      <stop
         style="stop-color:#272727;stop-opacity:1;"
         offset="0"
         id="stop4398" />
      <stop
         style="stop-color:#707070;stop-opacity:1;"
         offset="1"
         id="stop4400" />
    </linearGradient>
    <linearGradient
       inkscape:collect="always"
       xlink:href="#linearGradient4396"
       id="linearGradient4402"
       x1="344.7356"
       y1="143.5782"
       x2="350.52917"
       y2="184.99446"
       gradientUnits="userSpaceOnUse" />
    <linearGradient
       inkscape:collect="always"
       xlink:href="#linearGradient4396"
       id="linearGradient4410"
       x1="227.23271"
       y1="249.21875"
       x2="274.43988"
       y2="264.37106"
       gradientUnits="userSpaceOnUse" />
    <radialGradient
       inkscape:collect="always"
       xlink:href="#linearGradient4396"
       id="radialGradient4418"
       cx="323.30222"
       cy="350.68353"
       fx="323.30222"
       fy="350.68353"
       r="104.1875"
       gradientTransform="matrix(1.3396206,1.0308133,-1.4322007,1.8612539,369.22659,-615.31125)"
       gradientUnits="userSpaceOnUse" />
    <radialGradient
       inkscape:collect="always"
       xlink:href="#linearGradient4500"
       id="radialGradient4506"
       cx="195.35347"
       cy="131.08769"
       fx="195.35347"
       fy="131.08769"
       r="286.89053"
       gradientTransform="matrix(0.85687449,0.9989714,-1.3325764,1.1430265,195.84669,-197.52726)"
       gradientUnits="userSpaceOnUse" />
    <linearGradient
       inkscape:collect="always"
       xlink:href="#linearGradient4510"
       id="linearGradient4522"
       x1="195.9509"
       y1="301.74771"
       x2="388.30338"
       y2="351.74768"
       gradientUnits="userSpaceOnUse" />
    <linearGradient
       inkscape:collect="always"
       xlink:href="#linearGradient3966"
       id="linearGradient3972"
       x1="120.23479"
       y1="108.11518"
       x2="518.42261"
       y2="525.15192"
       gradientUnits="userSpaceOnUse" />
    <linearGradient
       inkscape:collect="always"
       xlink:href="#linearGradient3966-8"
       id="linearGradient3972-4"
       x1="120.23479"
       y1="108.11518"
       x2="518.42261"
       y2="525.15192"
       gradientUnits="userSpaceOnUse" />
    <linearGradient
       id="linearGradient3966-8">
      <stop
         style="stop-color:#ffffff;stop-opacity:1"
         offset="0"
         id="stop3968-8" />
      <stop
         style="stop-color:#000000;stop-opacity:1;"
         offset="1"
         id="stop3970-2" />
    </linearGradient>
    <linearGradient
       y2="525.15192"
       x2="518.42261"
       y1="108.11518"
       x1="120.23479"
       gradientUnits="userSpaceOnUse"
       id="linearGradient3989"
       xlink:href="#linearGradient3966-8"
       inkscape:collect="always" />
    <linearGradient
       inkscape:collect="always"
       xlink:href="#linearGradient3966-5"
       id="linearGradient3972-45"
       x1="120.23479"
       y1="108.11518"
       x2="518.42261"
       y2="525.15192"
       gradientUnits="userSpaceOnUse" />
    <linearGradient
       id="linearGradient3966-5">
      <stop
         style="stop-color:#ffffff;stop-opacity:1"
         offset="0"
         id="stop3968-1" />
      <stop
         style="stop-color:#000000;stop-opacity:1;"
         offset="1"
         id="stop3970-7" />
    </linearGradient>
    <filter
       inkscape:collect="always"
       id="filter5595">
      <feGaussianBlur
         inkscape:collect="always"
         stdDeviation="3.8907049"
         id="feGaussianBlur5597" />
    </filter>
  </defs>
  <sodipodi:namedview
     id="base"
     pagecolor="#000000"
     bordercolor="#666666"
     borderopacity="1.0"
     inkscape:pageopacity="1"
     inkscape:pageshadow="2"
     inkscape:zoom="0.57668776"
     inkscape:cx="739.56672"
     inkscape:cy="267.6072"
     inkscape:document-units="px"
     inkscape:current-layer="layer5"
     showgrid="false"
     inkscape:window-width="1280"
     inkscape:window-height="968"
     inkscape:window-x="-4"
     inkscape:window-y="-4"
     inkscape:window-maximized="1" />
  <metadata
     id="metadata7">
    <rdf:RDF>
      <cc:Work
         rdf:about="">
        <dc:format>image/svg+xml</dc:format>
        <dc:type
           rdf:resource="http://purl.org/dc/dcmitype/StillImage" />
        <dc:title />
      </cc:Work>
    </rdf:RDF>
  </metadata>
  <g
     inkscape:groupmode="layer"
     id="layer5"
     inkscape:label="Rond principal"
     style="display:inline">
    <path
       style="fill:#808080;stroke:#000000;stroke-width:1px;stroke-linecap:butt;stroke-linejoin:miter;stroke-opacity:1"
       d="m 338.4011,31.888166 c -10.27187,-2.942266 -20.86085,-6.086372 -32.0022,-6.060915 -17.22048,0.645549 -35.30791,-3.732589 -51.84046,1.010152 -15.57528,6.660229 -28.84068,16.421012 -41.41625,28.284272 -9.41126,2.081763 -24.5337,1.360801 -34.34519,-1.010153 -21.56944,-1.507096 -43.75656,-2.525102 -65.65991,-3.030458 -9.92165,2.644602 -14.726456,10.599593 -23.233513,16.162441 -5.549828,4.375449 -16.012158,12.618747 -20.203051,18.182745 -8.676842,9.56231 -18.909426,18.8133 -25.002863,29.80268 -2.805434,12.49422 -11.605273,18.6882 -18.182749,30.30458 -6.148662,8.53588 -11.985799,22.50207 -1.2611,30.80647 9.867892,-1.88205 10.118487,15.7254 12.12183,24.93114 -6.964509,11.5797 4.593556,11.74903 13.352213,19.60726 9.72667,3.19112 -0.826809,23.64872 -2.240535,33.24335 -5.070417,10.04413 -7.208186,20.96674 -11.111678,30.99205 -2.957508,9.18367 2.003301,26.68954 -6.060915,29.6171 -3.534654,2.89513 -1.468659,19.79112 -2.020305,28.36853 -0.980107,15.19249 1.293904,30.88939 15.152288,40.32184 16.412729,4.11274 30.241189,19.6312 18.134952,35.86047 -5.999094,10.03661 -5.867789,24.07768 -14.094342,34.85021 -4.508069,6.88168 9.030692,19.25921 3.030458,26.26397 16.701184,-14.38075 -3.810272,13.3269 -3.030458,26.26396 4.21141,12.09042 11.163364,25.27762 18.182746,35.35534 -0.32767,6.21313 0.683677,20.26832 1.968003,29.39904 4.266998,6.09019 2.738907,14.04528 9.143675,18.07813 11.628311,10.3109 26.837184,5.00907 39.395954,12.12183 10.08683,-1.15659 19.67092,19.34539 33.33503,21.21321 11.92294,1.50637 24.09522,-0.46444 37.37564,0 13.50319,-0.35038 22.51113,-8.77024 33.33504,-9.09138 13.16278,-7.60497 29.41309,-4.43542 44.44671,-5.05076 11.12823,2.68485 21.83297,2.25804 30.30458,9.09137 8.16757,4.43025 15.19145,-9.98849 27.27412,-7.07106 12.92175,-2.06483 26.08022,-2.9882 39.39594,-3.03046 9.55331,-5.69396 8.69313,-9.24155 16.6707,-14.90134 8.21145,-6.76486 23.28966,-9.22015 37.59699,-8.33217 15.45984,2.68668 29.99904,4.50184 44.72726,6.06092 11.92047,0.73841 17.04984,13.43057 29.29443,14.14213 9.09405,-3.81931 16.69807,-12.04867 25.25381,-16.16244 7.46757,-10.02333 24.31657,-9.22571 33.33504,-15.15229 9.57916,-5.78928 21.81362,-16.7356 21.79158,-21.93575 8.36643,-14.80328 18.74763,-21.9919 21.64498,-38.6734 -2.54041,-10.27227 0.41547,-25.08891 -2.02031,-36.36549 0.62606,-12.64418 11.90398,-21.91785 17.17259,-34.34519 3.90322,-11.25871 13.03439,-29.75524 8.08122,-44.44671 -2.67346,-16.61637 -12.74751,-27.40981 -14.14213,-44.44671 -2.93118,-18.46379 -2.87951,-37.61611 4.04061,-55.55839 3.65853,-14.53792 7.74396,-29.20095 0,-42.42641 -3.57298,-8.88937 -13.98322,-19.26427 -19.1929,-29.29442 -12.86488,-13.83683 -9.21142,-27.65522 -18.18275,-45.45687 C 561.826,160.69231 545.52073,145.62139 528.53754,133.91967 517.80517,129.363 512.74656,125.14195 505.07627,119.77144 495.1387,112.24096 484.44242,104.38386 474.737,97.63402 461.80355,91.76192 448.40253,86.00537 433.35544,85.42625 425.3573,80.75644 411.78725,81.07859 410.12193,73.30442 405.77434,63.465543 399.47075,53.139015 392.13917,43.126279 380.10115,33.842647 366.98288,33.342307 352.54324,27.847556 c -8.99118,-1.774751 -13.22677,6.628148 -19.1929,6.060915"
       id="path3075"
       inkscape:connector-curvature="0"
       sodipodi:nodetypes="ccccccccccccccccccccccccccccccccccccccccccccccccccccccccc" />
    <path
       style="fill:#cccccc;stroke:none"
       d="m 354.56354,119.77144 c -6.97974,-3.83374 -21.3002,-2.83877 -32.00862,-3.03046 -17.9351,-1.8156 -29.09458,14.51591 -42.74266,23.23351 -7.22913,7.58875 -14.14397,20.56517 -23.23351,24.24366 -11.56778,11.67209 -9.83469,23.93005 -19.1929,38.3858 -4.24909,7.54805 -16.04924,18.23923 -12.12183,30.30457 5.80452,10.3338 16.22773,25.52862 28.28427,18.18275 15.69282,-10.09743 9.24581,-30.00648 16.05871,-45.5281 10.07452,-6.39396 16.42838,-8.33514 28.52959,-14.26479 8.45221,-2.26202 19.67735,-8.38506 30.16299,-10.91779 13.62768,-6.2438 32.22538,-10.57762 42.1423,-18.52999 4.63304,-5.99934 7.49439,-19.4206 -1.7362,-22.88626 -1.16224,-7.38203 -24.43991,-7.97109 -14.14214,-19.1929 z"
       id="path3078"
       inkscape:connector-curvature="0"
       sodipodi:nodetypes="ccccccccccccc" />
    <path
       style="fill:#4d4d4d;stroke:none"
       d="m 360.62446,255.13188 c -11.48672,12.42252 -12.65064,30.15183 -25.25381,40.4061 -9.77384,13.35151 -28.25355,20.64803 -35.35534,34.34519 -7.92379,7.10126 -20.82879,6.10092 -29.29443,14.14213 -9.41062,6.96935 -1.26069,11.24115 8.08122,15.15229 8.95259,2.80431 24.82922,7.30191 32.32488,-2.0203 12.0396,-6.97141 22.52747,-15.51573 32.49009,-26.21418 8.72306,-7.12508 16.35148,-17.25118 22.05815,-27.32391 5.67748,-11.12085 19.89244,-19.42566 19.1929,-33.33503 1.06929,-11.20695 6.89173,-18.00285 9.09137,-26.26396 0,-2.69374 31.31473,-5.38748 9.09137,-25.25382 -24.22012,5.98403 -36.35426,22.16591 -42.4264,36.36549 z"
       id="path3080"
       inkscape:connector-curvature="0"
       sodipodi:nodetypes="cccccccccccc" />
    <path
       style="fill:#4d4d4d;stroke:none"
       d="m 125.6875,372.0625 c -12.286,-0.25271 -18.71741,13.07351 -26.6875,17.40625 -6.080084,8.39454 -23.109734,8.50989 -33.96875,8.84375 3.172909,6.13884 3.154068,13.47286 -2.4375,20.96875 -5.999094,10.03661 -5.867197,24.07122 -14.09375,34.84375 -3.506467,5.35271 3.888206,14.04937 4.53125,20.9375 12.77351,-2.63596 30.212685,-23.66479 39.90625,-25.96875 9.40183,-6.31474 21.42278,-6.6603 33.34375,-6.0625 14.03111,10.59157 28.02885,23.48683 43.9375,29.625 11.59664,0.19021 27.26264,5.33931 35.8125,17.8125 9.96873,6.01373 12.53974,-14.42458 12.15625,-23.21875 -2.24239,-12.51912 2.82043,-29.72176 -9.09375,-37.375 -3.52475,-13.1504 -16.21428,-18.82144 -25.25,-28.28125 -10.5926,-8.74958 -18.69916,-18.81258 -31.3125,-25.25 -5.28118,-5.21738 -14.48549,-4.02518 -24.3125,-4.03125 -0.87322,-0.14428 -1.71218,-0.23315 -2.53125,-0.25 z"
       id="path3082"
       inkscape:connector-curvature="0" />
    <path
       style="fill:#cccccc;stroke:none"
       d="m 324.09375,475.3125 c -3.68348,0.16348 -7.78721,4.99158 -7.90625,8.125 -6.3935,10.12416 -4.52893,22.4242 -5.0625,34.65625 -0.36532,12.93695 -7.96178,23.67613 -10.09375,35.03125 -8.12864,4.88384 -17.47417,17.53556 -26.28125,25.25 -10.76991,7.2591 -22.09041,15.64093 -33.3125,21.21875 -11.58295,11.5363 -3.9705,2.42415 -9.09375,9.09375 0.39257,0.25911 0.74811,0.51652 1.09375,0.78125 10.33677,-1.809 21.57401,-0.34555 32.21875,-0.78125 11.12823,2.68485 21.84089,2.26042 30.3125,9.09375 8.16757,4.43025 15.19858,-9.97993 27.28125,-7.0625 3.36373,-0.53751 6.73059,-0.9876 10.125,-1.375 0.33417,-0.55072 0.65806,-1.1101 1,-1.65625 3.13,-8.96182 5.61247,-19.35036 12.09375,-26.28125 5.34177,-9.43046 6.48735,-24.26307 0,-34.34375 -6.37089,-8.30322 -6.0411,-20.24529 -12.09375,-29.28125 0.86922,-12.75287 -2.84556,-24.24948 -5.0625,-36.375 -0.95785,-4.60602 -3.00866,-6.19184 -5.21875,-6.09375 z"
       id="path3086"
       inkscape:connector-curvature="0" />
    <path
       style="fill:#4d4d4d;stroke:none"
       d="m 607.03125,256.875 c -16.41655,4.32201 -31.29559,17.69851 -42.34375,30.59375 -6.35292,11.56566 -12.2387,25.77551 -25.28125,34.34375 -7.38839,8.09319 -17.81082,15.41827 -25.25,21.1875 -9.90002,7.53076 -19.61699,18.86694 -31.5,27.46875 -6.15794,7.00133 -16.57288,19.15935 -7.875,28.09375 1.65427,10.04208 5.98244,21.25706 14.125,29.3125 8.57116,7.87439 13.98815,18.50202 19.1875,27.28125 4.84049,4.76855 15.47305,5.26548 18.1875,12.09375 4.6419,4.62106 18.79409,5.8977 27.28125,9.09375 10.93447,1.48276 19.0254,9.33297 33.15625,7.09375 1.79332,-0.20295 3.44143,-0.70653 5,-1.40625 -0.15819,-1.95815 -0.39044,-3.87822 -0.78125,-5.6875 0.62606,-12.64418 11.91889,-21.91641 17.1875,-34.34375 3.90322,-11.25871 13.01567,-29.74603 8.0625,-44.4375 -2.67346,-16.61637 -12.73038,-27.4006 -14.125,-44.4375 -2.93118,-18.46379 -2.88887,-37.62022 4.03125,-55.5625 3.49847,-13.90189 7.37531,-27.92323 0.9375,-40.6875 z"
       id="path3088"
       inkscape:connector-curvature="0" />
    <path
       style="fill:#cccccc;stroke:none"
       d="M 113.125,51.09375 C 103.20335,53.738352 98.413307,61.687152 89.90625,67.25 84.356422,71.625449 73.878393,79.873501 69.6875,85.4375 c -8.676842,9.562313 -18.906563,18.79187 -25,29.78125 -2.805434,12.49422 -11.610024,18.69612 -18.1875,30.3125 -6.148662,8.53588 -11.974699,22.5081 -1.25,30.8125 9.867892,-1.88205 10.121657,15.73176 12.125,24.9375 -0.760611,1.26465 -1.278465,2.38891 -1.625,3.40625 4.153093,0.0775 9.453403,-3.23392 14.75,-7.125 4.504837,-3.57152 14.501784,-12.72921 18.1875,-23.25 1.815276,-13.19802 9.606164,-21.67374 15.15625,-33.3125 7.455006,-11.22196 17.97481,-21.44639 31.3125,-27.28125 10.59193,-2.10314 14.29668,-11.71526 20.21875,-19.1875 6.82441,-12.2216 16.35376,-27.10968 22.21875,-41.4375 l -1.65625,0 c -3.12071,0.689916 -5.41608,0.281923 -7.46875,-0.75 -11.76713,-0.562004 -23.60084,-0.979066 -35.34375,-1.25 z"
       id="path3090"
       inkscape:connector-curvature="0" />
  </g>
  <g
     inkscape:groupmode="layer"
     id="layer1"
     inkscape:label="ombre"
     sodipodi:insensitive="true">
    <path
       style="opacity:0.45625;fill:url(#linearGradient3989);fill-opacity:1;stroke:#000000;stroke-width:1px;stroke-linecap:butt;stroke-linejoin:miter;stroke-opacity:1;display:inline"
       d="m 338.4011,31.888169 c -10.27187,-2.942266 -20.86085,-6.086372 -32.0022,-6.060915 -17.22048,0.645549 -35.30791,-3.732589 -51.84046,1.010152 -15.57528,6.660229 -28.84068,16.421012 -41.41625,28.284272 -9.41126,2.081763 -24.5337,1.360801 -34.34519,-1.010153 C 157.22756,52.604429 135.04044,51.586423 113.13709,51.081067 103.21544,53.725669 98.410634,61.68066 89.903577,67.243508 84.353749,71.618957 73.891419,79.862255 69.700526,85.426254 61.023684,94.988567 50.7911,104.23955 44.697663,115.22893 c -2.805434,12.49422 -11.605273,18.6882 -18.182749,30.30458 -6.148662,8.53588 -11.985799,22.50207 -1.2611,30.80647 9.867892,-1.88205 10.118487,15.7254 12.12183,24.93114 -6.964509,11.5797 4.593556,11.74903 13.352213,19.60726 9.72667,3.19112 -0.826809,23.64872 -2.240535,33.24335 -5.070417,10.04413 -7.208186,20.96674 -11.111678,30.99205 -2.957508,9.18367 2.003301,26.68954 -6.060915,29.6171 -3.534654,2.89513 -1.468659,19.79112 -2.020305,28.36853 -0.980107,15.19249 1.293904,30.88939 15.152288,40.32184 16.412729,4.11274 30.241189,19.6312 18.134952,35.86047 -5.999094,10.03661 -5.867789,24.07768 -14.094342,34.85021 -4.508069,6.88168 9.030692,19.25921 3.030458,26.26397 16.701184,-14.38075 -3.810272,13.3269 -3.030458,26.26396 4.21141,12.09042 11.163364,25.27762 18.182746,35.35534 -0.32767,6.21313 0.683677,20.26832 1.968003,29.39904 4.266998,6.09019 2.738907,14.04528 9.143675,18.07813 11.628311,10.3109 26.837184,5.00907 39.395954,12.12183 10.08683,-1.15659 19.67092,19.34539 33.33503,21.21321 11.92294,1.50637 24.09522,-0.46444 37.37564,0 13.50319,-0.35038 22.51113,-8.77024 33.33504,-9.09138 13.16278,-7.60497 29.41309,-4.43542 44.44671,-5.05076 11.12823,2.68485 21.83297,2.25804 30.30458,9.09137 8.16757,4.43025 15.19145,-9.98849 27.27412,-7.07106 12.92175,-2.06483 26.08022,-2.9882 39.39594,-3.03046 9.55331,-5.69396 8.69313,-9.24155 16.6707,-14.90134 8.21145,-6.76486 23.28966,-9.22015 37.59699,-8.33217 15.45984,2.68668 29.99904,4.50184 44.72726,6.06092 11.92047,0.73841 17.04984,13.43057 29.29443,14.14213 9.09405,-3.81931 16.69807,-12.04867 25.25381,-16.16244 7.46757,-10.02333 24.31657,-9.22571 33.33504,-15.15229 9.57916,-5.78928 21.81362,-16.7356 21.79158,-21.93575 8.36643,-14.80328 18.74763,-21.9919 21.64498,-38.6734 -2.54041,-10.27227 0.41547,-25.08891 -2.02031,-36.36549 0.62606,-12.64418 11.90398,-21.91785 17.17259,-34.34519 3.90322,-11.25871 13.03439,-29.75524 8.08122,-44.44671 -2.67346,-16.61637 -12.74751,-27.40981 -14.14213,-44.44671 -2.93118,-18.46379 -2.87951,-37.61611 4.04061,-55.55839 3.65853,-14.53792 7.74396,-29.20095 0,-42.42641 -3.57298,-8.88937 -13.98322,-19.26427 -19.1929,-29.29442 -12.86488,-13.83683 -9.21142,-27.65522 -18.18275,-45.45687 C 561.826,160.69231 545.52073,145.62139 528.53754,133.91967 517.80517,129.363 512.74656,125.14195 505.07627,119.77144 495.1387,112.24096 484.44242,104.38386 474.737,97.634028 461.80355,91.761922 448.40253,86.005373 433.35544,85.426254 425.3573,80.756445 411.78725,81.078597 410.12193,73.304423 405.77434,63.465546 399.47075,53.139018 392.13917,43.126282 380.10115,33.84265 366.98288,33.34231 352.54324,27.847559 c -8.99118,-1.774751 -13.22677,6.628148 -19.1929,6.060915"
       id="path3075-9"
       inkscape:connector-curvature="0"
       sodipodi:nodetypes="ccccccccccccccccccccccccccccccccccccccccccccccccccccccccc" />
  </g>
  <g
     inkscape:groupmode="layer"
     id="layer3"
     inkscape:label="ombre2"
     sodipodi:insensitive="true">
    <path
       style="opacity:0.25625;fill:url(#Polkadots-large);fill-opacity:1;stroke:#000000;stroke-width:1px;stroke-linecap:butt;stroke-linejoin:miter;stroke-opacity:1;display:inline;filter:url(#filter5595)"
       d="m 338.4011,31.888169 c -10.27187,-2.942266 -20.86085,-6.086372 -32.0022,-6.060915 -17.22048,0.645549 -35.30791,-3.732589 -51.84046,1.010152 -15.57528,6.660229 -28.84068,16.421012 -41.41625,28.284272 -9.41126,2.081763 -24.5337,1.360801 -34.34519,-1.010153 C 157.22756,52.604429 135.04044,51.586423 113.13709,51.081067 103.21544,53.725669 98.410634,61.68066 89.903577,67.243508 84.353749,71.618957 73.891419,79.862255 69.700526,85.426254 61.023684,94.988567 50.7911,104.23955 44.697663,115.22893 c -2.805434,12.49422 -11.605273,18.6882 -18.182749,30.30458 -6.148662,8.53588 -11.985799,22.50207 -1.2611,30.80647 9.867892,-1.88205 10.118487,15.7254 12.12183,24.93114 -6.964509,11.5797 4.593556,11.74903 13.352213,19.60726 9.72667,3.19112 -0.826809,23.64872 -2.240535,33.24335 -5.070417,10.04413 -7.208186,20.96674 -11.111678,30.99205 -2.957508,9.18367 2.003301,26.68954 -6.060915,29.6171 -3.534654,2.89513 -1.468659,19.79112 -2.020305,28.36853 -0.980107,15.19249 1.293904,30.88939 15.152288,40.32184 16.412729,4.11274 30.241189,19.6312 18.134952,35.86047 -5.999094,10.03661 -5.867789,24.07768 -14.094342,34.85021 -4.508069,6.88168 9.030692,19.25921 3.030458,26.26397 16.701184,-14.38075 -3.810272,13.3269 -3.030458,26.26396 4.21141,12.09042 11.163364,25.27762 18.182746,35.35534 -0.32767,6.21313 0.683677,20.26832 1.968003,29.39904 4.266998,6.09019 2.738907,14.04528 9.143675,18.07813 11.628311,10.3109 26.837184,5.00907 39.395954,12.12183 10.08683,-1.15659 19.67092,19.34539 33.33503,21.21321 11.92294,1.50637 24.09522,-0.46444 37.37564,0 13.50319,-0.35038 22.51113,-8.77024 33.33504,-9.09138 13.16278,-7.60497 29.41309,-4.43542 44.44671,-5.05076 11.12823,2.68485 21.83297,2.25804 30.30458,9.09137 8.16757,4.43025 15.19145,-9.98849 27.27412,-7.07106 12.92175,-2.06483 26.08022,-2.9882 39.39594,-3.03046 9.55331,-5.69396 8.69313,-9.24155 16.6707,-14.90134 8.21145,-6.76486 23.28966,-9.22015 37.59699,-8.33217 15.45984,2.68668 29.99904,4.50184 44.72726,6.06092 11.92047,0.73841 17.04984,13.43057 29.29443,14.14213 9.09405,-3.81931 16.69807,-12.04867 25.25381,-16.16244 7.46757,-10.02333 24.31657,-9.22571 33.33504,-15.15229 9.57916,-5.78928 21.81362,-16.7356 21.79158,-21.93575 8.36643,-14.80328 18.74763,-21.9919 21.64498,-38.6734 -2.54041,-10.27227 0.41547,-25.08891 -2.02031,-36.36549 0.62606,-12.64418 11.90398,-21.91785 17.17259,-34.34519 3.90322,-11.25871 13.03439,-29.75524 8.08122,-44.44671 -2.67346,-16.61637 -12.74751,-27.40981 -14.14213,-44.44671 -2.93118,-18.46379 -2.87951,-37.61611 4.04061,-55.55839 3.65853,-14.53792 7.74396,-29.20095 0,-42.42641 -3.57298,-8.88937 -13.98322,-19.26427 -19.1929,-29.29442 -12.86488,-13.83683 -9.21142,-27.65522 -18.18275,-45.45687 C 561.826,160.69231 545.52073,145.62139 528.53754,133.91967 517.80517,129.363 512.74656,125.14195 505.07627,119.77144 495.1387,112.24096 484.44242,104.38386 474.737,97.634028 461.80355,91.761922 448.40253,86.005373 433.35544,85.426254 425.3573,80.756445 411.78725,81.078597 410.12193,73.304423 405.77434,63.465546 399.47075,53.139018 392.13917,43.126282 380.10115,33.84265 366.98288,33.34231 352.54324,27.847559 c -8.99118,-1.774751 -13.22677,6.628148 -19.1929,6.060915"
       id="path3075-9-1"
       inkscape:connector-curvature="0"
       sodipodi:nodetypes="ccccccccccccccccccccccccccccccccccccccccccccccccccccccccc" />
  </g>
  <g
     inkscape:groupmode="layer"
     id="layer2"
     inkscape:label="bastringue"
     style="display:none">
    <path
       sodipodi:type="arc"
       style="fill:#525293;fill-opacity:1;stroke:none;display:inline"
       id="path4149"
       sodipodi:cx="309.28571"
       sodipodi:cy="309.28571"
       sodipodi:rx="277.85715"
       sodipodi:ry="277.85715"
       d="m 587.14285,309.28571 a 277.85715,277.85715 0 1 1 -555.714292,0 277.85715,277.85715 0 1 1 555.714292,0 z"
       transform="matrix(1.0539846,0,0,1.0539846,-5.9823705,-5.9823665)" />
  </g>
</svg>
