<?xml version="1.0" encoding="UTF-8" standalone="no"?>
<!-- Created with Inkscape (http://www.inkscape.org/) -->

<svg
   xmlns:dc="http://purl.org/dc/elements/1.1/"
   xmlns:cc="http://creativecommons.org/ns#"
   xmlns:rdf="http://www.w3.org/1999/02/22-rdf-syntax-ns#"
   xmlns:svg="http://www.w3.org/2000/svg"
   xmlns="http://www.w3.org/2000/svg"
   xmlns:xlink="http://www.w3.org/1999/xlink"
   xmlns:sodipodi="http://sodipodi.sourceforge.net/DTD/sodipodi-0.dtd"
   xmlns:inkscape="http://www.inkscape.org/namespaces/inkscape"
   width="640"
   height="640"
   id="svg2"
   version="1.1"
   inkscape:version="0.48.2 r9819"
   sodipodi:docname="sugar.svg"
   inkscape:export-filename="J:\Recher\projets\git\kawax\code\img\coin_00.png"
   inkscape:export-xdpi="4.5"
   inkscape:export-ydpi="4.5">
  <defs
     id="defs4">
    <inkscape:path-effect
       effect="skeletal"
       id="path-effect3897"
       is_visible="true"
       pattern="M 0,5 C 0,2.24 2.24,0 5,0 7.76,0 10,2.24 10,5 10,7.76 7.76,10 5,10 2.24,10 0,7.76 0,5 z"
       copytype="single_stretched"
       prop_scale="1"
       scale_y_rel="false"
       spacing="0"
       normal_offset="0"
       tang_offset="0"
       prop_units="false"
       vertical_pattern="false"
       fuse_tolerance="0" />
    <inkscape:path-effect
       effect="skeletal"
       id="path-effect3893"
       is_visible="true"
       pattern="M 0,5 C 0,2.24 2.24,0 5,0 7.76,0 10,2.24 10,5 10,7.76 7.76,10 5,10 2.24,10 0,7.76 0,5 z"
       copytype="single_stretched"
       prop_scale="1"
       scale_y_rel="false"
       spacing="0"
       normal_offset="0"
       tang_offset="0"
       prop_units="false"
       vertical_pattern="false"
       fuse_tolerance="0" />
    <linearGradient
       id="linearGradient3975">
      <stop
         id="stop3977"
         offset="0"
         style="stop-color:#494982;stop-opacity:1;" />
      <stop
         style="stop-color:#7171b1;stop-opacity:1;"
         offset="0.5405013"
         id="stop3979" />
      <stop
         id="stop3981"
         offset="1"
         style="stop-color:#494982;stop-opacity:1;" />
    </linearGradient>
    <linearGradient
       id="linearGradient3957">
      <stop
         style="stop-color:#494982;stop-opacity:1;"
         offset="0"
         id="stop3959" />
      <stop
         id="stop3965"
         offset="0.39757586"
         style="stop-color:#7171b1;stop-opacity:1;" />
      <stop
         style="stop-color:#494982;stop-opacity:1;"
         offset="1"
         id="stop3961" />
    </linearGradient>
    <linearGradient
       id="linearGradient3925">
      <stop
         style="stop-color:#8787bc;stop-opacity:1;"
         offset="0"
         id="stop3927" />
      <stop
         style="stop-color:#353560;stop-opacity:1;"
         offset="1"
         id="stop3929" />
    </linearGradient>
    <linearGradient
       id="linearGradient4510">
      <stop
         style="stop-color:#d0cfb8;stop-opacity:1;"
         offset="0"
         id="stop4512" />
      <stop
         id="stop4524"
         offset="0.5"
         style="stop-color:#ffffff;stop-opacity:1;" />
      <stop
         style="stop-color:#d0cfb8;stop-opacity:1;"
         offset="1"
         id="stop4514" />
    </linearGradient>
    <linearGradient
       id="linearGradient4500">
      <stop
         style="stop-color:#ffffff;stop-opacity:1;"
         offset="0"
         id="stop4502" />
      <stop
         style="stop-color:#909065;stop-opacity:1;"
         offset="1"
         id="stop4504" />
    </linearGradient>
    <linearGradient
       id="linearGradient4396">
      <stop
         style="stop-color:#272727;stop-opacity:1;"
         offset="0"
         id="stop4398" />
      <stop
         style="stop-color:#707070;stop-opacity:1;"
         offset="1"
         id="stop4400" />
    </linearGradient>
    <linearGradient
       inkscape:collect="always"
       xlink:href="#linearGradient4396"
       id="linearGradient4402"
       x1="344.7356"
       y1="143.5782"
       x2="350.52917"
       y2="184.99446"
       gradientUnits="userSpaceOnUse" />
    <linearGradient
       inkscape:collect="always"
       xlink:href="#linearGradient4396"
       id="linearGradient4410"
       x1="227.23271"
       y1="249.21875"
       x2="274.43988"
       y2="264.37106"
       gradientUnits="userSpaceOnUse" />
    <radialGradient
       inkscape:collect="always"
       xlink:href="#linearGradient4396"
       id="radialGradient4418"
       cx="323.30222"
       cy="350.68353"
       fx="323.30222"
       fy="350.68353"
       r="104.1875"
       gradientTransform="matrix(1.3396206,1.0308133,-1.4322007,1.8612539,369.22659,-615.31125)"
       gradientUnits="userSpaceOnUse" />
    <radialGradient
       inkscape:collect="always"
       xlink:href="#linearGradient4500"
       id="radialGradient4506"
       cx="195.35347"
       cy="131.08769"
       fx="195.35347"
       fy="131.08769"
       r="286.89053"
       gradientTransform="matrix(0.85687449,0.9989714,-1.3325764,1.1430265,195.84669,-197.52726)"
       gradientUnits="userSpaceOnUse" />
    <linearGradient
       inkscape:collect="always"
       xlink:href="#linearGradient4510"
       id="linearGradient4522"
       x1="195.9509"
       y1="301.74771"
       x2="388.30338"
       y2="351.74768"
       gradientUnits="userSpaceOnUse" />
  </defs>
  <sodipodi:namedview
     id="base"
     pagecolor="#000000"
     bordercolor="#666666"
     borderopacity="1.0"
     inkscape:pageopacity="1"
     inkscape:pageshadow="2"
     inkscape:zoom="0.96790123"
     inkscape:cx="408.34381"
     inkscape:cy="361.60802"
     inkscape:document-units="px"
     inkscape:current-layer="layer5"
     showgrid="false"
     inkscape:window-width="1280"
     inkscape:window-height="968"
     inkscape:window-x="-4"
     inkscape:window-y="-4"
     inkscape:window-maximized="1" />
  <metadata
     id="metadata7">
    <rdf:RDF>
      <cc:Work
         rdf:about="">
        <dc:format>image/svg+xml</dc:format>
        <dc:type
           rdf:resource="http://purl.org/dc/dcmitype/StillImage" />
        <dc:title />
      </cc:Work>
    </rdf:RDF>
  </metadata>
  <g
     inkscape:groupmode="layer"
     id="layer5"
     inkscape:label="sioucre"
     style="display:inline">
    <path
       style="fill:#808080;fill-opacity:1;stroke:none"
       d="m 45.386072,296.54813 c -2.587386,-1.81658 -4.852441,-3.63575 -5.470579,-5.59816 -1.338468,0.26292 -0.4926,-1.59425 -2.306243,-1.33733 -1.420303,-2.43847 -5.751895,-3.63317 -3.221861,-6.3243 1.528741,-0.0586 -0.339423,-2.80905 1.57124,-3.31494 -0.115591,-1.88444 -0.234058,-3.32233 1.186373,-3.80676 -2.216148,-2.39608 4.981851,-2.20861 1.428211,-3.07227 0.644332,-1.2595 1.838231,-0.57253 1.808501,-2.03409 2.543159,-0.35403 -0.970875,-5.95657 1.636097,-7.35793 0.0559,-2.79158 2.93054,-3.60377 4.939501,-4.17112 0.937303,-0.51952 4.230387,-1.96298 3.235067,-2.80292 -1.299619,-0.54188 -0.10045,-3.78992 -1.731071,-4.96932 -0.728654,-2.8489 0.519745,-5.12791 3.331245,-5.15821 -1.400892,-2.6823 2.091863,-1.26026 0.931901,-3.94735 0.304142,-2.15657 0.0419,-3.45207 -1.232877,-4.21096 0.534074,-1.7057 4.58622,-2.13804 0.899608,-2.91008 1.067703,-1.21126 3.319452,-2.67058 4.901942,-3.62141 -1.161451,-0.37375 -2.734884,-1.76815 -0.384626,-1.66179 -0.333672,-1.62565 1.424692,-0.75632 1.315324,-2.37163 1.867088,0.30752 -1.438612,0.18809 1.028576,0.16167 1.649356,0.0442 3.485324,-0.0614 4.988555,0 -1.314249,0.14235 -2.881121,0.18763 -0.978054,-0.24591 -0.425774,-1.43783 2.098708,-0.4744 -0.06944,-1.96406 -1.293342,-3.0888 3.294754,-1.83514 2.007152,-4.99429 0.857218,-1.49869 2.656451,-3.21065 3.836931,-3.73748 -1.522976,-2.90745 5.382857,-2.16746 4.952756,-4.44824 4.100551,0.2454 3.943288,2.06421 8.058046,2.13019 2.645497,-0.0631 -1.348531,0.27376 0.779663,-0.16167 0.666199,1.41118 0.43663,3.72385 -0.793876,3.9719 -0.647746,3.7435 0.762702,7.03056 1.061707,10.55454 1.17344,0.48763 2.960963,8.91668 3.028824,5.25847 1.320055,3.27919 0.427981,3.49633 3.256137,5.79135 0.955928,1.68068 1.993172,2.43483 0.9032,2.79698 0.458507,1.12487 1.409831,5.72033 1.372585,2.33499 1.463787,2.50573 1.670599,5.14994 3.48543,7.57533 1.828188,3.43276 3.627999,6.90558 6.808713,9.39235 -0.41509,1.69399 1.59053,0.65467 1.27327,2.51366 2.11641,1.90153 -0.18642,4.60205 -1.27327,6.32619 -0.0479,2.07115 0.42891,4.36704 -1.08153,4.94656 -0.42447,1.55749 -1.283846,2.71305 -2.094985,3.31494 -0.964906,2.22977 -3.334432,4.8324 -5.768037,5.39105 -0.186269,2.40222 -1.930841,2.98908 -3.702299,3.16162 -0.240743,3.06997 -3.757688,4.74557 -6.495926,4.41867 -0.980455,1.62866 -3.200456,0.27717 -4.206011,2.02916 -2.276814,-0.30434 -5.987452,0.93353 -6.466433,-1.26001 -2.606928,0.20606 -5.330386,0.0568 -7.894553,0.0977 0.41046,-3.11196 -5.821256,0.90201 -5.456197,-2.31984 -3.400762,0.23985 -6.853054,0.0502 -10.256207,0.10987 -0.458361,-2.04307 -3.871065,0.0308 -3.14248,-2.20996 1.032583,0.94272 -0.863499,3.43322 -0.789593,1.97244 2.267781,1.83358 1.940859,-2.71163 1.837086,0.66966 -0.07118,2.34481 0.295914,-3.86692 -0.178583,-0.71884 -0.385821,1.922 -0.563177,3.87685 -0.86891,5.81161 z"
       id="path3977"
       inkscape:connector-curvature="0"
       sodipodi:nodetypes="cccccccccccccccccccccccccccccccccccccccccccccccccccccc" />
    <path
       style="fill:#f0f0f0;fill-opacity:1;stroke:none"
       d="m 266.75,254.125 c -70.8128,0.014 -137.60869,-2.97264 -198.973214,-2.91964 -0.456655,1.97091 -0.466019,2.68056 -0.887826,2.87067 -0.0095,0.10451 0.405548,1.22158 -0.32646,1.36147 -0.002,3.8e-4 0.06701,0.30379 0.125,0.59375 0.02899,0.14498 0.05501,0.26161 0,0.5 -0.01521,0.0659 -0.07922,0.14285 -0.125,0.21875 l 0,4.28125 0,1.15625 c 0,0.002 0.06701,0.27256 0.125,0.5625 0.02899,0.14498 0.05501,0.29286 0,0.53125 -0.02751,0.1192 -0.0782,0.25854 -0.21875,0.375 -0.140544,0.1164 -0.329275,0.1875 -0.46875,0.1875 -0.153049,0 -0.360668,-0.0729 -0.5,-0.25 -0.11853,-0.15067 -0.15455,-0.2956 -0.15625,-0.40625 -0.04267,0.27796 -0.02646,0.52127 -0.15625,0.8125 -0.21077,0.47296 -0.765166,0.9375 -1.4375,0.9375 -0.153047,0 -0.391918,-0.0416 -0.53125,-0.21875 -0.08435,-0.10724 -0.04811,-0.18885 -0.0625,-0.28125 -0.03373,0.13094 -0.0159,0.23466 -0.125,0.34375 -0.205197,0.2053 -0.531226,0.266 -0.71875,0.25 -0.172817,-0.0147 -0.272157,-0.0926 -0.375,-0.125 0.0174,0.10856 0.03689,0.2844 0.09375,0.46875 0.06619,0.21464 0.16324,0.43419 0.1875,0.71875 0.02426,0.28456 -0.04111,0.66611 -0.3125,0.9375 -0.205203,0.2053 -0.499979,0.266 -0.6875,0.25 -0.172813,-0.0147 -0.272158,-0.0614 -0.375,-0.0937 0.01783,0.10858 0.03755,0.224 0.09375,0.40625 0.06619,0.21463 0.10073,0.46544 0.125,0.75 0.02426,0.28457 -0.0099,0.69735 -0.28125,0.96875 -0.205197,0.20525 -0.499976,0.23475 -0.6875,0.21875 -0.187525,-0.0158 -0.330176,-0.0607 -0.4375,-0.0937 -0.0076,0.045 -0.006,-0.008 0,0.0937 0.01395,0.23715 0.08605,0.58646 0.15625,0.9375 0.07021,0.35105 0.1351,0.73411 0.15625,1.09375 0.02116,0.35963 0.02451,0.75675 -0.3125,1.09375 -1.78e-4,2e-4 -0.124702,0.0937 -0.125,0.0937 -3e-4,0 -0.0439,0.0233 -0.0625,0.0312 -0.03719,0.0151 -0.04446,0.0272 -0.0625,0.0312 -0.03606,0.009 -0.04618,-0.002 -0.0625,0 -0.03267,0.005 -0.10184,0.0303 -0.125,0.0312 -0.04632,0.003 -0.06338,-10e-4 -0.125,0 -0.123226,0.003 -0.302423,-10e-4 -0.5,0 -0.395155,0.002 -0.903498,0.003 -1.4375,0 -1.068004,-0.006 -2.189018,-0.0312 -2.375,-0.0312 l -0.8125,0 c -0.07571,0.0942 -0.12646,0.19265 -0.21875,0.28125 -0.209084,0.20077 -0.488673,0.40581 -0.75,0.625 -0.261327,0.21918 -0.542115,0.46099 -0.75,0.65625 -0.189842,0.17832 -0.28543,0.30455 -0.3125,0.34375 0.0034,0.0378 0.0021,0.13903 0.03125,0.25 0.02912,0.11097 0.0612,0.22063 0.0625,0.40625 0.0014,0.18562 -0.06553,0.47177 -0.25,0.65625 -0.271395,0.2714 -0.652938,0.3367 -0.9375,0.3125 -0.284563,-0.0243 -0.504109,-0.0901 -0.71875,-0.15625 -0.184361,-0.0568 -0.328953,-0.1077 -0.4375,-0.125 0.0324,0.10284 0.07902,0.23343 0.09375,0.40625 0.01599,0.18752 -0.0448,0.4823 -0.25,0.6875 -0.205197,0.2053 -0.499976,0.266 -0.6875,0.25 -0.172817,-0.0147 -0.272157,-0.0926 -0.375,-0.125 0.01783,0.10858 0.03755,0.25526 0.09375,0.4375 0.06619,0.21465 0.16324,0.46544 0.1875,0.75 0.02426,0.28456 -0.04111,0.66611 -0.3125,0.9375 -0.205203,0.20555 -0.531228,0.23475 -0.71875,0.21875 -0.108964,-0.009 -0.17207,-0.01 -0.25,-0.0312 0.02172,0.0779 0.0532,0.10977 0.0625,0.21875 0.01599,0.18753 -0.01355,0.51356 -0.21875,0.71875 -0.337002,0.337 -0.765363,0.3336 -1.125,0.3125 -0.359637,-0.0211 -0.711455,-0.1173 -1.0625,-0.1875 -0.351045,-0.0702 -0.700361,-0.1111 -0.9375,-0.125 -0.10155,-0.006 -0.04867,-0.008 -0.09375,0 0.03309,0.10733 0.04651,0.21873 0.0625,0.40625 0.01599,0.18753 -0.01355,0.4823 -0.21875,0.6875 -0.205197,0.2053 -0.499976,0.266 -0.6875,0.25 -0.115886,-0.01 -0.20007,-0.0392 -0.28125,-0.0625 0.02327,0.0812 0.0526,0.16536 0.0625,0.28125 0.01599,0.18752 -0.0448,0.48231 -0.25,0.6875 -0.11819,0.118 -0.14146,0.1087 -0.1875,0.125 -0.04604,0.0164 -0.09483,0.0555 -0.125,0.0625 -0.06034,0.0127 -0.09722,-0.007 -0.15625,0 -0.118065,0.0128 -0.274613,0.0233 -0.4375,0.0312 -0.325773,0.0145 -0.711397,0.0312 -1.125,0.0312 -0.413603,0 -0.861727,-0.0165 -1.1875,-0.0312 -0.162887,-0.007 -0.288185,-0.0184 -0.40625,-0.0312 -0.05903,-0.007 -0.12716,0.0127 -0.1875,0 -0.03017,-0.006 -0.04771,-0.0462 -0.09375,-0.0625 -0.04604,-0.0164 -0.100562,-0.007 -0.21875,-0.125 -0.20519,-0.20519 -0.26599,-0.49998 -0.25,-0.6875 0.01222,-0.14328 0.03382,-0.25115 0.0625,-0.34375 -0.143469,0.0335 -0.277562,0.0625 -0.53125,0.0625 -0.318278,0 -0.572468,-0.0697 -0.71875,-0.0937 -0.02195,-0.004 -0.01782,0.002 -0.03125,0 0.0088,0.10359 0.09006,0.28536 0.15625,0.5 0.06619,0.21464 0.13199,0.46543 0.15625,0.75 0.02426,0.28456 -0.04111,0.6661 -0.3125,0.9375 -0.205203,0.20525 -0.499979,0.23475 -0.6875,0.21875 -0.187521,-0.0158 -0.298926,-0.0607 -0.40625,-0.0937 0.03195,0.16875 0.12588,0.40979 0.1875,0.71875 0.06162,0.30896 0.09167,0.79229 -0.25,1.125 -0.341671,0.33275 -0.821911,0.40625 -1.46875,0.40625 -0.268311,0 -0.598072,-0.0541 -0.8125,-0.3125 -0.21443,-0.25841 -0.17673,-0.5534 -0.125,-0.75 -0.432656,0.25063 -0.87773,0.69564 -1.3125,1.25 l 0,216.15625 451.5625,0 0,-248.5 c -72.66551,-0.0153 -146.31219,-0.014 -217.125,0 z"
       id="path3970"
       inkscape:connector-curvature="0"
       sodipodi:nodetypes="sccsccccscccscccsccccccsccccccccccccccccccsssccccccccccccccccscccccssccscccccccccscccccccsccsscccscsccccccs" />
    <path
       style="fill:#f0f0f0;fill-opacity:1;stroke:none"
       d="m 63.15625,263.625 c 0.0052,0.0183 -0.0063,0.0106 0,0.0312 0.0078,0.0252 0.02235,0.0964 0.03125,0.125 0.02029,-0.063 0.01736,-0.10685 0.03125,-0.15625 -0.01742,-0.003 -0.01196,0 -0.03125,0 -0.01929,0 -0.01382,-0.003 -0.03125,0 z"
       id="path3968" />
    <path
       style="fill:#f0f0f0;fill-opacity:1;stroke:none"
       d="m 35.125,284.6875 c -0.03538,0.0673 -0.08709,0.15555 -0.125,0.21875 -0.05286,0.0881 -0.0454,0.1023 -0.09375,0.1875 0.09289,-0.0242 0.3204,-0.0392 0.3125,-0.0312 -0.01679,0.0165 0.0024,0.075 -0.03125,-0.0937 -0.01285,-0.0645 -0.03608,-0.19185 -0.0625,-0.28125 z"
       id="rect3075" />
    <path
       style="fill:#ffffff;fill-opacity:1;stroke:none;display:inline"
       d="M 173.25,120.21875 73.5625,212.6875 c -0.02325,0.11852 -0.07341,0.26037 -0.09375,0.375 0.152437,-0.002 0.323027,-0.0175 0.5,0.0625 0.214269,0.0968 0.4375,0.44391 0.4375,0.75 0,0.15305 -0.04163,0.36067 -0.21875,0.5 -0.177125,0.13935 -0.355963,0.16025 -0.46875,0.15625 -0.129842,-0.005 -0.19934,-0.0378 -0.28125,-0.0625 0.02899,0.14498 0.05501,0.26161 0,0.5 -0.01521,0.0659 -0.07922,0.14275 -0.125,0.21875 l 0,0.25 c 0.07022,0.35104 0.10385,0.70286 0.125,1.0625 0.0093,0.15752 -0.09874,0.33272 -0.125,0.5 l 0,3.03125 c 0.776009,-0.44194 -0.593193,0.67263 0.1875,1.09375 1.6e-4,0.01 0,0.0213 0,0.0312 0,0.32895 -0.09566,0.65816 -0.375,0.9375 -0.317729,0.31772 -0.63598,0.4174 -1,0.4375 -0.182009,0.0101 -0.379481,-0.0281 -0.59375,-0.125 -0.214269,-0.0968 -0.5,-0.38141 -0.5,-0.6875 l 0,8.96875 c 0,0.0562 0.0829,0.27567 0.125,0.53125 0.0421,0.25558 0.03648,0.68227 -0.28125,1 -0.205197,0.2053 -0.468726,0.266 -0.65625,0.25 -0.143277,-0.0122 -0.25114,-0.0338 -0.34375,-0.0625 0.03349,0.14346 0.0625,0.27756 0.0625,0.53125 l 0,1.125 c 0,0.002 0.06701,0.3038 0.125,0.59375 0.02899,0.14498 0.05501,0.32411 0,0.5625 -0.01521,0.0659 -0.07922,0.1115 -0.125,0.1875 l 0,0.90625 c 0,0.0562 0.0204,0.27567 0.0625,0.53125 0.0421,0.25558 0.06773,0.68227 -0.25,1 -0.271395,0.2714 -0.652938,0.3368 -0.9375,0.3125 -0.284562,-0.0243 -0.504108,-0.09 -0.71875,-0.15625 -0.184361,-0.0568 -0.360202,-0.1077 -0.46875,-0.125 0.03239,0.10285 0.11026,0.20219 0.125,0.375 0.01599,0.18753 -0.01355,0.51355 -0.21875,0.71875 -0.205204,0.20525 -0.499979,0.23475 -0.6875,0.21875 -0.143275,-0.0122 -0.25114,-0.0338 -0.34375,-0.0625 0.03349,0.14347 0.0625,0.30881 0.0625,0.5625 l 0,1.125 0,4.5 0,1.125 c 0,0.10433 0.03736,0.26918 0.0625,0.5 0.02514,0.23082 1.295561,1.85199 1.137691,2.16772 127.468529,3.28082 282.855369,0.39468 417.612309,0.39468 l 139.40625,-129.28125 -451.53125,0 z"
       id="path3963"
       inkscape:connector-curvature="0"
       sodipodi:nodetypes="ccccsccccccccccsccccsscccsscccssssccccccsccssccccc" />
    <rect
       style="fill:#d7d7d7;fill-opacity:1;stroke:none;display:inline"
       id="rect3075-7"
       width="188.04132"
       height="251.41933"
       x="665.8327"
       y="706.32745"
       transform="matrix(0.73058812,-0.68281842,0,1,0,0)" />
    <path
       style="fill:none;stroke:#000000;stroke-width:1px;stroke-linecap:butt;stroke-linejoin:miter;stroke-opacity:1"
       d="m 70.771684,218.46939 c 1.156859,0.63693 6.07849,-4.55858 10.331633,-8.26531 0.802835,-4.28348 3.690487,-4.19006 5.165816,-7.74872 2.836292,-2.98842 5.197551,-4.24307 8.781888,-5.16582 4.893423,-1.71053 9.678709,-3.53495 10.331629,-7.23214 2.49185,-1.35688 5.89696,-6.92896 7.23215,-9.81505 2.88213,-2.33286 6.65485,-5.66244 7.74872,-8.26531 2.81146,-1.81455 5.39991,-5.30275 6.71556,-8.26531 2.66737,-4.684 8.89484,-4.19009 11.76309,-9.83675 0.95479,-2.31304 9.69768,-4.45451 7.35043,-6.17728 2.96726,-1.59036 6.55807,-5.3206 8.78189,-6.71556 3.0999,-3.24352 7.321,-5.29924 11.88138,-7.74872 3.97263,-3.4556 5.89628,-5.32215 8.78189,-9.29847 0.4805,-3.92027 7.87931,-3.75238 11.36479,-1.54975 5.64367,-1.01997 14.23305,0.14973 20.66327,-1.54974 6.52429,0.76146 13.73641,1.78392 20.14668,1.54974 14.81185,0.41369 28.61771,-0.96904 42.87628,-1.03316 12.73066,2.8523 25.96674,0.46527 39.36998,1.03316 11.25868,-0.39084 23.66575,0.78729 33.46803,-0.51658 4.63502,0.0913 12.89611,-1.04889 20.14668,-1.03316 13.86636,1.33733 27.72691,-0.92934 41.32653,1.54974 7.6006,-0.1031 12.29842,2.00302 20.66327,2.58291 19.85304,-0.85887 40.11413,0.0108 59.92347,-1.03316 18.99999,-1.16575 39.06474,-0.19996 57.86889,-0.49899 7.6841,0.63802 15.77241,-0.43976 23.751,-0.53418 6.14969,-0.003 15.22846,0.40789 22.32731,-1.03316 7.56249,0.16191 14.29259,-1.37335 21.58213,0 4.81782,5.14225 7.94321,2.35464 3.09949,5.6824 -4.39257,0.4428 -5.99588,2.875 -9.44557,5.68467 -2.03944,1.41311 -5.98104,4.2799 -7.60162,6.71329 -2.19574,3.7494 -4.03588,5.88111 -7.23214,8.2653 -3.54625,3.0807 -5.1552,3.10021 -7.00285,6.25437 -2.29345,3.0074 -6.85963,4.08338 -8.4946,7.17676 -4.77596,3.58321 -6.6677,8.02291 -10.33163,11.88137 -1.24232,4.32651 -6.10677,6.43386 -9.29847,9.29847 -2.07725,1.63511 -5.44955,4.25548 -8.78189,6.19898 -2.5786,3.73316 -5.58021,6.9311 -9.29847,10.84822 -2.26744,1.64146 -5.96372,3.73712 -7.74873,6.19898 -2.00723,3.13095 -5.39896,3.2609 -7.74872,7.23214 -3.38428,1.28989 -6.52304,6.63832 -10.84821,8.26531 -1.88962,3.9104 -7.30883,4.93234 -8.78189,9.29847 -2.66129,2.29217 -4.30458,4.64992 -7.23215,6.19897 -2.77305,1.63137 -6.68975,0.0401 -8.2653,4.13266 -3.77383,1.12874 -3.30414,5.9736 -7.86302,6.19898 -6.3768,0.79306 -10.95214,0.88528 -17.56378,0 -7.90217,0.12733 -12.43051,-0.53031 -19.85868,0 -5.98298,-1.62587 -13.64982,1.23194 -19.80381,-1.03317 -9.3566,-0.39764 -18.96288,-0.14176 -27.89541,1.54975 -2.27061,-1.35982 -9.22069,-1.7701 -14.92146,-1.54975 -7.42431,0.92163 -12.57974,1.03671 -20.20609,0 -4.92093,0.07 -8.66875,1.3316 -14.80716,1.03317 -9.8456,-2.31648 -21.35304,0.50503 -32.20177,0 -5.3576,0.56417 -12.22274,1.29249 -18.08035,0.51658 -17.29428,-1.23855 -35.55109,-0.15329 -53.20791,-0.51658 -6.10859,-1.21412 -10.70359,2.35904 -17.0472,0.51658 -5.64463,-0.3965 -10.48931,1.76286 -15.49744,0 -26.17347,0 -52.34694,0 -78.52041,0 -4.47462,-0.73626 -9.64877,-0.68322 -14.1763,-1.54975 -7.02544,-0.53251 -16.38472,1.33463 -21.467836,-1.54974 -6.65967,0.40733 -10.462376,-0.17835 -16.01403,-0.51658 -4.644344,-2.44304 -17.937609,3.01521 -17.563776,-4.64924 2.41051,-4.06665 -0.102096,-9.73549 7.232143,-9.81505 5.644742,-0.99186 1.343193,-7.62707 4.132653,-11.36479 z"
       id="path3982"
       inkscape:connector-curvature="0" />
  </g>
  <g
     inkscape:groupmode="layer"
     id="layer2"
     inkscape:label="bastringue"
     style="display:none">
    <rect
       style="fill:#f0f0f0;fill-opacity:1;stroke:none;display:inline"
       id="rect3075-4"
       width="451.53818"
       height="283.85287"
       x="32.324883"
       y="254.12173" />
    <rect
       style="fill:#ffffff;fill-opacity:1;stroke:none;display:inline"
       id="rect3075-1-0"
       width="451.53818"
       height="190.13423"
       x="302.8486"
       y="176.77637"
       transform="matrix(1,0,-0.7331718,0.68004346,0,0)" />
    <rect
       style="fill:#d7d7d7;fill-opacity:1;stroke:none;display:inline"
       id="rect3075-7-9"
       width="196.15265"
       height="274.15405"
       x="694.55402"
       y="759.04926"
       transform="matrix(0.70037674,-0.71377337,0,1,0,0)" />
    <path
       inkscape:connector-curvature="0"
       style="font-size:medium;font-style:normal;font-variant:normal;font-weight:normal;font-stretch:normal;text-indent:0;text-align:start;text-decoration:none;line-height:normal;letter-spacing:normal;word-spacing:normal;text-transform:none;direction:ltr;block-progression:tb;writing-mode:lr-tb;text-anchor:start;baseline-shift:baseline;color:#000000;fill:#c7b175;fill-opacity:1;stroke:none;stroke-width:1px;marker:none;visibility:visible;display:inline;overflow:visible;enable-background:accumulate;font-family:Sans;-inkscape-font-specification:Sans"
       d="m 72.21875,207.40625 0,5.3125 -0.03125,0 0,1.15625 c -0.08814,0.20126 -0.23796,0.40743 -0.25,0.625 -0.01012,0.18201 0.02824,0.34823 0.125,0.5625 0.0056,0.0122 0.02445,0.0188 0.03125,0.0312 0.03117,0.18704 0.05737,0.34932 0.09375,0.53125 l 0,1.03125 c -0.08523,-0.0252 -0.156234,-0.0518 -0.28125,-0.0625 -0.187524,-0.016 -0.482303,0.0135 -0.6875,0.21875 -0.271394,0.2714 -0.336764,0.65294 -0.3125,0.9375 0.02426,0.28457 0.121311,0.56661 0.1875,0.78125 0.0562,0.18224 0.07591,0.29767 0.09375,0.40625 -0.102842,-0.0324 -0.202187,-0.079 -0.375,-0.0937 -0.187521,-0.016 -0.513547,0.0447 -0.71875,0.25 -0.317725,0.31774 -0.260849,0.74442 -0.21875,1 0.0421,0.25559 0.0625,0.41258 0.0625,0.46875 l 0,1.15625 0,8.96875 c 0,0.26925 0.02971,0.44839 0.0625,0.59375 -0.09336,-0.029 -0.198503,-0.0502 -0.34375,-0.0625 -0.187521,-0.016 -0.451047,-0.018 -0.65625,0.1875 -0.317725,0.31773 -0.323349,0.77567 -0.28125,1.03125 0.0421,0.25559 0.09375,0.44384 0.09375,0.5 l 0,0.90625 c -0.0075,0.0191 -0.02525,0.0445 -0.03125,0.0625 -0.04801,0.14402 -0.06615,0.30682 -0.09375,0.5 -0.0276,0.19317 -0.06092,0.39752 -0.03125,0.625 0.01484,0.11374 0.02823,0.22292 0.125,0.375 0.0067,0.01 0.02313,0.0206 0.03125,0.0312 l 0,0.875 c 0,0.31828 0.100905,0.54122 0.125,0.6875 0.008,0.0488 -0.0044,0.0515 0,0.0625 -0.103599,-0.009 -0.316608,-0.09 -0.53125,-0.15625 -0.214642,-0.0662 -0.434188,-0.13198 -0.71875,-0.15625 -0.284563,-0.0242 -0.666106,0.0411 -0.9375,0.3125 -0.205198,0.20519 -0.265989,0.49997 -0.25,0.6875 0.0095,0.11031 0.04047,0.17142 0.0625,0.25 -0.08072,-0.023 -0.166351,-0.0527 -0.28125,-0.0625 -0.187525,-0.016 -0.451053,0.0132 -0.65625,0.21875 -0.317734,0.31773 -0.323349,0.74442 -0.28125,1 0.0421,0.25559 0.09375,0.47508 0.09375,0.53125 l 0,1.125 0,4.5 0,1.125 c 0,0.27012 0.07703,0.47148 0.09375,0.625 0.01672,0.15352 0.0096,0.23082 0,0.25 -0.03978,0.0795 -0.215868,0.21258 -0.4375,0.375 -0.221632,0.16243 -0.521706,0.32466 -0.71875,0.71875 -0.128071,0.25614 -0.0821,0.35221 -0.09375,0.5 -0.01164,0.14779 0.0036,0.29898 0,0.5 -0.0071,0.40201 -0.0093,0.8965 0,1.40625 0.01858,1.01951 0.0625,2.12789 0.0625,2.375 0,0.0562 -0.05164,0.24442 -0.09375,0.5 -0.0421,0.25558 -0.09898,0.68227 0.21875,1 0.219989,0.21999 0.429155,0.37142 0.65625,0.46875 0.09747,0.0418 0.206226,0.0182 0.3125,0.0312 -0.01001,0.0246 -0.02387,0.0404 -0.03125,0.0625 -0.04801,0.14402 -0.06615,0.30683 -0.09375,0.5 -0.0276,0.19318 -0.06092,0.39752 -0.03125,0.625 0.01483,0.11374 0.02823,0.25418 0.125,0.40625 0.0068,0.0111 0.02302,0.0204 0.03125,0.0312 l 0,4.21875 0,0.25 c -0.22824,-0.0329 -0.481157,-0.1169 -0.65625,0.0312 -0.240047,0.20326 -0.296174,0.42877 -0.34375,0.625 -0.04757,0.19623 -0.06909,0.3943 -0.09375,0.59375 -0.02782,0.22502 -0.05317,0.39573 -0.09375,0.59375 -0.03517,-0.079 -0.02105,-0.14598 -0.09375,-0.21875 -0.279346,-0.27934 -0.639794,-0.375 -0.96875,-0.375 -0.328955,0 -0.658154,0.0957 -0.9375,0.375 -0.205197,0.20519 -0.26599,0.46872 -0.25,0.65625 0.0099,0.11589 0.07048,0.20007 0.09375,0.28125 -0.08523,-0.0252 -0.156237,-0.0518 -0.28125,-0.0625 -0.187522,-0.016 -0.513547,0.0135 -0.71875,0.21875 -0.271394,0.2714 -0.336764,0.65294 -0.3125,0.9375 0.02426,0.28457 0.121311,0.53535 0.1875,0.75 0.05686,0.18436 0.07635,0.32894 0.09375,0.4375 -0.102842,-0.0324 -0.202183,-0.079 -0.375,-0.0937 -0.187524,-0.016 -0.482303,0.0447 -0.6875,0.25 -0.271394,0.2714 -0.336764,0.65294 -0.3125,0.9375 0.02426,0.28456 0.09006,0.50412 0.15625,0.71875 0.0562,0.18225 0.107165,0.29767 0.125,0.40625 -0.103154,-0.0325 -0.263675,-0.079 -0.4375,-0.0937 -0.187521,-0.016 -0.451047,0.0447 -0.65625,0.25 -0.337001,0.337 -0.364905,0.76536 -0.34375,1.125 0.02115,0.35964 0.117285,0.71146 0.1875,1.0625 0.07022,0.35104 0.11105,0.70036 0.125,0.9375 0.0059,0.0996 0.0075,0.0485 0,0.0937 -0.08208,0.001 -0.145772,-5.7e-4 -0.25,0 -0.387133,0.002 -0.905376,0.003 -1.4375,0 -1.064249,-0.006 -2.148449,-0.0312 -2.375,-0.0312 l -0.875,0 c -0.07144,-0.0577 -0.117474,-0.0939 -0.1875,-0.125 -0.210078,-0.0934 -0.4228,-0.15625 -0.625,-0.15625 -0.202199,0 -0.383672,0.0629 -0.59375,0.15625 -0.105044,0.0467 -0.241028,0.0701 -0.34375,0.1875 -0.10272,0.1174 -0.1875,0.31418 -0.1875,0.5 0,0.13947 0.07104,0.35946 0.1875,0.5 0.05207,0.0628 0.09489,0.0568 0.15625,0.0937 -0.01437,0.0121 -0.01677,0.0192 -0.03125,0.0312 -0.261335,0.21918 -0.538623,0.42834 -0.78125,0.65625 -0.242626,0.2279 -0.477688,0.45537 -0.625,0.75 -0.213246,0.4265 -0.0555,0.74381 0,0.9375 -0.108547,-0.0173 -0.25314,-0.0682 -0.4375,-0.125 -0.214642,-0.0662 -0.434188,-0.13199 -0.71875,-0.15625 -0.284563,-0.0242 -0.666105,0.0411 -0.9375,0.3125 -0.205197,0.2052 -0.265989,0.49997 -0.25,0.6875 0.0095,0.11031 0.04047,0.17142 0.0625,0.25 -0.08072,-0.023 -0.166353,-0.0215 -0.28125,-0.0312 -0.187521,-0.016 -0.482296,-0.018 -0.6875,0.1875 -0.271394,0.2714 -0.336764,0.65294 -0.3125,0.9375 0.02426,0.28456 0.09006,0.56661 0.15625,0.78125 0.0562,0.18224 0.107165,0.29766 0.125,0.40625 -0.102843,-0.0324 -0.202183,-0.079 -0.375,-0.0937 -0.187524,-0.016 -0.513553,0.0447 -0.71875,0.25 -0.205203,0.20519 -0.234739,0.49998 -0.21875,0.6875 0.01599,0.18753 0.06065,0.29893 0.09375,0.40625 -0.04508,0.008 0.0078,0.006 -0.09375,0 -0.237138,-0.0139 -0.586455,-0.0548 -0.9375,-0.125 -0.351045,-0.0702 -0.734113,-0.16635 -1.09375,-0.1875 -0.359637,-0.0211 -0.787998,-0.0245 -1.125,0.3125 -0.205197,0.2052 -0.234739,0.49998 -0.21875,0.6875 0.0099,0.11589 0.03923,0.20007 0.0625,0.28125 -0.07858,-0.022 -0.139693,-0.053 -0.25,-0.0625 -0.187521,-0.016 -0.482298,0.0447 -0.6875,0.25 -0.205198,0.20519 -0.265989,0.49997 -0.25,0.6875 0.01191,0.13972 0.03443,0.22126 0.0625,0.3125 -0.01445,7.2e-4 -0.01629,-6.6e-4 -0.03125,0 -0.299087,0.0135 -0.661679,0.0312 -1.0625,0.0312 -0.400821,0 -0.825913,-0.0179 -1.125,-0.0312 -0.01496,-6.6e-4 -0.01681,7.2e-4 -0.03125,0 0.02807,-0.0912 0.05059,-0.17278 0.0625,-0.3125 0.01599,-0.18753 -0.01356,-0.48231 -0.21875,-0.6875 -0.317731,-0.31773 -0.775666,-0.32335 -1.03125,-0.28125 -0.255584,0.0421 -0.412579,0.0937 -0.46875,0.0937 -0.05617,0 -0.275666,-0.0519 -0.53125,-0.0937 -0.255585,-0.0421 -0.682268,-0.0365 -1,0.28125 -0.271394,0.27139 -0.336764,0.65294 -0.3125,0.9375 0.02426,0.28456 0.09006,0.5041 0.15625,0.71875 0.05273,0.171 0.105125,0.32939 0.125,0.4375 -0.102687,-0.0324 -0.233931,-0.079 -0.40625,-0.0937 -0.187524,-0.016 -0.482303,0.0132 -0.6875,0.21875 -0.235689,0.23569 -0.216191,0.54238 -0.21875,0.8125 -0.09333,-0.10854 -0.145552,-0.25276 -0.25,-0.28125 -0.339452,-0.0926 -0.516587,0.009 -0.75,0.0937 -0.233412,0.0847 -0.521442,0.21384 -0.90625,0.40625 -0.839783,0.41989 -1.369496,1.16974 -1.875,1.84375 -0.3277,0.43693 -0.645084,0.82742 -0.96875,1.125 l 0,1.375 c 0.839783,-0.41989 1.369495,-1.16975 1.875,-1.84375 0.476389,-0.63518 0.961938,-1.13077 1.4375,-1.40625 -0.05173,0.1966 -0.08943,0.49159 0.125,0.75 0.214428,0.2584 0.544189,0.3125 0.8125,0.3125 0.646839,0 1.127079,-0.0735 1.46875,-0.40625 0.34167,-0.33271 0.311615,-0.81604 0.25,-1.125 -0.06162,-0.30896 -0.155551,-0.55 -0.1875,-0.71875 0.107324,0.0331 0.218729,0.0779 0.40625,0.0937 0.187521,0.016 0.482297,-0.0135 0.6875,-0.21875 0.271394,-0.2714 0.336763,-0.65294 0.3125,-0.9375 -0.02426,-0.28457 -0.09006,-0.53536 -0.15625,-0.75 -0.06619,-0.21464 -0.147417,-0.39641 -0.15625,-0.5 0.01343,0.002 0.0093,-0.004 0.03125,0 0.146282,0.0241 0.400472,0.0937 0.71875,0.0937 0.253688,0 0.387781,-0.029 0.53125,-0.0625 -0.02868,0.0926 -0.05028,0.20047 -0.0625,0.34375 -0.01599,0.18752 0.04481,0.48231 0.25,0.6875 0.118188,0.11818 0.172711,0.10862 0.21875,0.125 0.04604,0.0163 0.06358,0.0563 0.09375,0.0625 0.06034,0.0127 0.128468,-0.007 0.1875,0 0.118065,0.0128 0.243363,0.024 0.40625,0.0312 0.325773,0.0147 0.773897,0.0312 1.1875,0.0312 0.413603,0 0.799227,-0.0168 1.125,-0.0312 0.162887,-0.008 0.319435,-0.0184 0.4375,-0.0312 0.05903,-0.007 0.09591,0.0127 0.15625,0 0.03017,-0.007 0.07896,-0.0461 0.125,-0.0625 0.04604,-0.0163 0.06931,-0.007 0.1875,-0.125 0.205198,-0.20519 0.265989,-0.49998 0.25,-0.6875 -0.0099,-0.11589 -0.03923,-0.20007 -0.0625,-0.28125 0.08118,0.0233 0.165364,0.0526 0.28125,0.0625 0.187524,0.016 0.482303,-0.0447 0.6875,-0.25 0.205203,-0.2052 0.23474,-0.49997 0.21875,-0.6875 -0.01599,-0.18752 -0.02941,-0.29892 -0.0625,-0.40625 0.04508,-0.008 -0.0078,-0.006 0.09375,0 0.237139,0.0139 0.586455,0.0548 0.9375,0.125 0.351045,0.0702 0.702863,0.16635 1.0625,0.1875 0.359637,0.0211 0.787998,0.0245 1.125,-0.3125 0.205198,-0.20519 0.234739,-0.53122 0.21875,-0.71875 -0.0093,-0.10898 -0.04078,-0.14082 -0.0625,-0.21875 0.07793,0.0217 0.141036,0.022 0.25,0.0312 0.187522,0.016 0.513547,-0.0132 0.71875,-0.21875 0.271394,-0.27139 0.336764,-0.65294 0.3125,-0.9375 -0.02426,-0.28456 -0.12131,-0.53535 -0.1875,-0.75 -0.0562,-0.18224 -0.07592,-0.32892 -0.09375,-0.4375 0.102843,0.0324 0.202183,0.1103 0.375,0.125 0.187524,0.016 0.482303,-0.0447 0.6875,-0.25 0.205203,-0.2052 0.265989,-0.49998 0.25,-0.6875 -0.01473,-0.17282 -0.06135,-0.30341 -0.09375,-0.40625 0.108547,0.0173 0.253139,0.0682 0.4375,0.125 0.214641,0.0662 0.434187,0.13198 0.71875,0.15625 0.284562,0.0242 0.666105,-0.0411 0.9375,-0.3125 0.184475,-0.18448 0.251362,-0.47063 0.25,-0.65625 -0.0013,-0.18562 -0.03338,-0.29528 -0.0625,-0.40625 -0.02913,-0.11097 -0.02787,-0.21219 -0.03125,-0.25 0.02707,-0.0392 0.122658,-0.16543 0.3125,-0.34375 0.207885,-0.19526 0.488673,-0.43707 0.75,-0.65625 0.261327,-0.21919 0.540916,-0.42423 0.75,-0.625 0.09229,-0.0886 0.143037,-0.18703 0.21875,-0.28125 l 0.8125,0 c 0.185982,0 1.306996,0.0256 2.375,0.0312 0.534002,0.003 1.042345,0.002 1.4375,0 0.197577,-0.001 0.376774,0.003 0.5,0 0.06162,-0.001 0.07868,0.003 0.125,0 0.02316,-0.001 0.09233,-0.0267 0.125,-0.0312 0.01632,-0.002 0.02644,0.009 0.0625,0 0.01804,-0.004 0.02531,-0.0161 0.0625,-0.0312 0.0186,-0.008 0.0622,-0.0312 0.0625,-0.0312 2.98e-4,-1.7e-4 0.124822,-0.0935 0.125,-0.0937 0.337006,-0.337 0.333655,-0.73412 0.3125,-1.09375 -0.02115,-0.35964 -0.08604,-0.7427 -0.15625,-1.09375 -0.0702,-0.35104 -0.1423,-0.70035 -0.15625,-0.9375 -0.006,-0.10164 -0.0076,-0.0487 0,-0.0937 0.107324,0.0331 0.249975,0.0779 0.4375,0.0937 0.187524,0.016 0.482303,-0.0135 0.6875,-0.21875 0.271395,-0.2714 0.305514,-0.68418 0.28125,-0.96875 -0.02427,-0.28456 -0.05881,-0.53537 -0.125,-0.75 -0.0562,-0.18225 -0.07592,-0.29767 -0.09375,-0.40625 0.102842,0.0324 0.202187,0.079 0.375,0.0937 0.187521,0.016 0.482297,-0.0447 0.6875,-0.25 0.271394,-0.27139 0.336763,-0.65294 0.3125,-0.9375 -0.02426,-0.28456 -0.12131,-0.50411 -0.1875,-0.71875 -0.05686,-0.18435 -0.07635,-0.36019 -0.09375,-0.46875 0.102843,0.0324 0.202183,0.1103 0.375,0.125 0.187524,0.016 0.513553,-0.0447 0.71875,-0.25 0.109104,-0.10909 0.09127,-0.21281 0.125,-0.34375 0.01439,0.0924 -0.02185,0.17401 0.0625,0.28125 0.139332,0.17712 0.378203,0.21875 0.53125,0.21875 0.672334,0 1.22673,-0.46454 1.4375,-0.9375 0.129787,-0.29123 0.113579,-0.53454 0.15625,-0.8125 0.0017,0.11065 0.03772,0.25558 0.15625,0.40625 0.139332,0.17713 0.346951,0.25 0.5,0.25 0.139475,0 0.328206,-0.0711 0.46875,-0.1875 0.140545,-0.11646 0.191243,-0.2558 0.21875,-0.375 0.05501,-0.23839 0.02899,-0.38627 0,-0.53125 -0.05799,-0.28994 -0.125,-0.56062 -0.125,-0.5625 l 0,-1.15625 0,-4.28125 c 0.04578,-0.0759 0.10979,-0.15283 0.125,-0.21875 0.05501,-0.23839 0.02899,-0.35502 0,-0.5 -0.05799,-0.28996 -0.125,-0.59187 -0.125,-0.59375 0,-0.73731 0.02176,-1.08299 0.03125,-1.1875 0.0023,-0.0261 6.2e-5,-0.0318 0,-0.0312 0,0 -1.093664,-0.18811 -1.09375,-0.1875 -0.04618,-0.0307 -0.117352,-0.036 -0.1875,-0.0937 -7.36e-4,-0.011 -0.008,-0.0138 0,-0.0625 0.0241,-0.14628 0.125,-0.36922 0.125,-0.6875 0,-0.34031 -0.04417,-1.36851 -0.0625,-2.375 -0.0091,-0.50324 -0.0067,-1.02985 0,-1.40625 0.0033,-0.18819 -0.0086,-0.32901 0,-0.4375 0.001,-0.0128 -0.0027,-0.019 0,-0.0312 0.03978,-0.0795 0.153371,-0.21258 0.375,-0.375 0.221629,-0.16243 0.552953,-0.38716 0.75,-0.78125 0.157867,-0.31573 0.150142,-0.61293 0.125,-0.84375 -0.02514,-0.23082 -0.0625,-0.39567 -0.0625,-0.5 l 0,-1.125 0,-4.5 0,-1.125 c 0,-0.25369 -0.02901,-0.41903 -0.0625,-0.5625 0.09261,0.0287 0.200475,0.0503 0.34375,0.0625 0.187521,0.016 0.482296,-0.0135 0.6875,-0.21875 0.205197,-0.2052 0.234739,-0.53122 0.21875,-0.71875 -0.01474,-0.17281 -0.09261,-0.27215 -0.125,-0.375 0.108548,0.0173 0.284389,0.0682 0.46875,0.125 0.214642,0.0662 0.434188,0.13199 0.71875,0.15625 0.284562,0.0243 0.666105,-0.0411 0.9375,-0.3125 0.317734,-0.31773 0.292099,-0.74442 0.25,-1 -0.0421,-0.25558 -0.0625,-0.47508 -0.0625,-0.53125 l 0,-0.90625 c 0.04578,-0.076 0.10979,-0.12159 0.125,-0.1875 0.05501,-0.23839 0.02899,-0.41752 0,-0.5625 -0.05799,-0.28995 -0.125,-0.59189 -0.125,-0.59375 l 0,-1.125 c 0,-0.25369 -0.02901,-0.38779 -0.0625,-0.53125 0.09261,0.0287 0.200473,0.0503 0.34375,0.0625 0.187524,0.016 0.451053,-0.0447 0.65625,-0.25 0.317735,-0.31773 0.323349,-0.74442 0.28125,-1 -0.0421,-0.25558 -0.125,-0.47508 -0.125,-0.53125 l 0,-8.96875 c 0,0.30609 0.285731,0.59069 0.5,0.6875 0.214269,0.0969 0.411741,0.13513 0.59375,0.125 0.36402,-0.0201 0.682271,-0.11978 1,-0.4375 0.27934,-0.27934 0.375,-0.60855 0.375,-0.9375 0,-0.01 1.6e-4,-0.0213 0,-0.0312 -0.780693,-0.42112 0.588509,-1.53569 -0.1875,-1.09375 l 0,-3.03125 c 0.02626,-0.16728 0.134265,-0.34248 0.125,-0.5 -0.02115,-0.35964 -0.05478,-0.71146 -0.125,-1.0625 l 0,-0.25 c 0.04578,-0.076 0.10979,-0.15284 0.125,-0.21875 0.05501,-0.23839 0.02899,-0.35502 0,-0.5 0.08191,0.0247 0.151408,0.0577 0.28125,0.0625 0.112787,0.004 0.291625,-0.0169 0.46875,-0.15625 0.177124,-0.13933 0.21875,-0.34695 0.21875,-0.5 0,-0.30609 -0.223231,-0.65319 -0.4375,-0.75 -0.176973,-0.08 -0.347563,-0.0643 -0.5,-0.0625 0.12944,-0.72944 0.32444,-1.53949 0.5,-2.40625 0.117124,-0.57826 0.173513,-1.11219 0.0625,-1.65625 -0.111005,-0.54406 -0.482902,-1.07764 -1.09375,-1.28125 -0.240728,-0.11011 -0.479275,-0.20556 -0.71875,-0.3125 z m -9.0625,56.21875 c 0.01743,-0.003 0.01196,0 0.03125,0 0.01929,0 0.01383,-0.003 0.03125,0 -0.01389,0.0494 -0.01096,0.0933 -0.03125,0.15625 -0.0089,-0.0286 -0.02344,-0.0998 -0.03125,-0.125 -0.0063,-0.0207 0.0052,-0.0129 0,-0.0312 z M 35.125,284.6875 c 0.02642,0.0894 0.04965,0.21677 0.0625,0.28125 0.03366,0.16879 0.01446,0.11021 0.03125,0.0937 0.0079,-0.008 -0.219614,0.007 -0.3125,0.0312 0.04835,-0.0852 0.04089,-0.0994 0.09375,-0.1875 0.03791,-0.0632 0.08962,-0.15147 0.125,-0.21875 z"
       id="path3903-4" />
  </g>
</svg>
